<?xml version="1.0" encoding="utf-8"?>
<!-- Generator: Adobe Illustrator 15.1.0, SVG Export Plug-In . SVG Version: 6.00 Build 0)  -->
<!DOCTYPE svg PUBLIC "-//W3C//DTD SVG 1.1//EN" "http://www.w3.org/Graphics/SVG/1.1/DTD/svg11.dtd">
<svg version="1.1" id="Layer_1" xmlns="http://www.w3.org/2000/svg" xmlns:xlink="http://www.w3.org/1999/xlink" x="0px" y="0px"
	 width="53.999px" height="113.973px" viewBox="30.237 0.5 53.999 113.973" enable-background="new 30.237 0.5 53.999 113.973"
	 xml:space="preserve">
<g>
	<path d="M70.235,63.808V37.333c0-2.762-2.238-5-5-5h-2.666V71.34c6.12,2.022,10.689,7.423,11.52,13.994H40.385
		c0.858-6.809,5.734-12.355,12.186-14.196V32.333h-4.334c-2.762,0-4,2.238-4,5v26.474c-8.344,4.594-14,13.469-14,23.666
		c0,14.912,12.088,27,26.999,27c14.912,0,27-12.088,27-27C84.235,77.276,78.579,68.401,70.235,63.808z M57.235,104.474
		c-7.231,0-13.392-4.524-15.849-10.89h31.698C70.629,99.95,64.467,104.474,57.235,104.474z"/>
	<circle cx="61.75" cy="23.75" r="4.75"/>
	<circle cx="44.667" cy="16.333" r="10.25"/>
	<circle cx="65.25" cy="7.75" r="7.25"/>
</g>
</svg>
