<?xml version="1.0" encoding="utf-8"?>
<!-- Generator: Adobe Illustrator 15.1.0, SVG Export Plug-In . SVG Version: 6.00 Build 0)  -->
<!DOCTYPE svg PUBLIC "-//W3C//DTD SVG 1.1//EN" "http://www.w3.org/Graphics/SVG/1.1/DTD/svg11.dtd">
<svg version="1.1" id="Layer_1" xmlns="http://www.w3.org/2000/svg" xmlns:xlink="http://www.w3.org/1999/xlink" x="0px" y="0px"
	 width="179px" height="79px" viewBox="0 0 79 89" enable-background="new 0 0 79 79" xml:space="preserve">
  <defs>
    <filter id="dropshadow" height="130%">
      <feGaussianBlur in="SourceAlpha" stdDeviation="3"/> 
      <feOffset dx="2" dy="2" result="offsetblur"/>
      <feComponentTransfer>
        <feFuncA type="linear" slope="0.8"/>
      </feComponentTransfer>
      <feMerge> 
        <feMergeNode/>
        <feMergeNode in="SourceGraphic"/> 
      </feMerge>
    </filter>
  </defs>
	 <g>
	<path fill="#f78f1e" d="M39.5,0C17.684,0,0,17.685,0,39.5C0,61.316,17.684,79,39.5,79C61.314,79,79,61.316,79,39.5
		C79,17.685,61.314,0,39.5,0z M39.5,72.333c-18.135,0-32.834-14.699-32.834-32.833c0-18.133,14.699-32.833,32.834-32.833
		c18.133,0,32.832,14.7,32.832,32.833C72.332,57.634,57.633,72.333,39.5,72.333z" filter="url(#dropshadow)"/>
	<polygon fill="#f78f1e" points="28.627,23.193 28.627,39.5 28.627,55.807 42.748,47.654 56.873,39.5 42.748,31.346 	" filter="url(#dropshadow)"/>
</g>
</svg>
