<?xml version="1.0" encoding="utf-8"?>
<!-- Generator: Adobe Illustrator 15.1.0, SVG Export Plug-In . SVG Version: 6.00 Build 0)  -->
<!DOCTYPE svg PUBLIC "-//W3C//DTD SVG 1.1//EN" "http://www.w3.org/Graphics/SVG/1.1/DTD/svg11.dtd">
<svg version="1.1" id="Layer_1" xmlns="http://www.w3.org/2000/svg" xmlns:xlink="http://www.w3.org/1999/xlink" x="0px" y="0px"
	 width="538.321px" height="231.68px" viewBox="88.425 60.04 538.321 231.68" enable-background="new 88.425 60.04 538.321 231.68"
	 xml:space="preserve">
<g>
	<g>
		<path fill="#C67218" d="M604.092,235.223c8.673,5.088,20.995,10.506,21.787,20.984c2.313,2.641-0.389,5.312-3.573,7.812
			c-1.082-1.596,4.398-3.479,3.982-5.855c-2.476,0.318-5.183,1.961-7.003,2.689c-2.475-2.125-5.779-4.705-9.595-4.658
			c-4.302-0.723-5.811-2.215-7.709-3.256c-6.465-1.627-10.382-3.781-14.673-5.484c-0.699-1.553,1.783-1.982,0.578-3.723
			c-3.017,0.164-0.283,1.354-1.197,2.604c-6.214-1.693-4.278-9.535-10.702-11.322c-4.554,0.104-6.938-0.863-9.335-1.834
			c-2.402-0.978-4.8-1.945-8.068-1.906c-0.748,0.009-1.547,0.069-2.399,0.199c-0.484,0.07-0.965,0.158-1.461,0.275
			c0.469,2.197-3.632,4.289-8.79,5.381c-3.002-1.873-6.691-2.561-10.604-2.516c-1.688,0.021-3.42,0.178-5.15,0.437
			c-5.335,0.804-10.684,2.591-14.93,4.283c1.954-0.987-0.845-2.854-2.431-3.283c-2.165,0.347-0.149,2.173-0.979,2.987
			c-8.369,1.501-14.963,1.884-15.214,6.729c2.051-0.201,2.205-0.656,2.379-1.108c0.155-0.45,0.326-0.919,1.387-1.076
			c3.013,2.586,0.81,3.271-0.537,4.544c2.102,1.598,6.766,0.255,9.241,1.432c0.268,0.883-0.538,1.357-1.79,1.549
			c-0.402,0.062-0.854,0.092-1.332,0.1c-2.671,0.031-6.232-0.74-7.326-1.684c-3.253,1.455,1.494,2.812-2.777,4.459
			c-1.64-0.049,1.366-1.436-1.018-1.871c-2.522,0.416-2.672,1.673-3.778,2.604c-0.572,0.068-1.116,0.101-1.634,0.106
			c-2.135,0.025-3.857-0.402-5.809-0.613c-0.427-0.652,0.312-0.904-0.211-1.589c-1.437,0.021-2.852-0.335-4.267-0.703
			c-1.436-0.376-2.871-0.735-4.149-0.722c-1.518,0.16-2.213,0.474-2.807,1.091c2.709,0.17,3.418,0.071,3.963,0.063
			c0.858-0.01,1.302,0.215,1.673,0.723c-5.302,0.771-13.479,0.726-20.497,1.773c-4.706,0.719-8.912,1.928-11.372,4.241
			c-5.17,6.751-15.925,11.53-23.745,17.351c2.055,5.559,4.306,10.549,8.908,15.237c-0.646,0.011-1.317,0.021-2.011,0.027
			c-11.092,0.134-27.427-0.167-29.735-9.392c-4.994-0.891-7.982-4.15-13.069-4.908c-5.678-6.635-13.65-10.571-25.122-10.434
			c-1.055,0.014-2.134,0.061-3.246,0.143c-6.265,1.313-3.178,5.938-6.563,8.267c-6.743-1.526-15.725-1.228-19.686-5.118
			c-2.995-2.941-3.233-5.561-7.874-7.304c-7.476-0.843-12.75-4.238-18.696-6.886c-6.541,0.723-12.661,0.926-18.843,1.226
			c-0.44,1.052,0.415,2.567,0.82,3.914c-9.093,0.679-17.159,1.276-24.674,1.367c-7.107,0.086-13.725-0.28-20.257-1.451
			c-10.429-1.87-21.5-4.55-32.523-6.01c-1.003-0.953,0.779-0.942,0.379-1.679c-7.351,0.17-15.526,1.291-22.805,1.379
			c-1.533,0.019-3.025-0.008-4.461-0.101c-2.58-5.728-7.149-9.161-14.7-9.103c-1.506-0.547-0.018-0.741-1.021-1.87
			c-7.375-0.44-11.521-4.646-19.339-4.554c-1.013,0.014-2.09,0.098-3.243,0.272c-3.79-1.418-1.433-3.313-2.751-5.259
			c-2.845-4.18-12.615-6.939-15.527-11.812c-0.481-1.377,1.955-1.727,1.586-3.072c-4.354-0.674-9.711-4.373-8.276-8.057
			c-3.186-1.007-3.962-1.691-5.445-4.02c-1.524-2.411-7.089-4.131-8.256-5.645c-2.686-3.488,0.951-9.373-7.278-11.043
			c0.523-4.654,6.044-10.415-0.702-15.657c-0.421-1.876-0.481-3.598-1.842-5.8c4.375-7.435,4.871-16.223,4.43-25.354
			c0.952-0.285-0.017-1.27,1.219-1.445c-2.641-0.453-2.806-2.507-0.852-3.867c-0.336-1.22-2.308-0.568-2.4-2.063
			c0.33-0.34,0.999-0.559,1.93-0.7c-3.93-2.284-6.598-8.187-8.038-11.74c5.322,0.711,9.819,2.409,15.808,2.337
			c2.099-0.173,2.203-0.592,2.287-1.026c0.085-0.421,0.206-0.855,1.119-0.996c0.82,1.148,0.05,2.541,3.688,3.526
			c-2.144-2.032-1.398-5.741-5.678-8.054c16.357,0.144,33.053,0.169,50.077-0.036c55.935-0.675,115.542-3.84,179.437-13.478
			c4.332-0.662,8.716-1.343,13.095-2.071c1.312-0.53-1.579-2.571-0.402-3.164c4.551-0.118,4.689,3.838,7.653,4.507
			c0.904-0.137,1.726-0.197,2.495-0.206c2.258-0.027,4.069,0.378,6.128,0.521c0.806-0.879,1.816-1.293,2.964-1.468
			c2.498-0.109,3.805,0.051,5.126,0.212c1.299,0.169,2.607,0.331,3.853,0.315c0.483-0.006,0.958-0.038,1.416-0.106
			c0.501-0.085,0.997-0.205,1.471-0.388c0.949,1.041,2.671,1.498,4.49,1.475c0.519-0.006,1.044-0.051,1.562-0.132
			c1.882-0.281,3.66-1.025,4.568-2.13c0.966,0.328,2.19,0.429,3.538,0.412c2.809-0.034,6.139-0.576,8.686-0.64
			c-1.103,2.878-6.216,3.324-8.774,5.382c-3.05,2.417-2.998,6.084-6.562,8.267c0.51,0.084,0.984,0.118,1.435,0.113
			c2.561-0.306,3.778-1.029,4.909-1.734c1.131-0.689,2.19-1.378,3.387-1.569c1.509,1.107,0.376,1.604,0.283,2.489
			c1.514-0.185,2.488-0.28,3.146-0.288c0.854-0.011,1.176,0.125,1.458,0.393c2.851-2.237,7.076-3.977,10.4-6.012
			c1.704-2.434,2.468-5.192,8.388-6.133c-0.975,2.087-3.57,3.582-3.154,6.15c0.307-0.566,1.34-0.981,2.665-1.174
			c0.521-0.08,1.09-0.125,1.68-0.133c2.358-0.028,5.054,0.566,6.469,2.095c0.793-0.043,1.516-0.115,2.213-0.221
			c6.516-0.979,9.396-4.568,17.02-6.316c0.398,0.751,0.8,1.501,1.217,2.237c4.001-0.338,5.512-1.578,8.011-2.01
			c0.758,2.277,2.253,3.691,5.004,3.657c-2.289,0.636-5.223,1.476-8.693,2c-1.471,0.227-3.032,0.39-4.696,0.458
			c-4.976,1.7-6.869,4.055-10.859,4.651c-0.58,0.091-1.188,0.146-1.854,0.153c0.311,4.127-1.96,7.275-2.03,11.184
			c2.665-0.787,3.128-4.959,4.565-7.165c1.23,8.479,2.032,24.038,18.45,29.18c8.029-2.943,4.56-13.325-4.33-16.354
			c-2.699-6.563-4.566-10.609-1.094-15.203c2.848,0.142,0.13,2.074,2.036,3.74c3.266-0.812,0.344-2.047-0.449-4.386
			c0.741-0.411,0.917-1.024,2.243-1.217c0.619-1.085-1.526-0.014-1.652-1.3c0.437-1.469,1.519-2.109,3.021-2.337
			c0.411-0.06,0.854-0.09,1.323-0.096c1.292-0.015,2.789,0.147,4.365,0.317c1.562,0.154,3.208,0.316,4.827,0.297
			c0.777-0.009,1.552-0.061,2.308-0.173c0.532,0.586,0.945,1.319,1.975,1.306c0.396,2.123,8.605,8.04,2.299,10.207
			c0.637,1.004,0.896,2.464,2.4,2.447c3.646-1.346,1.427-4.342,5.209-5.225c6.146,1.373,9.689,5.802,12.921,10.588
			c-4.673,0.7-1.509,5.537-3.572,7.829c0.882,0.785,2.33,0.92,3.919,0.903c0.526-0.006,1.07-0.03,1.615-0.054
			c0.566-0.026,1.14-0.052,1.691-0.06c1.221-0.016,2.351,0.067,3.215,0.466c10.337-5.527,19.132-11.618,23.336-19.309
			c-1.687-1.072-3.896-1.545-5.028-3.285c7.602-3.984,19.494-3.097,22.399-9.052c-0.746-1.116-1.334-3.201-4.419-3.373
			c-1.886-1.811,0.996-2.44,1.776-3.914c1.117-2.088,0.66-4.913,2.975-6.517c1.971-1.376,5.459-1.546,8.404-2.466
			c6.109-1.955,12.139-4.746,17.993-6.362c1.83-0.584,0.807-2.148,0.794-3.371c2.513-0.32,2.913-0.485,3.485-0.573
			c-0.837-2.612-0.024-4.343,0.69-6.121c-5.414-4.068-4.312-10.401-3.922-14.38c1.3-0.056,1.759,0.229,2.176,0.505
			c0.419,0.282,0.792,0.566,1.418,0.558c2.2-0.73,2.789-1.944,3.83-2.986c1.682,0.005,3.016,0.421,4.704,0.401
			c0.41-0.004,0.841-0.035,1.304-0.104c3.354,3.643,7.538,6.294,10.692,10.132c1.642,0.154,2.192,0.083,2.765-0.001
			c1.998,0.957,3.463,0.891,3.69,2.271c9.928,1.2,6.01,7.005,1.32,7.721c-0.561,1.133,0.679-0.313,0.748,2.066
			c-2.068,0.121-2.364-0.523-2.627-1.223c-1.373,1.399,1.422,3.763-1.378,4.666c-1.729-1.153-0.923-1.276,0.197-2.062
			c-0.483-1.055-2.228-0.681-3.233-1.119c-0.536,0.28,1.776,2.375,2.04,3.739c-2.062,1.391-3.086,3.736-6.058,4.174
			c-0.798,5.399,2.341,9.8,3.763,13.161c2.564-0.13,3.797,0.456,5.025,1.032c1.322,0.607,2.66,1.228,3.964,1.212
			c1.262-0.149,1.974-0.496,2.65-1.179c-0.685-1.424-3.297-0.636-4.207-1.783c3.697-0.137,5.045,1.095,6.011,2.743
			c-3.608,0.831-3.938,2.829-6.188,4.16c0.843-0.508,0.986-1.267-0.02-2.429c-2.483,0.787-1.044,1.379-1.18,2.603
			c-5.591,4.492-17.821,6.634-19.162,12.616l0.414,1.958c-1.171,0.287-0.632,1.181-1.802,1.469c8.28,5.16,7.379,10.591,4.294,13.927
			c-1.077-0.985,0.312-1.099-0.41-1.958c-0.8,0.102-1.554,0.155-2.268,0.163c-2.498,0.03-4.521-0.48-6.311-1.283
			c3.062,1.556,5.293,4.104,9.59,4.211c6.006,4.752,2.901,10.114,4.317,15.117c-5.911-1.393-1.419-7.992-8.477-8.423
			c-1.126,0.56,2.175,1.052,2.027,2.515c-2.521-0.333-3.28-2.703-6.135-2.667c-1.636-1.703-0.798-2.512-2.113-2.496
			c0.956-2.146-4.54-3.353-2.663-5.322c-4.021,1.015,0.39,7.845,5.47,8.878c-0.398,0.407,0.373,1.218-0.701,1.375
			c3.217,0.591,5.722,2.572,7.565,5.283c-2.076,0.845,3.856,1.531,2.143,3.125c0.447-0.261,1.194-0.415,2.019-0.538
			c0.557-0.088,1.133-0.142,1.685-0.227c3.492,2.431,7.018,4.835,10.883,6.849c-0.523,1.323-1.578,1.868-3.37,2.131
			c5.218,1.868,3.078,3.389,0,3.861c-0.61,0.083-1.245,0.135-1.898,0.143c1.771,0.212,2.183,2.731,0.355,3.01
			c3.243-0.071,4.696-0.618,4.767-1.023c2.263,4.895-13.709,5.781-9.156,13.106c-6.574,1.513-9.796,4.221-6.771,9.105
			c-3.846,2.477-3.266,6.504-8.372,8.545c1.237,2.43-2.116,4.321-2.146,6.799c-0.135,10.664,14.963,19.363,26.825,23.062
			C605.473,234.496,603.672,234.486,604.092,235.223z"/>
	</g>
	<g>
		<path fill="#F5F5F5" d="M174.847,192.805c0-7.759-6.216-14.044-13.882-14.044l0,0c-7.666,0-13.881,6.287-13.881,14.044
			c0,8.336,13.877,34.418,13.877,34.418S174.847,200.254,174.847,192.805z"/>
		<g opacity="0.75">
			<path fill="#AC6415" d="M130.391,241.165c-3.764,3.104,3.417,6.007,16.034,6.483l0,0c12.618,0.479,23.571-1.873,24.464-5.254
				c0.958-3.633-9.92-14.998-9.92-14.998S134.004,238.186,130.391,241.165z"/>
		</g>
	</g>
	<g>
		<path fill="#F5F5F5" d="M576.26,99.809c0-7.757-6.214-14.046-13.881-14.046l0,0c-7.665,0-13.882,6.29-13.882,14.046
			c0,8.334,13.878,34.419,13.878,34.419S576.26,107.258,576.26,99.809z"/>
		<g opacity="0.75">
			<path fill="#AC6415" d="M531.804,148.17c-3.764,3.103,3.418,6.007,16.034,6.485l0,0c12.62,0.478,23.57-1.875,24.464-5.256
				c0.958-3.631-9.919-14.997-9.919-14.997S535.418,145.19,531.804,148.17z"/>
		</g>
	</g>
	<g>
		<path fill="#F5F5F5" d="M207.553,206.186c0-7.756-6.216-14.047-13.882-14.047l0,0c-7.666,0-13.881,6.291-13.881,14.047
			c0,8.336,13.878,34.42,13.878,34.42S207.553,213.635,207.553,206.186z"/>
		<g opacity="0.75">
			<path fill="#AC6415" d="M163.097,254.546c-3.764,3.104,3.416,6.007,16.034,6.485l0,0c12.618,0.478,23.572-1.875,24.465-5.256
				c0.958-3.631-9.921-14.998-9.921-14.998S166.709,251.566,163.097,254.546z"/>
		</g>
	</g>
	<g>
		<path fill="#F5F5F5" d="M133.883,162.534c0-7.757-6.215-14.044-13.881-14.044l0,0c-7.666,0-13.881,6.287-13.881,14.044
			c0,8.336,13.878,34.419,13.878,34.419S133.883,169.985,133.883,162.534z"/>
		<g opacity="0.75">
			<path fill="#AC6415" d="M89.426,210.896c-3.763,3.104,3.419,6.004,16.037,6.482l0,0c12.618,0.479,23.571-1.874,24.463-5.254
				c0.958-3.633-9.919-14.997-9.919-14.997S93.041,207.916,89.426,210.896z"/>
		</g>
	</g>
	<g>
		<path fill="#F5F5F5" d="M437.473,195.366c0-7.755-6.217-14.044-13.883-14.044l0,0c-7.667,0-13.882,6.289-13.882,14.044
			c0,8.336,13.878,34.42,13.878,34.42S437.473,202.818,437.473,195.366z"/>
		<g opacity="0.75">
			<path fill="#AC6415" d="M393.013,243.729c-3.765,3.104,3.416,6.006,16.035,6.484l0,0c12.619,0.479,23.574-1.875,24.467-5.255
				c0.959-3.632-9.921-14.997-9.921-14.997S396.625,240.75,393.013,243.729z"/>
		</g>
	</g>
	<g>
		<path fill="#F5F5F5" d="M348.686,181.08c0-7.756-6.216-14.045-13.882-14.045l0,0c-7.667,0-13.882,6.289-13.882,14.045
			c0,8.335,13.878,34.418,13.878,34.418S348.686,188.529,348.686,181.08z"/>
		<g opacity="0.75">
			<path fill="#AC6415" d="M304.226,229.441c-3.765,3.104,3.417,6.006,16.036,6.483l0,0c12.619,0.479,23.573-1.874,24.466-5.255
				c0.958-3.63-9.922-14.996-9.922-14.996S307.84,226.463,304.226,229.441z"/>
		</g>
	</g>
	<g>
		<path fill="#F5F5F5" d="M574.892,167.126c0-7.757-6.214-14.048-13.881-14.048l0,0c-7.666,0-13.881,6.291-13.881,14.048
			c0,8.334,13.878,34.417,13.878,34.417S574.892,174.575,574.892,167.126z"/>
		<g opacity="0.75">
			<path fill="#AC6415" d="M530.436,215.486c-3.763,3.104,3.417,6.007,16.035,6.484l0,0c12.62,0.479,23.57-1.875,24.464-5.256
				c0.958-3.631-9.92-14.997-9.92-14.997S534.05,212.507,530.436,215.486z"/>
		</g>
	</g>
	<g>
		<path fill="#F5F5F5" d="M469.573,120.246c0-7.758-6.217-14.046-13.883-14.046l0,0c-7.665,0-13.882,6.289-13.882,14.046
			c0,8.333,13.88,34.42,13.88,34.42S469.573,127.694,469.573,120.246z"/>
		<g opacity="0.75">
			<path fill="#AC6415" d="M425.111,168.607c-3.763,3.103,3.421,6.005,16.037,6.483l0,0c12.619,0.478,23.574-1.874,24.467-5.253
				c0.958-3.632-9.922-14.998-9.922-14.998S428.726,165.627,425.111,168.607z"/>
		</g>
	</g>
</g>
</svg>
