<?xml version="1.0" encoding="utf-8"?>
<!-- Generator: Adobe Illustrator 15.1.0, SVG Export Plug-In . SVG Version: 6.00 Build 0)  -->
<!DOCTYPE svg PUBLIC "-//W3C//DTD SVG 1.1//EN" "http://www.w3.org/Graphics/SVG/1.1/DTD/svg11.dtd">
<svg version="1.1" id="Layer_1" xmlns="http://www.w3.org/2000/svg" xmlns:xlink="http://www.w3.org/1999/xlink" x="0px" y="0px"
	 width="97.613px" height="94.103px" viewBox="8.821 10.472 97.613 94.103" enable-background="new 8.821 10.472 97.613 94.103"
	 xml:space="preserve">
<g>
	<polygon points="103.145,32.392 57.627,10.472 12.113,32.392 8.821,32.392 8.821,38.823 106.434,38.823 106.434,32.392 	"/>
	<rect x="8.821" y="92.888" width="97.612" height="11.687"/>
	<polygon points="20.481,81.577 17.043,88.006 40.035,88.006 36.957,81.577 36.898,81.577 36.898,50.195 36.957,50.195 
		40.035,43.767 17.043,43.767 20.481,50.195 20.504,50.195 20.504,81.577 	"/>
	<polygon points="49.746,81.577 46.31,88.006 69.297,88.006 66.223,81.577 66.163,81.577 66.163,50.195 66.223,50.195 
		69.297,43.767 46.31,43.767 49.746,50.195 49.771,50.195 49.771,81.577 	"/>
	<polygon points="79.011,81.577 75.575,88.006 98.563,88.006 95.486,81.577 95.431,81.577 95.431,50.195 95.486,50.195 
		98.563,43.767 75.575,43.767 79.011,50.195 79.036,50.195 79.036,81.577 	"/>
</g>
</svg>
