<?xml version="1.0" standalone="no"?>
<!DOCTYPE svg PUBLIC "-//W3C//DTD SVG 1.1//EN" "http://www.w3.org/Graphics/SVG/1.1/DTD/svg11.dtd" >
<svg>
<metadata>
Created by FontForge 20110222 at Fri Aug 16 21:33:33 2013
 By Ubuntu
Copyright (c) 2011 by Vissol Ltd. All rights reserved.
</metadata>
<defs>
<font id="MavenProRegular" horiz-adv-x="647" >
  <font-face 
    font-family="Maven Pro"
    font-weight="400"
    font-stretch="normal"
    units-per-em="1000"
    panose-1="2 0 0 0 0 0 0 0 0 0"
    ascent="800"
    descent="-200"
    x-height="499"
    cap-height="667"
    bbox="-379 -210 1075 965"
    underline-thickness="50"
    underline-position="-50"
    unicode-range="U+0020-FB02"
  />
<missing-glyph horiz-adv-x="500" 
 />
    <glyph glyph-name=".notdef" horiz-adv-x="500" 
 />
    <glyph glyph-name=".null" horiz-adv-x="0" 
 />
    <glyph glyph-name="nonmarkingreturn" horiz-adv-x="333" 
 />
    <glyph glyph-name="NULL" horiz-adv-x="0" 
 />
    <glyph glyph-name="NULL" horiz-adv-x="0" 
 />
    <glyph glyph-name="space" unicode=" " horiz-adv-x="338" 
 />
    <glyph glyph-name="exclam" unicode="!" horiz-adv-x="372" 
d="M148 0v80h80v-80h-80zM152 667h72l-7 -499h-58z" />
    <glyph glyph-name="quotedbl" unicode="&#x22;" horiz-adv-x="381" 
d="M215 676h83l-18 -201h-48zM99 475l-18 201h83l-17 -201h-48z" />
    <glyph glyph-name="numbersign" unicode="#" horiz-adv-x="591" 
d="M415 523h61l-21 -118h72v-60h-82l-28 -159h81v-60h-91l-18 -107h-61l18 107h-132l-19 -107h-61l19 107h-82v60h92l27 159h-91v60h102l20 118h61l-20 -118h132zM356 186l28 159h-133l-27 -159h132z" />
    <glyph glyph-name="dollar" unicode="$" horiz-adv-x="577" 
d="M515 170q0 -76 -51.5 -122t-144.5 -54v-102h-54v100q-101 3 -184 47v78q77 -51 184 -53v254q-37 11 -57 18t-49.5 21.5t-45 31t-27 42.5t-11.5 59q0 70 46.5 122t143.5 62v102h54v-100q81 -4 153 -40v-74q-73 41 -153 42v-229q43 -14 72 -27t60.5 -36t47.5 -58.5
t16 -83.5zM147 490q0 -38 30 -59t88 -39v209q-118 -17 -118 -111zM319 66q124 16 124 104q0 52 -32 81t-92 50v-235z" />
    <glyph glyph-name="percent" unicode="%" horiz-adv-x="868" 
d="M216 664q60 0 102 -40.5t42 -143.5q0 -55 -13 -93t-35 -57t-45.5 -27t-50.5 -8q-28 0 -51 8t-45.5 27t-35.5 57t-13 93q0 54 13 92.5t35.5 57t45.5 26.5t51 8zM216 347q41 0 65 27t24 106t-24 105.5t-65 26.5q-42 0 -66 -26.5t-24 -105.5t24.5 -106t65.5 -27zM676 667
l-419 -667h-64l419 667h64zM654 3q-28 0 -51 8t-45.5 27t-35.5 57t-13 93t13 93t35.5 57t45.5 27t51 8q27 0 50.5 -8t45.5 -27t35 -57t13 -93t-13 -93t-35 -57t-45.5 -27t-50.5 -8zM654 321q-41 0 -65.5 -27t-24.5 -106t24.5 -106t65.5 -27t65 27t24 106t-24 106t-65 27z
" />
    <glyph glyph-name="ampersand" unicode="&#x26;" horiz-adv-x="640" 
d="M495 133l111 -133h-94l-61 74q-79 -82 -188 -82q-54 0 -96.5 19t-65.5 49.5t-35 62t-12 61.5q0 58 27.5 107.5t107.5 93.5q-66 82 -66 138q0 62 44.5 106.5t106.5 44.5q64 0 108 -42.5t44 -104.5q0 -53 -29 -89.5t-94 -74.5l145 -173q28 49 41 100h65q-16 -86 -59 -157z
M276 602q-34 0 -58.5 -23.5t-24.5 -56.5q0 -35 63 -104q64 34 83.5 56.5t19.5 51.5q0 33 -24 54.5t-59 21.5zM266 62q84 0 142 63l-174 209q-38 -20 -62.5 -41.5t-33.5 -42.5t-11 -33t-2 -31q0 -16 6 -34.5t20.5 -40t44 -35.5t70.5 -14z" />
    <glyph glyph-name="quotesingle" unicode="'" horiz-adv-x="249" 
d="M99 475l-18 201h83l-17 -201h-48z" />
    <glyph glyph-name="parenleft" unicode="(" horiz-adv-x="345" 
d="M204 724h76q-14 -23 -29 -55t-36.5 -88t-35.5 -129t-14 -147q0 -73 14 -146.5t35.5 -129t37 -88t28.5 -54.5h-76q-111 199 -111 418q0 220 111 419z" />
    <glyph glyph-name="parenright" unicode=")" horiz-adv-x="345" 
d="M142 724q111 -199 111 -418q0 -220 -111 -419h-77q14 23 29 54.5t37 88t36 129.5t14 147q0 95 -26 193.5t-48 145t-42 79.5h77z" />
    <glyph glyph-name="asterisk" unicode="*" horiz-adv-x="411" 
d="M325 620l-86 -39l86 -38l-27 -48l-75 55l8 -90h-54l10 90l-76 -55l-27 48l87 38l-87 39l27 46l76 -54l-10 91h54l-8 -91l75 54z" />
    <glyph glyph-name="plus" unicode="+" horiz-adv-x="551" 
d="M452 329v-60h-147v-147h-60v147h-148v60h148v148h60v-148h147z" />
    <glyph glyph-name="comma" unicode="," horiz-adv-x="313" 
d="M148 84h82l-84 -196h-72z" />
    <glyph glyph-name="hyphen" unicode="-" horiz-adv-x="464" 
d="M384 333v-70h-305v70h305z" />
    <glyph glyph-name="period" unicode="." horiz-adv-x="328" 
d="M127 0v80h80v-80h-80z" />
    <glyph glyph-name="slash" unicode="/" horiz-adv-x="404" 
d="M353 756h66l-368 -854h-65z" />
    <glyph glyph-name="zero" unicode="0" horiz-adv-x="657" 
d="M328 673q263 0 263 -342t-263 -342t-263 342t263 342zM328 55q30 0 54 5t51 22t45 46t29.5 80.5t11.5 122.5q0 87 -16.5 145.5t-46.5 85t-59.5 36t-68.5 9.5t-68.5 -9.5t-59.5 -36t-46.5 -85t-16.5 -145.5q0 -71 11.5 -122.5t29.5 -80.5t45 -46t51 -22t54 -5z" />
    <glyph glyph-name="one" unicode="1" horiz-adv-x="451" 
d="M226 667h82v-667h-72v592l-133 -88v85z" />
    <glyph glyph-name="two" unicode="2" horiz-adv-x="581" 
d="M196 72h302v-72h-421v63q50 37 102 82.5t109 105t92.5 123t35.5 114.5q0 116 -157 116q-93 0 -175 -58v79q84 51 181 51q114 0 168.5 -55t54.5 -133q0 -54 -27.5 -113.5t-74 -115.5t-92.5 -100.5t-98 -86.5z" />
    <glyph glyph-name="three" unicode="3" horiz-adv-x="583" 
d="M385 361q5 -2 13 -6t28.5 -19t36.5 -33t29 -48.5t13 -64.5q0 -38 -13.5 -72t-41 -63t-77 -46t-114.5 -17q-96 0 -178 42v74q78 -44 169 -44q89 0 136 33t47 95t-48 95t-139 33h-73v69h76q73 0 111.5 27.5t38.5 79.5t-40.5 80t-117.5 28q-74 0 -144 -35v73q72 34 152 34
q114 0 168 -53t54 -127q0 -28 -9 -52t-21.5 -39t-25 -25.5t-21.5 -14.5z" />
    <glyph glyph-name="four" unicode="4" horiz-adv-x="591" 
d="M434 267h95v-67h-95v-200h-72v200h-324v77l315 390h81v-400zM118 267h244v297z" />
    <glyph glyph-name="five" unicode="5" horiz-adv-x="587" 
d="M121 667h343v-71h-281l-19 -198q59 18 130 18q41 0 75 -9t66.5 -31t51.5 -66t19 -106t-19 -106t-51.5 -66t-66.5 -31t-75 -9q-115 0 -191 41v75q73 -46 186 -46q39 0 67.5 9.5t43.5 22.5t23 34t10 37.5t2 38.5q0 45 -12 74.5t-35 43t-45.5 18t-53.5 4.5q-47 0 -86.5 -8
t-54.5 -16l-16 -7l-45 46z" />
    <glyph glyph-name="six" unicode="6" horiz-adv-x="583" 
d="M292 427q105 0 166 -56.5t61 -153.5q0 -41 -12.5 -79.5t-38 -72t-71 -53.5t-105.5 -20q-227 0 -227 313q0 69 12.5 126t32 94.5t47 66t54.5 44t58 25t54 12.5t46 3q53 0 97 -13v-67q-50 12 -89 12q-23 0 -45 -3t-55.5 -16t-59.5 -35.5t-47.5 -66.5t-28.5 -104
q65 44 151 44zM292 60q50 0 84 18.5t48 48t18.5 50.5t4.5 41q0 68 -40 105t-115 37q-98 0 -155 -57q1 -69 13.5 -118t28 -72.5t40.5 -36.5t38.5 -14.5t34.5 -1.5z" />
    <glyph glyph-name="seven" unicode="7" horiz-adv-x="574" 
d="M70 667h455v-67l-289 -600h-80l291 595h-377v72z" />
    <glyph glyph-name="eight" unicode="8" horiz-adv-x="582" 
d="M411 361q5 -2 12.5 -5.5t26.5 -17t34 -30.5t27 -46.5t12 -63.5q0 -38 -12.5 -72.5t-38.5 -65.5t-72.5 -49.5t-107.5 -18.5q-117 0 -174 62t-57 144q0 34 12 63.5t29 47t33.5 29.5t28.5 17l12 5l-10 5t-21.5 15t-27.5 27t-21.5 41t-9.5 55q0 71 50.5 122t155.5 51
t155.5 -50.5t50.5 -122.5q0 -30 -9 -56t-22 -41t-25.5 -26t-21.5 -15zM158 503q0 -54 35.5 -84.5t98.5 -30.5t98.5 30.5t35.5 84.5q0 102 -134 102t-134 -102zM292 60q42 0 73 11.5t47 27.5t25.5 37t11.5 35t2 27q0 60 -41 92t-118 32t-118 -32t-41 -92q0 -13 2 -27
t11.5 -35t25.5 -37t47 -27.5t73 -11.5z" />
    <glyph glyph-name="nine" unicode="9" horiz-adv-x="587" 
d="M285 241q-105 0 -166 56.5t-61 153.5q0 41 12.5 79.5t38 72t71 53.5t105.5 20q227 0 227 -314q0 -95 -23.5 -166t-56.5 -109t-78.5 -60.5t-78.5 -28.5t-67 -6q-51 0 -97 12v68q41 -12 89 -12q23 0 45 3t55.5 16t59 35.5t47.5 66.5t28 104q-59 -44 -150 -44zM285 608
q-50 0 -84 -18.5t-48 -48t-18.5 -50.5t-4.5 -41q0 -68 40 -105t115 -37q101 0 155 57q-1 69 -13.5 118t-28 72.5t-40.5 36.5t-38.5 14.5t-34.5 1.5z" />
    <glyph glyph-name="colon" unicode=":" horiz-adv-x="391" 
d="M158 48v80h80v-80h-80zM158 368v80h80v-80h-80z" />
    <glyph glyph-name="semicolon" unicode=";" horiz-adv-x="417" 
d="M172 368v80h80v-80h-80zM171 84h82l-84 -196h-72z" />
    <glyph glyph-name="less" unicode="&#x3c;" horiz-adv-x="660" 
d="M120 303l412 187v-80l-328 -141l328 -142v-79l-412 187v68z" />
    <glyph glyph-name="equal" unicode="=" horiz-adv-x="638" 
d="M512 256v-70h-385v70h385zM512 410v-69h-385v69h385z" />
    <glyph glyph-name="greater" unicode="&#x3e;" horiz-adv-x="649" 
d="M543 303v-68l-411 -187v79l327 142l-327 141v80z" />
    <glyph glyph-name="question" unicode="?" horiz-adv-x="485" 
d="M191 0v80h80v-80h-80zM219 675q30 0 59 -7t63 -24.5t55 -57t21 -96.5q0 -40 -15.5 -69.5t-37.5 -48l-44 -37t-37.5 -49.5t-15.5 -74v-44h-72v49q0 51 15.5 88.5t37.5 58.5t44 38t37.5 38.5t15.5 49.5q0 113 -131 113q-76 0 -134 -44v78q55 38 139 38z" />
    <glyph glyph-name="at" unicode="@" horiz-adv-x="913" 
d="M508 291q36 0 74 -5q1 7 1 21q0 17 -3 29t-11.5 24.5t-29.5 19t-53 6.5q-70 0 -125 -21l8 58q60 20 117 20q76 0 115.5 -34.5t39.5 -101.5q0 -29 -5.5 -69.5t-8.5 -67t-2 -52.5t15 -38.5t42 -12.5q44 0 82.5 55.5t38.5 152.5q0 71 -27 128t-70.5 91t-93.5 52t-101 18
q-152 0 -270.5 -112.5t-118.5 -270.5q0 -75 25 -132t60 -86.5t79.5 -48t75 -23t55.5 -4.5q124 0 210 49l-9 -45q-84 -40 -209 -40q-42 0 -85 11t-87 36.5t-77.5 62t-55 94t-21.5 126.5q0 119 65 217.5t163 151t200 52.5q40 0 83.5 -10.5t88 -35.5t79.5 -61.5t57 -92.5
t22 -124q0 -108 -44.5 -177t-118.5 -69q-67 0 -93 49q-47 -49 -144 -49q-70 0 -110 30.5t-40 83.5q0 24 8 46t29 46t67.5 38.5t112.5 14.5zM441 90q24 0 43 4t32 8.5t23 15.5t15 18t9 22.5t5.5 22.5t3 25t2.5 23q-27 4 -66 4q-159 0 -159 -87q0 -56 92 -56z" />
    <glyph glyph-name="A" unicode="A" 
d="M359 667l265 -667h-77l-80 208h-288l-80 -208h-78l266 667h72zM206 277h234l-117 305z" />
    <glyph glyph-name="B" unicode="B" horiz-adv-x="621" 
d="M459 355q5 -1 12 -4t26.5 -16t34 -30t26.5 -48t12 -68q0 -189 -242 -189h-241v667h221q222 0 222 -179q0 -27 -7.5 -51t-18 -38t-20.5 -24.5t-18 -14.5zM334 67q76 0 120 26.5t44 99.5q0 31 -10.5 53t-25.5 34.5t-39 19t-44.5 8.5t-47.5 2h-172v-243h175zM458 483
q0 65 -35.5 90t-107.5 25h-156v-220h165q61 0 97.5 21t36.5 84z" />
    <glyph glyph-name="C" unicode="C" horiz-adv-x="628" 
d="M133 334q0 -142 59 -208t186 -66q102 0 195 39v-69q-97 -38 -203 -38q-309 0 -309 342t309 342q107 0 203 -39v-69q-95 40 -195 40q-127 0 -186 -66t-59 -208z" />
    <glyph glyph-name="D" unicode="D" horiz-adv-x="670" 
d="M87 667h209q313 0 313 -333q0 -334 -313 -334h-209v667zM291 68q128 0 187 64t59 202t-59 202t-187 64h-132v-532h132z" />
    <glyph glyph-name="E" unicode="E" horiz-adv-x="566" 
d="M159 599v-230h307v-70h-307v-231h349v-68h-421v667h421v-68h-349z" />
    <glyph glyph-name="F" unicode="F" horiz-adv-x="536" 
d="M87 667h409v-68h-337v-230h296v-70h-296v-299h-72v667z" />
    <glyph glyph-name="G" unicode="G" horiz-adv-x="677" 
d="M370 293v70h233v-319q-108 -52 -233 -52q-309 0 -309 342t309 342q111 0 210 -42v-70q-97 43 -202 43q-127 0 -186 -66t-59 -207q0 -142 59 -207.5t186 -65.5q80 0 153 24v208h-161z" />
    <glyph glyph-name="H" unicode="H" horiz-adv-x="674" 
d="M514 667h72v-667h-72v299h-355v-299h-72v667h72v-299h355v299z" />
    <glyph glyph-name="I" unicode="I" horiz-adv-x="245" 
d="M87 667h72v-667h-72v667z" />
    <glyph glyph-name="J" unicode="J" horiz-adv-x="447" 
d="M280 667h72v-468q0 -61 -17 -104t-46.5 -64t-60.5 -30t-67 -9q-72 0 -132 35v75q57 -40 123 -40q68 0 98 33.5t30 109.5v462z" />
    <glyph glyph-name="K" unicode="K" horiz-adv-x="632" 
d="M279 355l309 -355h-95l-261 304l-73 -80v-224h-72v667h72v-344l309 344h97z" />
    <glyph glyph-name="L" unicode="L" horiz-adv-x="521" 
d="M159 70h341v-70h-413v667h72v-597z" />
    <glyph glyph-name="M" unicode="M" horiz-adv-x="791" 
d="M624 667h78v-667h-72v549l-236 -340l-235 340v-549h-72v667h78l229 -339z" />
    <glyph glyph-name="N" unicode="N" horiz-adv-x="728" 
d="M567 667h72v-667h-81l-399 562v-562h-72v667h82l398 -562v562z" />
    <glyph glyph-name="O" unicode="O" horiz-adv-x="747" 
d="M370 676q310 0 310 -342t-310 -342q-309 0 -309 342t309 342zM370 60q124 0 181 66t57 208t-57 208t-181 66q-123 0 -180 -66t-57 -208t57 -208t180 -66z" />
    <glyph glyph-name="P" unicode="P" horiz-adv-x="596" 
d="M323 667q112 0 171.5 -53t59.5 -153t-59.5 -153t-171.5 -53h-165v-255h-72v667h237zM314 324q53 0 88.5 11.5t51.5 33.5t22 43t6 49t-6 49t-22 43t-51.5 33.5t-88.5 11.5h-156v-274h156z" />
    <glyph glyph-name="Q" unicode="Q" horiz-adv-x="747" 
d="M680 334q0 -318 -270 -341q20 -83 131 -86v-65q-55 0 -95.5 14.5t-62 39.5t-32 48t-14.5 49q-276 18 -276 341q0 342 309 342q310 0 310 -342zM370 60q124 0 181 66t57 208t-57 208t-181 66q-123 0 -180 -66t-57 -208t57 -208t180 -66z" />
    <glyph glyph-name="R" unicode="R" horiz-adv-x="621" 
d="M405 280l183 -280h-85l-174 269h-170v-269h-72v667h245q109 0 167.5 -49.5t58.5 -144.5q0 -43 -13.5 -78t-31 -54.5t-41.5 -34t-39 -19t-28 -7.5zM328 337q50 0 83.5 11.5t48.5 32t20.5 40.5t5.5 47t-5.5 47t-20.5 40.5t-48.5 32t-83.5 11.5h-169v-262h169z" />
    <glyph glyph-name="S" unicode="S" horiz-adv-x="562" 
d="M133 490q0 -34 27.5 -57t68 -34t88.5 -28t88.5 -37t68 -62t27.5 -102q0 -83 -62.5 -130.5t-174.5 -47.5q-109 0 -197 47v78q79 -53 192 -53q170 0 170 106q0 45 -27.5 75.5t-68 44.5t-88.5 29.5t-88.5 31.5t-68 51.5t-27.5 87.5q0 77 56 131.5t174 54.5q85 0 167 -40v-74
q-74 42 -160 42q-80 0 -122.5 -29.5t-42.5 -84.5z" />
    <glyph glyph-name="T" unicode="T" horiz-adv-x="568" 
d="M12 667h543v-70h-235v-597h-72v597h-236v70z" />
    <glyph glyph-name="U" unicode="U" horiz-adv-x="721" 
d="M557 667h72v-393q0 -137 -70 -209.5t-201 -72.5t-201 72.5t-70 209.5v393h72v-397q0 -212 199 -212t199 212v397z" />
    <glyph glyph-name="V" unicode="V" horiz-adv-x="611" 
d="M518 667h77l-256 -667h-71l-256 667h77l215 -564z" />
    <glyph glyph-name="W" unicode="W" horiz-adv-x="951" 
d="M862 667h76l-215 -667h-73l-175 544l-175 -544h-74l-214 667h76l175 -558l176 558h72l175 -558z" />
    <glyph glyph-name="X" unicode="X" horiz-adv-x="589" 
d="M337 337l236 -337h-86l-194 275l-193 -275h-88l237 338l-231 329h86l189 -268l188 268h88z" />
    <glyph glyph-name="Y" unicode="Y" horiz-adv-x="598" 
d="M494 667h87l-248 -361v-306h-72v306l-249 361h87l198 -291z" />
    <glyph glyph-name="Z" unicode="Z" horiz-adv-x="609" 
d="M539 667v-61l-383 -534h383v-72h-475v63l381 532h-371v72h465z" />
    <glyph glyph-name="bracketleft" unicode="[" horiz-adv-x="383" 
d="M191 628v-676h109v-68h-181v812h181v-68h-109z" />
    <glyph glyph-name="backslash" unicode="\" horiz-adv-x="368" 
d="M29 756l367 -854h-65l-368 854h66z" />
    <glyph glyph-name="bracketright" unicode="]" horiz-adv-x="381" 
d="M192 628h-108v68h180v-812h-180v68h108v676z" />
    <glyph glyph-name="asciicircum" unicode="^" horiz-adv-x="560" 
d="M293 690l104 -217h-60l-71 159l-72 -159h-60l104 217h55z" />
    <glyph glyph-name="underscore" unicode="_" horiz-adv-x="546" 
d="M0 -24h546v-44h-546v44z" />
    <glyph glyph-name="grave" unicode="`" horiz-adv-x="219" 
d="M119 679l57 -115h-47l-83 115h73z" />
    <glyph glyph-name="a" unicode="a" horiz-adv-x="534" 
d="M255 508q105 0 160 -53t55 -155v-150q0 -48 -22 -82t-57 -49t-65.5 -21t-60.5 -6q-23 0 -47 3t-54.5 13.5t-53 27t-38.5 47t-16 70.5q0 34 12.5 61t30.5 44t46 29t49.5 17.5t51 8.5t42 3.5t29.5 0.5l80 -5q0 67 -37 95.5t-109 28.5q-81 0 -146 -24v70q74 26 150 26z
M398 150v96q-33 6 -89 6q-181 0 -181 -99q0 -94 137 -94q133 0 133 91z" />
    <glyph glyph-name="b" unicode="b" horiz-adv-x="570" 
d="M278 508q34 0 64 -6t61 -23t53.5 -44t36.5 -73t14 -106q0 -66 -15.5 -115.5t-38 -77t-54 -44.5t-58 -22t-54.5 -5q-54 0 -94 13.5t-60 31t-32.5 42t-15 40.5t-2.5 31v540h72v-202q60 20 123 20zM287 58q28 0 50.5 6.5t46.5 25t37.5 61t13.5 105.5q0 97 -37 141t-120 44
q-62 0 -123 -25v-270q0 -88 132 -88z" />
    <glyph glyph-name="c" unicode="c" horiz-adv-x="472" 
d="M130 250q0 -100 40.5 -144.5t129.5 -44.5q75 0 140 28v-70q-70 -27 -148 -27q-35 0 -65.5 6t-62.5 23.5t-54.5 45t-37 74.5t-14.5 109q0 76 21 129.5t57 80t73.5 37.5t82.5 11q75 0 148 -28v-69q-68 28 -140 28q-89 0 -129.5 -45t-40.5 -144z" />
    <glyph glyph-name="d" unicode="d" horiz-adv-x="562" 
d="M63 256q0 74 20 126t55.5 78t72 36.5t80.5 10.5q66 0 124 -19v201h72v-540q0 -20 -6 -41t-24.5 -50t-63.5 -47.5t-111 -18.5q-28 0 -54.5 5t-57.5 22t-53.5 44.5t-38 77t-15.5 115.5zM135 256q0 -63 13.5 -105.5t37.5 -61t46 -25t50 -6.5q133 0 133 88v270
q-61 25 -124 25q-82 0 -119 -44t-37 -141z" />
    <glyph glyph-name="e" unicode="e" horiz-adv-x="555" 
d="M282 508q46 0 83.5 -14.5t59.5 -34t38.5 -51t23.5 -53.5t11 -53t4 -38.5v-21.5l-2 -35h-364q7 -75 46 -109t116 -34q109 0 171 37v-74q-73 -35 -178 -35q-44 0 -80.5 10.5t-72 36.5t-55.5 78t-20 126v5q-1 260 219 260zM136 271h292q0 17 -4 38t-16.5 54t-45 55t-80.5 22
q-74 0 -107.5 -38.5t-38.5 -130.5z" />
    <glyph glyph-name="f" unicode="f" horiz-adv-x="330" 
d="M299 643q-24 0 -36.5 -2t-30 -12t-26 -35.5t-8.5 -66.5v-28h137v-66h-137v-433h-72v433h-86v66h86v27q0 52 13.5 89t30.5 54.5t43.5 27.5t40.5 11t33 1q27 0 48 -6v-64q-20 4 -36 4z" />
    <glyph glyph-name="g" unicode="g" horiz-adv-x="538" 
d="M272 508q64 0 107.5 -18t61 -46t23.5 -48.5t6 -40.5v-376q0 -33 -9.5 -61t-31.5 -54.5t-67 -41.5t-109 -15q-70 0 -142 18v68q64 -18 134 -18q48 0 80.5 8.5t47 24.5t20 31.5t5.5 37.5v50q-56 -18 -117 -18q-33 0 -62 5.5t-59 22t-51.5 43t-35 70.5t-13.5 102
q0 78 21 132.5t56.5 79.5t67.5 34.5t67 9.5zM398 99v259q0 84 -126 84q-27 0 -48 -6.5t-44 -24.5t-35.5 -58.5t-12.5 -100.5q0 -56 12 -92.5t35 -54t46.5 -23.5t55.5 -6q60 0 117 23z" />
    <glyph glyph-name="h" unicode="h" horiz-adv-x="577" 
d="M317 508q92 0 142 -55.5t50 -156.5v-296h-72v296q0 140 -128 140q-70 0 -143 -30v-406h-72v689h72v-213q76 32 151 32z" />
    <glyph glyph-name="i" unicode="i" horiz-adv-x="264" 
d="M170 0v499h-72v-499h72zM174 667v-79h-80v79h80z" />
    <glyph glyph-name="j" unicode="j" horiz-adv-x="251" 
d="M101 667h80v-79h-80v79zM105 499h72v-528q0 -164 -174 -164v67q62 1 82 24.5t20 76.5v524z" />
    <glyph glyph-name="k" unicode="k" horiz-adv-x="549" 
d="M273 270l240 -270h-96l-191 219l-62 -67v-152h-72v689h72v-435l224 245h98z" />
    <glyph glyph-name="l" unicode="l" horiz-adv-x="270" 
d="M173 0h-72v689h72v-689z" />
    <glyph glyph-name="m" unicode="m" horiz-adv-x="891" 
d="M611 508q91 0 141 -48t50 -135v-325h-72v325q0 21 -4 37.5t-16 35t-38.5 28.5t-65.5 10q-63 0 -138 -25q16 -36 16 -86v-325h-72v325q0 22 -4 38.5t-16 34.5t-39.5 28t-67.5 10q-61 0 -119 -18v-418h-72v460q96 48 200 48q82 0 132 -41q96 41 185 41z" />
    <glyph glyph-name="n" unicode="n" horiz-adv-x="581" 
d="M293 508q94 0 146 -48t52 -135v-325h-72v325q0 21 -4.5 37.5t-17 35t-41 28.5t-71.5 10q-63 0 -131 -20v-416h-72v459q98 49 211 49z" />
    <glyph glyph-name="o" unicode="o" horiz-adv-x="564" 
d="M283 508q45 0 83 -11t74 -37.5t57 -80t21 -129.5t-21 -129.5t-57 -80t-74 -37.5t-83 -11t-82.5 11t-73.5 37.5t-57 80t-21 129.5t21 129.5t57 80t73.5 37.5t82.5 11zM283 58q85 0 124 45.5t39 146.5t-39 146.5t-124 45.5t-123.5 -46t-38.5 -146t38.5 -146t123.5 -46z" />
    <glyph glyph-name="p" unicode="p" horiz-adv-x="566" 
d="M287 508q28 0 54.5 -5t57.5 -22t53.5 -45t38 -77.5t15.5 -115.5q0 -74 -20 -126t-55.5 -78t-72 -36.5t-80.5 -10.5q-61 0 -124 19v-196h-72v535q0 20 6 41t24.5 50.5t63.5 48t111 18.5zM278 59q82 0 119 43.5t37 141.5q0 63 -13.5 105t-37.5 61t-46 25.5t-50 6.5
q-133 0 -133 -89v-269q57 -25 124 -25z" />
    <glyph glyph-name="q" unicode="q" horiz-adv-x="562" 
d="M56 243q0 66 15.5 115.5t38 77.5t53.5 45t57.5 22t54.5 5q54 0 94 -13.5t60 -31t32.5 -42t15 -40.5t2.5 -31v-535h-72v196q-57 -19 -123 -19q-44 0 -80.5 10.5t-72 36.5t-55.5 78t-20 126zM128 244q0 -98 37 -141.5t119 -43.5q66 0 123 25v269q0 89 -132 89
q-28 0 -50 -6.5t-46 -25.5t-37.5 -61t-13.5 -105z" />
    <glyph glyph-name="r" unicode="r" horiz-adv-x="343" 
d="M323 438q-82 -2 -170 -26v-412h-72v459q113 48 242 48v-69z" />
    <glyph glyph-name="s" unicode="s" horiz-adv-x="426" 
d="M121 363q0 -26 27.5 -42t67 -26.5t79 -25t67 -49.5t27.5 -89q0 -65 -48.5 -102t-134.5 -37q-83 0 -151 38v76q72 -44 148 -44q114 0 114 69q0 37 -27.5 58t-67 31.5t-79 23t-67 42t-27.5 77.5q0 60 43.5 102.5t133.5 42.5q64 0 128 -31v-72q-57 34 -120 34
q-113 0 -113 -76z" />
    <glyph glyph-name="t" unicode="t" horiz-adv-x="345" 
d="M183 433v-304q0 -38 16 -53.5t56 -15.5q31 0 57 12v-68q-33 -12 -66 -12q-20 0 -39 4.5t-43 17.5t-38.5 43.5t-14.5 75.5v300h-87v66h87v141h72v-141h129v-66h-129z" />
    <glyph glyph-name="u" unicode="u" horiz-adv-x="587" 
d="M428 499h72v-289q0 -104 -54.5 -161t-154.5 -57t-154.5 57t-54.5 161v289h72v-293q0 -76 33 -111.5t104 -35.5q70 0 103.5 35.5t33.5 111.5v293z" />
    <glyph glyph-name="v" unicode="v" horiz-adv-x="519" 
d="M411 499h77l-192 -499h-73l-191 499h77l151 -409z" />
    <glyph glyph-name="w" unicode="w" horiz-adv-x="783" 
d="M668 499h76l-166 -499h-73l-114 373l-114 -373h-73l-166 499h76l127 -386l115 386h69l116 -386z" />
    <glyph glyph-name="x" unicode="x" horiz-adv-x="504" 
d="M293 251l177 -251h-86l-134 190l-134 -190h-88l178 253l-173 246h85l131 -185l131 185h88l-174 -246z" />
    <glyph glyph-name="y" unicode="y" horiz-adv-x="502" 
d="M394 499h77l-204 -548q-53 -144 -157 -144q-24 0 -47 9v66q20 -9 43 -9q19 0 37.5 14t30.5 33.5t22 39.5t14 34l5 14l-184 491h77l142 -395z" />
    <glyph glyph-name="z" unicode="z" horiz-adv-x="464" 
d="M410 499v-63l-274 -367h274v-69h-365v65l272 365h-265v69h358z" />
    <glyph glyph-name="braceleft" unicode="{" horiz-adv-x="373" 
d="M226 35q0 -43 19 -59.5t59 -18.5v-67q-73 0 -111.5 38.5t-38.5 111.5v156q0 54 -63 73v49q63 16 63 72v156q0 73 38.5 112t111.5 39v-68q-40 -2 -59 -18t-19 -60v-161q0 -58 -58 -97q58 -39 58 -97v-161z" />
    <glyph glyph-name="bar" unicode="|" horiz-adv-x="443" 
d="M257 -99h-72v764h72v-764z" />
    <glyph glyph-name="braceright" unicode="}" horiz-adv-x="368" 
d="M154 35v161q0 57 59 97q-59 40 -59 97v161q0 44 -18.5 60t-59.5 18v68q73 0 111.5 -39t38.5 -112v-156q0 -56 63 -72v-49q-63 -19 -63 -73v-156q0 -73 -38.5 -111.5t-111.5 -38.5v67q40 2 59 18.5t19 59.5z" />
    <glyph glyph-name="asciitilde" unicode="~" horiz-adv-x="500" 
d="M402 312v-60q-28 -35 -60 -38.5t-62 12.5t-60 31.5t-62 12t-60 -38.5v61q28 35 60 38.5t62 -12.5l60 -32t62 -12.5t60 38.5z" />
    <glyph glyph-name="exclamdown" unicode="&#xa1;" horiz-adv-x="362" 
d="M228 499v-79h-80v79h80zM224 -168h-72l7 499h58z" />
    <glyph glyph-name="cent" unicode="&#xa2;" horiz-adv-x="477" 
d="M438 495q-61 25 -130 27v-377q70 2 130 28v-70q-61 -24 -130 -27v-76h-50v77q-201 20 -201 257q0 131 57 189.5t144 66.5v77h50v-76q64 -1 130 -27v-69zM129 334q0 -87 31 -132t98 -54v372q-67 -10 -98 -54.5t-31 -131.5z" />
    <glyph glyph-name="sterling" unicode="&#xa3;" horiz-adv-x="555" 
d="M355 607q-146 0 -146 -114v-146h201v-66h-201v-203q25 -3 71 -12.5t75.5 -14.5t70 -3.5t74.5 14.5v-73q-49 -19 -112 -14.5t-112.5 18.5t-112 15.5t-112.5 -23.5v73q39 19 86 22v201h-86v66h86v143q0 77 51.5 131.5t160.5 54.5q79 0 151 -39v-73q-68 43 -145 43z" />
    <glyph glyph-name="yen" unicode="&#xa5;" horiz-adv-x="602" 
d="M588 667l-217 -315h125v-60h-157v-94h157v-60h-157v-138h-72v138h-157v60h157v94h-157v60h125l-217 315h88l197 -287l197 287h88z" />
    <glyph glyph-name="section" unicode="&#xa7;" horiz-adv-x="543" 
d="M492 307q0 -37 -25 -63.5t-61 -38.5q35 -29 35 -77q0 -64 -54.5 -100t-151.5 -36q-99 0 -171 36v74q66 -41 166 -41q139 0 139 67q0 30 -23.5 50t-106.5 39q-90 21 -135.5 49.5t-45.5 88.5q0 80 91 109q-40 25 -40 70q0 58 49 100t151 42q76 0 145 -30v-71
q-64 34 -139 34q-134 0 -134 -75q0 -12 4 -19.5t33.5 -21.5t87.5 -27q41 -9 68.5 -19t57 -27.5t45 -46t15.5 -66.5zM363 251q57 17 57 56q0 30 -24 50t-106 39q-48 11 -86 24q-74 -14 -74 -65q0 -12 4 -19.5t34 -21.5t88 -27q66 -14 107 -36z" />
    <glyph glyph-name="dieresis" unicode="&#xa8;" horiz-adv-x="385" 
d="M79 564v79h79v-79h-79zM227 564v79h79v-79h-79z" />
    <glyph glyph-name="copyright" unicode="&#xa9;" horiz-adv-x="778" 
d="M390 -8q-141 0 -241.5 100t-100.5 241q0 142 100.5 242t241.5 100q142 0 242 -100t100 -242q0 -141 -100 -241t-242 -100zM390 640q-126 0 -216 -90t-90 -217q0 -126 90 -216t216 -90q127 0 216.5 90t89.5 216q0 127 -89.5 217t-216.5 90zM261 333q0 -83 34.5 -121.5
t108.5 -38.5q59 0 114 23v-40q-56 -22 -119 -22q-180 0 -180 199q0 200 180 200q63 0 119 -22v-40q-53 22 -114 22q-74 0 -108.5 -38.5t-34.5 -121.5z" />
    <glyph glyph-name="ordfeminine" unicode="&#xaa;" horiz-adv-x="394" 
d="M186 675q120 0 120 -115v-84q0 -35 -22.5 -56t-45 -26t-46.5 -5t-47 5t-46 26.5t-23 57.5q0 91 145 91l45 -3q0 70 -82 70q-45 0 -80 -14v39q35 14 82 14zM266 477v53q-18 3 -49 3q-101 0 -101 -54q0 -53 76 -53q74 0 74 51z" />
    <glyph glyph-name="guillemotleft" unicode="&#xab;" horiz-adv-x="553" 
d="M297 445l-178 -190l178 -191h-97l-169 191l169 190h97zM487 445l-178 -190l178 -191h-97l-169 191l169 190h97z" />
    <glyph glyph-name="logicalnot" unicode="&#xac;" horiz-adv-x="622" 
d="M97 324h428v-166h-66v100h-362v66z" />
    <glyph glyph-name="registered" unicode="&#xae;" horiz-adv-x="778" 
d="M452 302l107 -164h-50l-101 158h-100v-158h-42v390h143q64 0 98.5 -28.5t34.5 -84.5q0 -31 -11 -54.5t-28.5 -35t-28.5 -16t-22 -7.5zM407 336q55 0 73.5 21t18.5 55t-18.5 55t-73.5 21h-99v-152h99zM390 -8q-141 0 -241.5 100t-100.5 241q0 142 100.5 242t241.5 100
q142 0 242 -100t100 -242q0 -141 -100 -241t-242 -100zM390 640q-126 0 -216 -90t-90 -217q0 -126 90 -216t216 -90q127 0 216.5 90t89.5 216q0 127 -89.5 217t-216.5 90z" />
    <glyph glyph-name="macron" unicode="&#xaf;" horiz-adv-x="403" 
d="M86 576v53h234v-53h-234z" />
    <glyph glyph-name="degree" unicode="&#xb0;" horiz-adv-x="387" 
d="M191 669q53 0 81 -28.5t28 -82.5q0 -111 -109 -111t-109 111t109 111zM191 483q38 0 55.5 17.5t17.5 57.5q0 39 -17.5 57t-55.5 18q-39 0 -56 -18t-17 -57q0 -40 17 -57.5t56 -17.5z" />
    <glyph glyph-name="plusminus" unicode="&#xb1;" horiz-adv-x="585" 
d="M321 352h147v-60h-147v-148h-60v148h-148v60h148v147h60v-147zM113 33v60h355v-60h-355z" />
    <glyph glyph-name="two.superior" unicode="&#xb2;" horiz-adv-x="328" 
d="M117 502h162v-39h-226v34q65 48 123.5 112.5t58.5 116.5q0 61 -84 61q-52 0 -94 -30v42q44 27 97 27q61 0 90.5 -29.5t29.5 -70.5q0 -96 -157 -224z" />
    <glyph glyph-name="three.superior" unicode="&#xb3;" horiz-adv-x="323" 
d="M217 657q3 -1 7 -3t15 -10t19.5 -18t15.5 -26.5t7 -34.5q0 -44 -32.5 -75t-99.5 -31q-50 0 -96 22v40q44 -24 91 -24q99 0 99 69t-101 69h-39v37h41q80 0 80 58q0 57 -85 57q-43 0 -77 -18v39q40 18 82 18q61 0 90 -28.5t29 -67.5q0 -24 -11.5 -42t-23.5 -24z" />
    <glyph glyph-name="acute" unicode="&#xb4;" horiz-adv-x="236" 
d="M117 679h74l-83 -115h-48z" />
    <glyph glyph-name="mu" unicode="&#xb5;" horiz-adv-x="609" 
d="M435 499h72v-458q-94 -49 -210 -49q-34 0 -65.5 10t-45.5 20l-15 10v-242h-72v709h72v-324q0 -22 4.5 -38.5t17 -34.5t40.5 -28t71 -10q66 0 131 19v416z" />
    <glyph glyph-name="paragraph" unicode="&#xb6;" horiz-adv-x="445" 
d="M268 667h99v-667h-66v256h-33q-112 0 -171 53t-59 153q0 99 59 152t171 53z" />
    <glyph glyph-name="periodcentered" unicode="&#xb7;" horiz-adv-x="311" 
d="M195 312v-80h-79v80h79z" />
    <glyph glyph-name="cedilla" unicode="&#xb8;" horiz-adv-x="253" 
d="M195 -5l-63 -115h-76l82 115h57z" />
    <glyph glyph-name="one.superior" unicode="&#xb9;" horiz-adv-x="240" 
d="M119 822h44v-359h-38v318l-72 -47v46z" />
    <glyph glyph-name="ordmasculine" unicode="&#xba;" horiz-adv-x="417" 
d="M206 676q130 0 130 -144q0 -143 -130 -143q-55 0 -92.5 31.5t-37.5 111.5q0 42 11.5 72t31.5 45t41 21t46 6zM206 426q48 0 69 25t21 81t-21 81.5t-69 25.5q-47 0 -68.5 -25.5t-21.5 -81.5t21.5 -81t68.5 -25z" />
    <glyph glyph-name="guillemotright" unicode="&#xbb;" horiz-adv-x="553" 
d="M257 445h96l170 -190l-170 -191h-96l177 191zM67 445h96l170 -190l-170 -191h-96l177 191z" />
    <glyph glyph-name="onequarter" unicode="&#xbc;" horiz-adv-x="700" 
d="M598 144h51v-36h-51v-108h-39v108h-174v41l169 209h44v-214zM428 144h131v159zM117 674h45v-358h-39v318l-71 -48v46zM509 685h47l-437 -707h-47z" />
    <glyph glyph-name="onehalf" unicode="&#xbd;" horiz-adv-x="713" 
d="M117 674h45v-358h-39v318l-71 -48v46zM488 39h162v-39h-225v34q65 48 123 112t58 116q0 62 -84 62q-51 0 -94 -31v43q48 27 97 27q62 0 91 -29.5t29 -71.5q0 -95 -157 -223zM509 685h47l-437 -707h-47z" />
    <glyph glyph-name="threequarters" unicode="&#xbe;" horiz-adv-x="808" 
d="M230 509q3 -1 7 -3t15 -10t19.5 -17.5t15.5 -26t7 -34.5q0 -44 -32 -75.5t-100 -31.5q-48 0 -96 23v39q46 -23 92 -23q98 0 98 69q0 33 -26 51t-75 18h-39v36h41q80 0 80 58t-85 58q-41 0 -77 -19v40q40 18 82 18q61 0 90 -28.5t29 -68.5q0 -24 -11.5 -42t-22.5 -24z
M706 144h51v-36h-51v-108h-39v108h-174v41l169 209h44v-214zM536 144h131v159zM617 685h47l-437 -707h-47z" />
    <glyph glyph-name="questiondown" unicode="&#xbf;" horiz-adv-x="483" 
d="M298 499v-79h-80v79h80zM270 -176q-23 0 -45.5 3.5t-51.5 15.5t-50 31.5t-36 54.5t-15 81q0 40 15.5 69t37.5 47.5l44 37t37.5 49.5t15.5 74v45h72v-50q0 -51 -15.5 -88.5t-37.5 -58t-44 -38t-37.5 -39t-15.5 -48.5q0 -114 132 -114q69 0 134 44v-78q-56 -38 -140 -38z
" />
    <glyph glyph-name="Agrave" unicode="&#xc0;" 
d="M359 667l265 -667h-77l-80 208h-288l-80 -208h-78l266 667h72zM206 277h234l-117 305zM288 839l57 -115h-48l-83 115h74z" />
    <glyph glyph-name="Aacute" unicode="&#xc1;" 
d="M21 0l266 667h72l265 -667h-77l-80 208h-288l-80 -208h-78zM206 277h234l-117 305zM357 839h74l-83 -115h-48z" />
    <glyph glyph-name="Acircumflex" unicode="&#xc2;" 
d="M359 667l265 -667h-77l-80 208h-288l-80 -208h-78l266 667h72zM206 277h234l-117 305zM344 845l80 -121h-56l-45 71l-45 -71h-56l80 121h42z" />
    <glyph glyph-name="Atilde" unicode="&#xc3;" 
d="M463 745q-26 -32 -56 -35.5t-57.5 11t-54.5 29t-57 11t-56 -35.5v57q26 32 56 35t57 -11.5t54.5 -29t57.5 -11.5t56 35v-55zM359 667l265 -667h-77l-80 208h-288l-80 -208h-78l266 667h72zM206 277h234l-117 305z" />
    <glyph glyph-name="Adieresis" unicode="&#xc4;" 
d="M209 724v80h80v-80h-80zM357 724v80h80v-80h-80zM359 667l265 -667h-77l-80 208h-288l-80 -208h-78l266 667h72zM206 277h234l-117 305z" />
    <glyph glyph-name="Aring" unicode="&#xc5;" 
d="M359 667l265 -667h-77l-80 208h-288l-80 -208h-78l266 667h72zM206 277h234l-117 305zM323 859q39 0 60 -21t21 -61t-21 -61t-60 -21t-60 21t-21 61t21 61t60 21zM323 729q24 0 34.5 11t10.5 37t-10.5 37.5t-34.5 11.5q-25 0 -35 -11.5t-10 -37.5t10 -37t35 -11z" />
    <glyph glyph-name="AE" unicode="&#xc6;" horiz-adv-x="947" 
d="M550 598v-230h296v-70h-296v-229h337v-69h-409v209h-247l-123 -209h-83l396 667h466v-69h-337zM478 281v314h-22l-183 -314h205z" />
    <glyph glyph-name="Ccedilla" unicode="&#xc7;" horiz-adv-x="628" 
d="M378 609q-127 0 -186 -65.5t-59 -207.5t59 -208t186 -66q102 0 195 39v-69q-84 -33 -174 -38l-61 -113h-76l80 113q-281 17 -281 341q0 342 309 342q106 0 203 -38v-69q-92 39 -195 39z" />
    <glyph glyph-name="Egrave" unicode="&#xc8;" horiz-adv-x="566" 
d="M291 839l57 -115h-48l-83 115h74zM159 599v-230h307v-70h-307v-231h349v-68h-421v667h421v-68h-349z" />
    <glyph glyph-name="Eacute" unicode="&#xc9;" horiz-adv-x="566" 
d="M332 839h74l-83 -115h-47zM159 599v-230h307v-70h-307v-231h349v-68h-421v667h421v-68h-349z" />
    <glyph glyph-name="Ecircumflex" unicode="&#xca;" horiz-adv-x="566" 
d="M323 845l81 -121h-56l-45 71l-46 -71h-56l81 121h41zM159 599v-230h307v-70h-307v-231h349v-68h-421v667h421v-68h-349z" />
    <glyph glyph-name="Edieresis" unicode="&#xcb;" horiz-adv-x="566" 
d="M193 724v80h79v-80h-79zM341 724v80h79v-80h-79zM159 599v-230h307v-70h-307v-231h349v-68h-421v667h421v-68h-349z" />
    <glyph glyph-name="Igrave" unicode="&#xcc;" horiz-adv-x="245" 
d="M87 0v667h72v-667h-72zM90 839l57 -115h-48l-83 115h74z" />
    <glyph glyph-name="Iacute" unicode="&#xcd;" horiz-adv-x="245" 
d="M159 0v667h-72v-667h72zM156 839h74l-83 -115h-48z" />
    <glyph glyph-name="Icircumflex" unicode="&#xce;" horiz-adv-x="245" 
d="M159 0v667h-72v-667h72zM144 845l80 -121h-56l-45 71l-45 -71h-56l80 121h42z" />
    <glyph glyph-name="Idieresis" unicode="&#xcf;" horiz-adv-x="245" 
d="M159 0v667h-72v-667h72zM9 724v80h80v-80h-80zM157 724v80h80v-80h-80z" />
    <glyph glyph-name="Eth" unicode="&#xd0;" horiz-adv-x="717" 
d="M340 667q313 0 313 -333q0 -334 -313 -334h-209v303h-78v60h78v304h209zM335 68q128 0 187 64t59 202t-59 202t-187 64h-132v-237h171v-60h-171v-235h132z" />
    <glyph glyph-name="Ntilde" unicode="&#xd1;" horiz-adv-x="728" 
d="M567 667h72v-667h-81l-399 562v-562h-72v667h82l398 -562v562zM504 745q-26 -32 -56 -35.5t-57.5 11l-55 29t-57.5 11t-56 -35.5v57q26 32 56 35t57.5 -11.5l55 -29t57.5 -11.5t56 35v-55z" />
    <glyph glyph-name="Ograve" unicode="&#xd2;" horiz-adv-x="747" 
d="M61 334q0 342 309 342t309 -342t-309 -342t-309 342zM133 334q0 -142 57 -208t180 -66t180 66t57 208t-57 208t-180 66t-180 -66t-57 -208zM348 839l57 -115h-47l-83 115h73z" />
    <glyph glyph-name="Oacute" unicode="&#xd3;" horiz-adv-x="747" 
d="M370 676q309 0 309 -342t-309 -342t-309 342t309 342zM370 60q123 0 180 66t57 208t-57 208t-180 66t-180 -66t-57 -208t57 -208t180 -66zM391 839h74l-83 -115h-47z" />
    <glyph glyph-name="Ocircumflex" unicode="&#xd4;" horiz-adv-x="747" 
d="M370 676q309 0 309 -342t-309 -342t-309 342t309 342zM370 60q123 0 180 66t57 208t-57 208t-180 66t-180 -66t-57 -208t57 -208t180 -66zM391 845l80 -121h-56l-45 71l-45 -71h-56l80 121h42z" />
    <glyph glyph-name="Otilde" unicode="&#xd5;" horiz-adv-x="747" 
d="M370 676q310 0 310 -342t-310 -342q-309 0 -309 342t309 342zM370 60q124 0 181 66t57 208t-57 208t-181 66q-123 0 -180 -66t-57 -208t57 -208t180 -66zM511 745q-26 -32 -56 -35.5t-57.5 11l-55 29t-57 11t-55.5 -35.5v57q26 32 55.5 35t57 -11.5l55 -29t57.5 -11.5
t56 35v-55z" />
    <glyph glyph-name="Odieresis" unicode="&#xd6;" horiz-adv-x="747" 
d="M256 724v80h80v-80h-80zM404 724v80h80v-80h-80zM370 676q309 0 309 -342t-309 -342t-309 342t309 342zM370 60q123 0 180 66t57 208t-57 208t-180 66t-180 -66t-57 -208t57 -208t180 -66z" />
    <glyph glyph-name="multiply" unicode="&#xd7;" horiz-adv-x="481" 
d="M344 78l-102 135l-101 -135h-64l133 178l-133 178h64l101 -135l102 135h64l-133 -178l133 -178h-64z" />
    <glyph glyph-name="Oslash" unicode="&#xd8;" horiz-adv-x="747" 
d="M691 667l-78 -92q67 -85 67 -241q0 -343 -310 -343q-124 0 -200 58l-42 -49h-78l77 92q-66 84 -66 242q0 342 309 342q125 0 201 -58l42 49h78zM133 334q0 -123 41 -187l352 418q-56 43 -156 43q-123 0 -180 -66t-57 -208zM608 334q0 119 -41 186l-352 -418
q56 -43 155 -43q124 0 181 66t57 209z" />
    <glyph glyph-name="Ugrave" unicode="&#xd9;" horiz-adv-x="721" 
d="M328 839l57 -115h-47l-84 115h74zM557 667h72v-393q0 -137 -70 -209.5t-201 -72.5t-201 72.5t-70 209.5v393h72v-397q0 -212 199 -212t199 212v397z" />
    <glyph glyph-name="Uacute" unicode="&#xda;" horiz-adv-x="721" 
d="M388 839h74l-83 -115h-48zM557 667h72v-393q0 -137 -70 -209.5t-201 -72.5t-201 72.5t-70 209.5v393h72v-397q0 -212 199 -212t199 212v397z" />
    <glyph glyph-name="Ucircumflex" unicode="&#xdb;" horiz-adv-x="721" 
d="M379 845l80 -121h-56l-45 71l-45 -71h-56l80 121h42zM557 667h72v-393q0 -137 -70 -209.5t-201 -72.5t-201 72.5t-70 209.5v393h72v-397q0 -212 199 -212t199 212v397z" />
    <glyph glyph-name="Udieresis" unicode="&#xdc;" horiz-adv-x="721" 
d="M244 724v80h80v-80h-80zM392 724v80h80v-80h-80zM557 667h72v-393q0 -137 -70 -209.5t-201 -72.5t-201 72.5t-70 209.5v393h72v-397q0 -212 199 -212t199 212v397z" />
    <glyph glyph-name="Yacute" unicode="&#xdd;" horiz-adv-x="598" 
d="M320 839h73l-83 -115h-47zM494 667h87l-248 -361v-306h-72v306l-249 361h87l198 -291z" />
    <glyph glyph-name="Thorn" unicode="&#xde;" horiz-adv-x="570" 
d="M288 566q111 0 170.5 -53.5t59.5 -153.5t-59.5 -153t-170.5 -53h-130v-153h-72v667h72v-101h130zM278 222q53 0 88.5 11.5t51.5 33.5t22 43t6 49t-6 49t-22 43t-51.5 33.5t-88.5 11.5h-120v-274h120z" />
    <glyph glyph-name="germandbls" unicode="&#xdf;" horiz-adv-x="613" 
d="M434 344q5 -2 13.5 -6t30 -19t37.5 -32.5t29.5 -46t13.5 -60.5q0 -83 -73.5 -131.5t-187.5 -48.5v65q79 0 134 30t55 92q0 63 -59 92t-130 29v63q71 0 113.5 30.5t42.5 88.5q0 60 -41.5 89.5t-108.5 29.5q-69 0 -106 -42.5t-37 -146.5v-420h-72v424q0 55 11.5 99t35.5 79
t66.5 54.5t101.5 19.5q112 0 167 -55t55 -131q0 -25 -9.5 -49t-22.5 -41t-26.5 -30t-22.5 -20z" />
    <glyph glyph-name="agrave" unicode="&#xe0;" horiz-adv-x="534" 
d="M255 508q105 0 160 -53t55 -154v-151q0 -48 -22 -82t-57 -49t-65.5 -21t-60.5 -6q-23 0 -47 3t-54.5 13.5t-53 27t-38.5 47t-16 70.5q0 34 12.5 61t30.5 44t46 29t49.5 17.5t51 8.5t42 3.5t29.5 0.5l80 -5q0 67 -37 95.5t-109 28.5q-81 0 -146 -24v70q74 26 150 26z
M398 150v96q-33 6 -89 6q-181 0 -181 -99q0 -94 137 -94q133 0 133 91zM247 679l57 -115h-47l-83 115h73z" />
    <glyph glyph-name="aacute" unicode="&#xe1;" horiz-adv-x="534" 
d="M255 508q105 0 160 -53t55 -154v-151q0 -48 -22 -82t-57 -49t-65.5 -21t-60.5 -6q-23 0 -47 3t-54.5 13.5t-53 27t-38.5 47t-16 70.5q0 34 12.5 61t30.5 44t46 29t49.5 17.5t51 8.5t42 3.5t29.5 0.5l80 -5q0 67 -37 95.5t-109 28.5q-81 0 -146 -24v70q74 26 150 26z
M398 150v96q-33 6 -89 6q-181 0 -181 -99q0 -94 137 -94q133 0 133 91zM285 679h74l-83 -115h-48z" />
    <glyph glyph-name="acircumflex" unicode="&#xe2;" horiz-adv-x="534" 
d="M255 508q105 0 160 -53t55 -154v-151q0 -48 -22 -82t-57 -49t-65.5 -21t-60.5 -6q-23 0 -47 3t-54.5 13.5t-53 27t-38.5 47t-16 70.5q0 34 12.5 61t30.5 44t46 29t49.5 17.5t51 8.5t42 3.5t29.5 0.5l80 -5q0 67 -37 95.5t-109 28.5q-81 0 -146 -24v70q74 26 150 26z
M398 150v96q-33 6 -89 6q-181 0 -181 -99q0 -94 137 -94q133 0 133 91zM299 684l80 -120h-56l-45 70l-45 -70h-56l80 120h42z" />
    <glyph glyph-name="atilde" unicode="&#xe3;" horiz-adv-x="534" 
d="M255 508q105 0 160 -53t55 -154v-151q0 -48 -22 -82t-57 -49t-65.5 -21t-60.5 -6q-23 0 -47 3t-54.5 13.5t-53 27t-38.5 47t-16 70.5q0 34 12.5 61t30.5 44t45.5 29t49.5 17.5t51.5 8.5t41.5 3.5t29 0.5l81 -5q0 67 -37 95.5t-109 28.5q-73 0 -146 -23v69q69 26 150 26z
M398 150v96q-33 6 -89 6q-181 0 -181 -98q0 -95 137 -95q133 0 133 91zM413 585q-26 -32 -56 -35.5t-57.5 11l-55 29t-57.5 11t-56 -35.5v57q26 32 56 35t57.5 -11.5l55 -29t57.5 -11.5t56 35v-55z" />
    <glyph glyph-name="adieresis" unicode="&#xe4;" horiz-adv-x="534" 
d="M164 564v79h80v-79h-80zM312 564v79h80v-79h-80zM255 508q105 0 160 -53t55 -154v-151q0 -48 -22 -82t-57 -49t-65.5 -21t-60.5 -6q-23 0 -47 3t-54.5 13.5t-53 27t-38.5 47t-16 70.5q0 34 12.5 61t30.5 44t46 29t49.5 17.5t51 8.5t42 3.5t29.5 0.5l80 -5q0 67 -37 95.5
t-109 28.5q-81 0 -146 -24v70q74 26 150 26zM398 150v96q-33 6 -89 6q-181 0 -181 -99q0 -94 137 -94q133 0 133 91z" />
    <glyph glyph-name="aring" unicode="&#xe5;" horiz-adv-x="534" 
d="M255 508q105 0 160 -53t55 -154v-151q0 -48 -22 -82t-57 -49t-65.5 -21t-60.5 -6q-23 0 -47 3t-54.5 13.5t-53 27t-38.5 47t-16 70.5q0 34 12.5 61t30.5 44t46 29t49.5 17.5t51 8.5t42 3.5t29.5 0.5l80 -5q0 67 -37 95.5t-109 28.5q-81 0 -146 -24v70q74 26 150 26z
M398 150v96q-33 6 -89 6q-181 0 -181 -99q0 -94 137 -94q133 0 133 91zM273 699q39 0 60 -21t21 -61t-21 -61t-60 -21t-60 21t-21 61t21 61t60 21zM273 568q24 0 34.5 11.5t10.5 37.5t-10.5 37t-34.5 11q-25 0 -35 -11t-10 -37t10 -37.5t35 -11.5z" />
    <glyph glyph-name="ae" unicode="&#xe6;" horiz-adv-x="891" 
d="M613 508q46 0 83.5 -14.5t59.5 -34t38.5 -51t23.5 -53.5t11 -53t4 -38.5v-21.5l-2 -35h-364q7 -75 46 -109t117 -34q107 0 171 37v-74q-75 -35 -179 -35q-121 0 -178 74q-51 -74 -181 -74q-23 0 -47 3t-54.5 13.5t-53 27t-38.5 47t-16 70.5q0 34 12.5 61t30.5 44t45.5 29
t49.5 17.5t51.5 8.5t41.5 3.5t29 0.5l81 -5q0 67 -37 95.5t-109 28.5q-81 0 -146 -24v70q74 26 149 26q131 0 184 -82q55 82 177 82zM395 150v96q-32 6 -88 6q-181 0 -181 -99q0 -94 137 -94q132 0 132 91zM467 271h292q0 17 -4 38t-16.5 54t-45 55t-80.5 22
q-73 0 -107 -38.5t-39 -130.5z" />
    <glyph glyph-name="ccedilla" unicode="&#xe7;" horiz-adv-x="472" 
d="M300 439q-89 0 -129.5 -45t-40.5 -144q0 -100 40.5 -144.5t129.5 -44.5q75 0 140 28v-70q-56 -20 -110 -26l-62 -112h-76l80 111q-42 2 -77 15t-67.5 40.5t-51 79t-18.5 123.5q0 76 21 129.5t57 80t73.5 37.5t82.5 11q75 0 148 -28v-69q-68 28 -140 28z" />
    <glyph glyph-name="egrave" unicode="&#xe8;" horiz-adv-x="555" 
d="M282 508q46 0 83.5 -14.5t59.5 -34t38.5 -51t23.5 -53.5t11 -53t4 -38.5v-21.5l-2 -35h-364q7 -75 46 -109t116 -34q109 0 171 37v-74q-73 -35 -178 -35q-44 0 -80.5 10.5t-72 36.5t-55.5 78t-20 126v5q-1 260 219 260zM136 271h292q0 17 -4 38t-16.5 54t-45 55t-80.5 22
q-74 0 -107.5 -38.5t-38.5 -130.5zM267 679l57 -115h-48l-83 115h74z" />
    <glyph glyph-name="eacute" unicode="&#xe9;" horiz-adv-x="555" 
d="M282 508q46 0 83.5 -14.5t59.5 -34t38.5 -51t23.5 -53.5t11 -53t4 -38.5v-21.5l-2 -35h-364q7 -75 46 -109t116 -34q109 0 171 37v-74q-73 -35 -178 -35q-44 0 -80.5 10.5t-72 36.5t-55.5 78t-20 126v5q-1 260 219 260zM136 271h292q0 17 -4 38t-16.5 54t-45 55t-80.5 22
q-74 0 -107.5 -38.5t-38.5 -130.5zM304 679h74l-83 -115h-48z" />
    <glyph glyph-name="ecircumflex" unicode="&#xea;" horiz-adv-x="555" 
d="M282 508q46 0 83.5 -14.5t59.5 -34t38.5 -51t23.5 -53.5t11 -53t4 -38.5v-21.5l-2 -35h-364q7 -75 46 -109t116 -34q109 0 171 37v-74q-73 -35 -178 -35q-44 0 -80.5 10.5t-72 36.5t-55.5 78t-20 126v5q-1 260 219 260zM136 271h292q0 17 -4 38t-16.5 54t-45 55t-80.5 22
q-74 0 -107.5 -38.5t-38.5 -130.5zM303 684l80 -120h-56l-45 70l-45 -70h-56l80 120h42z" />
    <glyph glyph-name="edieresis" unicode="&#xeb;" horiz-adv-x="555" 
d="M282 508q46 0 83.5 -14.5t59.5 -34t38.5 -51t23.5 -53.5t11 -53t4 -38.5v-21.5l-2 -35h-364q7 -75 46 -109t116 -34q109 0 171 37v-74q-73 -35 -178 -35q-44 0 -80.5 10.5t-72 36.5t-55.5 78t-20 126v5q-1 260 219 260zM136 271h292q0 17 -4 38t-16.5 54t-45 55t-80.5 22
q-74 0 -107.5 -38.5t-38.5 -130.5zM168 564v79h80v-79h-80zM316 564v79h80v-79h-80z" />
    <glyph glyph-name="igrave" unicode="&#xec;" horiz-adv-x="270" 
d="M99 0v499h72v-499h-72zM102 679l57 -115h-48l-83 115h74z" />
    <glyph glyph-name="iacute" unicode="&#xed;" horiz-adv-x="270" 
d="M171 0v499h-72v-499h72zM167 679h74l-83 -115h-47z" />
    <glyph glyph-name="icircumflex" unicode="&#xee;" horiz-adv-x="270" 
d="M171 0v499h-72v-499h72zM155 684l81 -120h-56l-45 70l-46 -70h-56l81 120h41z" />
    <glyph glyph-name="idieresis" unicode="&#xef;" horiz-adv-x="270" 
d="M171 0v499h-72v-499h72zM21 564v79h79v-79h-79zM169 564v79h79v-79h-79z" />
    <glyph glyph-name="eth" unicode="&#xf0;" horiz-adv-x="583" 
d="M416 597q96 -94 96 -291q0 -314 -227 -314q-60 0 -105.5 20t-71 53.5t-38 72t-12.5 79.5q0 97 61 153.5t166 56.5q91 0 150 -44q-12 119 -85 178l-112 -63l-27 48l83 46q-42 16 -94 16q-20 0 -54 -4v67q32 5 62 5q90 0 160 -42l93 52l26 -48zM285 60q21 0 34.5 1.5
t38.5 14.5t40.5 36.5t28 72.5t13.5 118q-54 57 -155 57q-75 0 -115 -37t-40 -105q0 -20 4.5 -41t18.5 -50.5t48 -48t84 -18.5z" />
    <glyph glyph-name="ntilde" unicode="&#xf1;" horiz-adv-x="581" 
d="M293 508q94 0 146 -48t52 -135v-325h-72v325q0 21 -4.5 37.5t-17 35t-41 28.5t-71.5 10q-63 0 -131 -20v-416h-72v459q98 49 211 49zM427 585q-26 -32 -56 -35.5t-57.5 11l-55 29t-57 11t-55.5 -35.5v57q26 32 55.5 35t57 -11.5l55 -29t57.5 -11.5t56 35v-55z" />
    <glyph glyph-name="ograve" unicode="&#xf2;" horiz-adv-x="564" 
d="M49 250q0 76 21 129.5t57 80t74 37.5t83 11t82.5 -11t73.5 -37.5t57 -80t21 -129.5t-21 -129.5t-57 -80t-73.5 -37.5t-82.5 -11t-83 11t-74 37.5t-57 80t-21 129.5zM121 250q0 -101 39 -146.5t124 -45.5t123.5 46t38.5 146t-38.5 146t-123.5 46t-124 -45.5t-39 -146.5z
M251 679l57 -115h-48l-83 115h74z" />
    <glyph glyph-name="oacute" unicode="&#xf3;" horiz-adv-x="564" 
d="M284 508q45 0 82.5 -11t73.5 -37.5t57 -80t21 -129.5t-21 -129.5t-57 -80t-73.5 -37.5t-82.5 -11t-83 11t-74 37.5t-57 80t-21 129.5t21 129.5t57 80t74 37.5t83 11zM284 58q85 0 123.5 46t38.5 146t-38.5 146t-123.5 46t-124 -45.5t-39 -146.5t39 -146.5t124 -45.5z
M316 679h74l-83 -115h-48z" />
    <glyph glyph-name="ocircumflex" unicode="&#xf4;" horiz-adv-x="564" 
d="M49 250q0 76 21 129.5t57 80t74 37.5t83 11t82.5 -11t73.5 -37.5t57 -80t21 -129.5t-21 -129.5t-57 -80t-73.5 -37.5t-82.5 -11t-83 11t-74 37.5t-57 80t-21 129.5zM121 250q0 -101 39 -146.5t124 -45.5t123.5 46t38.5 146t-38.5 146t-123.5 46t-124 -45.5t-39 -146.5z
M304 684l81 -120h-56l-45 70l-46 -70h-56l81 120h41z" />
    <glyph glyph-name="otilde" unicode="&#xf5;" horiz-adv-x="564" 
d="M49 250q0 76 21 129.5t57 80t73.5 37.5t82.5 11t83 -11t74 -37.5t57 -80t21 -129.5t-21 -129.5t-57 -80t-74 -37.5t-83 -11t-82.5 11t-73.5 37.5t-57 80t-21 129.5zM121 250q0 -101 38.5 -146.5t123.5 -45.5t124 45.5t39 146.5t-39 146.5t-124 45.5t-123.5 -45.5
t-38.5 -146.5zM428 585q-26 -32 -56 -35.5t-57.5 11l-55 29t-57 11.5t-55.5 -35v56q26 32 55.5 35.5t57 -11t55 -29.5t57.5 -11.5t56 35.5v-56z" />
    <glyph glyph-name="odieresis" unicode="&#xf6;" horiz-adv-x="564" 
d="M49 250q0 76 21 129.5t57 80t74 37.5t83 11t82.5 -11t73.5 -37.5t57 -80t21 -129.5t-21 -129.5t-57 -80t-73.5 -37.5t-82.5 -11t-83 11t-74 37.5t-57 80t-21 129.5zM121 250q0 -101 39 -146.5t124 -45.5t123.5 46t38.5 146t-38.5 146t-123.5 46t-124 -45.5t-39 -146.5z
M170 564v79h79v-79h-79zM318 564v79h79v-79h-79z" />
    <glyph glyph-name="divide" unicode="&#xf7;" horiz-adv-x="628" 
d="M274 359v80h80v-80h-80zM274 74v80h80v-80h-80zM517 227v60h-406v-60h406z" />
    <glyph glyph-name="oslash" unicode="&#xf8;" horiz-adv-x="574" 
d="M458 499h78l-61 -73q46 -64 46 -176q0 -76 -21 -129.5t-57 -80t-73.5 -37.5t-82.5 -11q-89 0 -145 39l-27 -31h-78l62 74q-47 65 -47 176q0 76 21 129.5t57 80t74 37.5t83 11q88 0 145 -40zM124 250q0 -77 22 -120l242 286q-38 26 -101 26q-85 0 -124 -45.5t-39 -146.5z
M449 250q0 76 -22 120l-241 -287q37 -25 101 -25q85 0 123.5 45.5t38.5 146.5z" />
    <glyph glyph-name="ugrave" unicode="&#xf9;" horiz-adv-x="587" 
d="M428 499h72v-289q0 -104 -54.5 -161t-154.5 -57t-154.5 57t-54.5 161v289h72v-293q0 -76 33 -111.5t104 -35.5q70 0 103.5 35.5t33.5 111.5v293zM261 679l57 -115h-48l-83 115h74z" />
    <glyph glyph-name="uacute" unicode="&#xfa;" horiz-adv-x="587" 
d="M428 499h72v-289q0 -104 -54.5 -161t-154.5 -57t-154.5 57t-54.5 161v289h72v-293q0 -76 33 -111.5t104 -35.5q70 0 103.5 35.5t33.5 111.5v293zM321 679h73l-83 -115h-47z" />
    <glyph glyph-name="ucircumflex" unicode="&#xfb;" horiz-adv-x="587" 
d="M428 499h72v-289q0 -104 -54.5 -161t-154.5 -57t-154.5 57t-54.5 161v289h72v-293q0 -76 33 -111.5t104 -35.5q70 0 103.5 35.5t33.5 111.5v293zM311 684l81 -120h-56l-45 70l-45 -70h-56l80 120h41z" />
    <glyph glyph-name="udieresis" unicode="&#xfc;" horiz-adv-x="587" 
d="M428 499h72v-289q0 -104 -54.5 -161t-154.5 -57t-154.5 57t-54.5 161v289h72v-293q0 -76 33 -111.5t104 -35.5q70 0 103.5 35.5t33.5 111.5v293zM177 564v79h80v-79h-80zM325 564v79h80v-79h-80z" />
    <glyph glyph-name="yacute" unicode="&#xfd;" horiz-adv-x="502" 
d="M394 499h77l-204 -548q-53 -144 -156 -144q-25 0 -48 9v66q20 -9 43 -9q31 0 58 33.5t39 67.5l12 34l-184 491h77l143 -395zM276 679h74l-83 -115h-48z" />
    <glyph glyph-name="thorn" unicode="&#xfe;" horiz-adv-x="555" 
d="M278 501q34 0 64 -6t61 -23t53.5 -44t36.5 -73t14 -106q0 -74 -20.5 -126t-56 -78t-72.5 -36.5t-80 -10.5q-63 0 -123 20v-202h-72v867h72v-202q60 20 123 20zM278 65q83 0 120 43.5t37 140.5t-37 141t-120 44q-66 0 -123 -25v-319q57 -25 123 -25z" />
    <glyph glyph-name="ydieresis" unicode="&#xff;" horiz-adv-x="502" 
d="M394 499h77l-204 -548q-53 -144 -156 -144q-25 0 -48 9v66q20 -9 43 -9q31 0 58 33.5t39 67.5l12 34l-184 491h77l143 -395zM136 564v79h79v-79h-79zM284 564v79h79v-79h-79z" />
    <glyph glyph-name="Amacron" unicode="&#x100;" 
d="M359 667l265 -667h-77l-80 208h-288l-80 -208h-78l266 667h72zM206 277h234l-117 305zM206 736v53h234v-53h-234z" />
    <glyph glyph-name="amacron" unicode="&#x101;" horiz-adv-x="534" 
d="M153 576v53h234v-53h-234zM255 508q105 0 160 -53t55 -154v-151q0 -48 -22 -82t-57 -49t-65.5 -21t-60.5 -6q-23 0 -47 3t-54.5 13.5t-53 27t-38.5 47t-16 70.5q0 34 12.5 61t30.5 44t46 29t49.5 17.5t51 8.5t42 3.5t29.5 0.5l80 -5q0 67 -37 95.5t-109 28.5
q-81 0 -146 -24v70q74 26 150 26zM398 150v96q-33 6 -89 6q-181 0 -181 -99q0 -94 137 -94q133 0 133 91z" />
    <glyph glyph-name="Abreve" unicode="&#x102;" 
d="M359 667l265 -667h-77l-80 208h-288l-80 -208h-78l266 667h72zM206 277h234l-117 305zM380 809h48q0 -49 -28 -76.5t-77 -27.5t-77 27.5t-28 76.5h48q0 -29 13.5 -42.5t43.5 -13.5t43.5 13.5t13.5 42.5z" />
    <glyph glyph-name="abreve" unicode="&#x103;" horiz-adv-x="534" 
d="M255 508q105 0 160 -53t55 -154v-151q0 -48 -22 -82t-57 -49t-65.5 -21t-60.5 -6q-23 0 -47 3t-54.5 13.5t-53 27t-38.5 47t-16 70.5q0 34 12.5 61t30.5 44t46 29t49.5 17.5t51 8.5t42 3.5t29.5 0.5l80 -5q0 67 -37 95.5t-109 28.5q-81 0 -146 -24v70q74 26 150 26z
M398 150v96q-33 6 -89 6q-181 0 -181 -99q0 -94 137 -94q133 0 133 91zM329 649h48q0 -49 -28 -76.5t-77 -27.5t-77 27.5t-28 76.5h48q0 -30 13.5 -43t43.5 -13t43.5 13t13.5 43z" />
    <glyph glyph-name="Aogonek" unicode="&#x104;" 
d="M615 -99h31q-8 -32 -35 -53t-68 -21q-66 0 -66 64q0 27 17.5 54.5t35.5 40.5l17 14l-80 208h-288l-80 -208h-78l266 667h72l265 -667q-3 -2 -8.5 -5.5t-19 -14t-24 -21.5t-19 -25.5t-8.5 -27.5q0 -35 26 -35q21 0 44 30zM206 277h234l-117 305z" />
    <glyph glyph-name="aogonek" unicode="&#x105;" horiz-adv-x="534" 
d="M255 508q105 0 160 -53t55 -154v-151q0 -128 -150 -154q-13 -8 -27.5 -19.5t-30.5 -32t-16 -38.5q0 -35 26 -35q23 0 44 30h31q-7 -32 -34.5 -53t-68.5 -21q-66 0 -66 64q0 52 73 101q-31 1 -60.5 8t-62 23.5t-52.5 49.5t-20 80q0 34 12.5 61t30.5 44t46 29t49.5 17.5
t51 8.5t42 3.5t29.5 0.5l80 -5q0 67 -37 95.5t-109 28.5q-81 0 -146 -24v70q74 26 150 26zM398 150v96q-33 6 -89 6q-181 0 -181 -99q0 -94 137 -94q133 0 133 91z" />
    <glyph glyph-name="Cacute" unicode="&#x106;" horiz-adv-x="628" 
d="M389 840h74l-83 -115h-48zM133 334q0 -142 59 -208t186 -66q102 0 195 39v-69q-97 -38 -203 -38q-309 0 -309 342t309 342q107 0 203 -39v-69q-94 40 -195 40q-127 0 -186 -66t-59 -208z" />
    <glyph glyph-name="cacute" unicode="&#x107;" horiz-adv-x="472" 
d="M318 679h74l-84 -115h-47zM130 250q0 -100 40.5 -144.5t129.5 -44.5q75 0 140 28v-70q-70 -27 -148 -27q-45 0 -82.5 11t-73.5 37.5t-57 80t-21 129.5t21 129.5t57 80t73.5 37.5t82.5 11q75 0 148 -28v-69q-68 28 -140 28q-89 0 -129.5 -45t-40.5 -144z" />
    <glyph glyph-name="Ccircumflex" unicode="&#x108;" horiz-adv-x="628" 
d="M382 844l81 -120h-56l-45 70l-46 -70h-56l81 120h41zM133 336q0 -142 59 -208t186 -66q102 0 195 39v-68q-96 -39 -203 -39q-309 0 -309 342t309 342q107 0 203 -39v-68q-95 39 -195 39q-127 0 -186 -66t-59 -208z" />
    <glyph glyph-name="ccircumflex" unicode="&#x109;" horiz-adv-x="472" 
d="M298 684l81 -120h-56l-46 70l-45 -70h-56l81 120h41zM130 250q0 -100 40.5 -144.5t129.5 -44.5q75 0 140 28v-70q-70 -27 -148 -27q-45 0 -82.5 11t-73.5 37.5t-57 80t-21 129.5t21 129.5t57 80t73.5 37.5t82.5 11q75 0 148 -28v-69q-68 28 -140 28q-89 0 -129.5 -45
t-40.5 -144z" />
    <glyph glyph-name="Cdotaccent" unicode="&#x10a;" horiz-adv-x="628" 
d="M317 724v80h80v-80h-80zM133 336q0 -142 59 -208t186 -66q102 0 195 39v-68q-96 -39 -203 -39q-309 0 -309 342t309 342q107 0 203 -39v-68q-95 39 -195 39q-127 0 -186 -66t-59 -208z" />
    <glyph glyph-name="cdotaccent" unicode="&#x10b;" horiz-adv-x="472" 
d="M236 564v79h79v-79h-79zM130 250q0 -100 40.5 -144.5t129.5 -44.5q75 0 140 28v-70q-70 -27 -148 -27q-45 0 -82.5 11t-73.5 37.5t-57 80t-21 129.5t21 129.5t57 80t73.5 37.5t82.5 11q75 0 148 -28v-69q-68 28 -140 28q-89 0 -129.5 -45t-40.5 -144z" />
    <glyph glyph-name="Ccaron" unicode="&#x10c;" horiz-adv-x="628" 
d="M341 724l-81 120h56l46 -71l45 71h56l-81 -120h-41zM133 336q0 -142 59 -208t186 -66q102 0 195 39v-68q-96 -39 -203 -39q-309 0 -309 342t309 342q107 0 203 -39v-68q-95 39 -195 39q-127 0 -186 -66t-59 -208z" />
    <glyph glyph-name="ccaron" unicode="&#x10d;" horiz-adv-x="472" 
d="M257 564l-81 120h56l45 -70l46 70h56l-81 -120h-41zM130 250q0 -100 40.5 -144.5t129.5 -44.5q75 0 140 28v-70q-70 -27 -148 -27q-45 0 -82.5 11t-73.5 37.5t-57 80t-21 129.5t21 129.5t57 80t73.5 37.5t82.5 11q75 0 148 -28v-69q-68 28 -140 28q-89 0 -129.5 -45
t-40.5 -144z" />
    <glyph glyph-name="Dcaron" unicode="&#x10e;" horiz-adv-x="670" 
d="M277 724l-80 121h56l45 -71l45 71h56l-80 -121h-42zM87 667h209q313 0 313 -333q0 -334 -313 -334h-209v667zM291 68q128 0 187 64t59 202t-59 202t-187 64h-132v-532h132z" />
    <glyph glyph-name="dcaron" unicode="&#x10f;" horiz-adv-x="660" 
d="M63 256q0 74 20.5 126.5t55.5 78t72 36.5t80 11q62 0 124 -20v201h72v-540q0 -20 -6 -41t-24.5 -50t-63.5 -47.5t-111 -18.5q-28 0 -54.5 5t-57.5 22t-53.5 44.5t-38 77t-15.5 115.5zM135 256q0 -63 13.5 -105.5t37.5 -61t46 -25t50 -6.5q133 0 133 88v270
q-61 25 -124 25q-82 0 -119 -44t-37 -141zM622 689q0 -64 -30 -99t-70 -45v55q41 15 41 89h59z" />
    <glyph glyph-name="Dcroat" unicode="&#x110;" horiz-adv-x="717" 
d="M340 667q313 0 313 -333q0 -334 -313 -334h-209v303h-78v60h78v304h209zM335 68q128 0 187 64t59 202t-59 202t-187 64h-132v-237h171v-60h-171v-235h132z" />
    <glyph glyph-name="dcroat" unicode="&#x111;" horiz-adv-x="600" 
d="M554 626v-61h-67v-416q0 -20 -6 -41t-24.5 -50t-63.5 -47.5t-111 -18.5q-28 0 -54.5 5t-57.5 22t-53.5 44.5t-38 77t-15.5 115.5q0 74 20.5 126.5t55.5 78t72 36.5t80 11q62 0 124 -20v77h-132v61h132v63h72v-63h67zM415 146v270q-61 25 -124 25q-82 0 -119 -44t-37 -141
q0 -63 13.5 -105.5t37.5 -61t46 -25t50 -6.5q133 0 133 88z" />
    <glyph glyph-name="Emacron" unicode="&#x112;" horiz-adv-x="566" 
d="M189 736v53h234v-53h-234zM159 599v-230h307v-70h-307v-231h349v-68h-421v667h421v-68h-349z" />
    <glyph glyph-name="emacron" unicode="&#x113;" horiz-adv-x="555" 
d="M282 508q46 0 83.5 -14.5t59.5 -34t38.5 -51t23.5 -53.5t11 -53t4 -38.5v-21.5l-2 -35h-364q7 -75 46 -109t116 -34q109 0 171 37v-74q-73 -35 -178 -35q-44 0 -80.5 10.5t-72 36.5t-55.5 78t-20 126v5q-1 260 219 260zM136 271h292q0 17 -4 38t-16.5 54t-45 55t-80.5 22
q-74 0 -107.5 -38.5t-38.5 -130.5zM165 576v53h234v-53h-234z" />
    <glyph glyph-name="Ebreve" unicode="&#x114;" horiz-adv-x="566" 
d="M360 809h48q0 -49 -28 -76.5t-77 -27.5t-77 27.5t-28 76.5h48q0 -29 13.5 -42.5t43.5 -13.5t43.5 13.5t13.5 42.5zM159 599v-230h307v-70h-307v-231h349v-68h-421v667h421v-68h-349z" />
    <glyph glyph-name="ebreve" unicode="&#x115;" horiz-adv-x="555" 
d="M282 508q46 0 83.5 -14.5t59.5 -34t38.5 -51t23.5 -53.5t11 -53t4 -38.5v-21.5l-2 -35h-364q7 -75 46 -109t116 -34q109 0 171 37v-74q-73 -35 -178 -35q-44 0 -80.5 10.5t-72 36.5t-55.5 78t-20 126v5q-1 260 219 260zM136 271h292q0 17 -4 38t-16.5 54t-45 55t-80.5 22
q-74 0 -107.5 -38.5t-38.5 -130.5zM341 649h48q0 -49 -28 -76.5t-77 -27.5t-77 27.5t-28 76.5h48q0 -30 13.5 -43t43.5 -13t43.5 13t13.5 43z" />
    <glyph glyph-name="Edotaccent" unicode="&#x116;" horiz-adv-x="566" 
d="M264 724v80h79v-80h-79zM159 599v-230h307v-70h-307v-231h349v-68h-421v667h421v-68h-349z" />
    <glyph glyph-name="edotaccent" unicode="&#x117;" horiz-adv-x="555" 
d="M282 508q46 0 83.5 -14.5t59.5 -34t38.5 -51t23.5 -53.5t11 -53t4 -38.5v-21.5l-2 -35h-364q7 -75 46 -109t116 -34q109 0 171 37v-74q-73 -35 -178 -35q-44 0 -80.5 10.5t-72 36.5t-55.5 78t-20 126v5q-1 260 219 260zM136 271h292q0 17 -4 38t-16.5 54t-45 55t-80.5 22
q-74 0 -107.5 -38.5t-38.5 -130.5zM244 564v79h79v-79h-79z" />
    <glyph glyph-name="Eogonek" unicode="&#x118;" horiz-adv-x="566" 
d="M498 -99h31q-7 -32 -34.5 -53t-68.5 -21q-66 0 -66 64q0 27 21 54t43 41l21 14h-358v667h421v-68h-349v-230h307v-70h-307v-231h349v-68q-9 -5 -22.5 -14.5t-35.5 -34.5t-22 -45q0 -35 26 -35q23 0 44 30z" />
    <glyph glyph-name="eogonek" unicode="&#x119;" horiz-adv-x="555" 
d="M282 508q46 0 83.5 -14.5t59.5 -34t38.5 -51t23.5 -53.5t11 -53t4 -38.5v-21.5l-2 -35h-364q7 -75 46 -109t116 -34q109 0 171 37v-74q-4 -3 -11.5 -7.5t-26.5 -18.5t-33.5 -28t-26.5 -32.5t-12 -34.5q0 -35 26 -35q22 0 43 30h32q-8 -31 -35.5 -52.5t-68.5 -21.5
q-65 0 -65 65q0 54 81 106q-38 -6 -81 -6q-44 0 -80.5 10.5t-72 36.5t-55.5 78t-20 126v5q-1 260 219 260zM136 271h292q0 17 -4 38t-16.5 54t-45 55t-80.5 22q-74 0 -107.5 -38.5t-38.5 -130.5z" />
    <glyph glyph-name="Ecaron" unicode="&#x11a;" horiz-adv-x="566" 
d="M282 724l-81 121h56l46 -71l45 71h56l-81 -121h-41zM159 599v-230h307v-70h-307v-231h349v-68h-421v667h421v-68h-349z" />
    <glyph glyph-name="ecaron" unicode="&#x11b;" horiz-adv-x="555" 
d="M282 508q46 0 83.5 -14.5t59.5 -34t38.5 -51t23.5 -53.5t11 -53t4 -38.5v-21.5l-2 -35h-364q7 -75 46 -109t116 -34q109 0 171 37v-74q-73 -35 -178 -35q-44 0 -80.5 10.5t-72 36.5t-55.5 78t-20 126v5q-1 260 219 260zM136 271h292q0 17 -4 38t-16.5 54t-45 55t-80.5 22
q-74 0 -107.5 -38.5t-38.5 -130.5zM261 564l-80 120h56l45 -70l45 70h56l-80 -120h-42z" />
    <glyph glyph-name="Gcircumflex" unicode="&#x11c;" horiz-adv-x="677" 
d="M377 844l80 -120h-56l-45 71l-45 -71h-56l80 120h42zM370 293v70h233v-320q-109 -51 -233 -51q-309 0 -309 342t309 342q107 0 210 -42v-70q-97 43 -202 43q-127 0 -186 -66t-59 -207q0 -142 59 -207.5t186 -65.5q80 0 153 24v208h-161z" />
    <glyph glyph-name="gcircumflex" unicode="&#x11d;" horiz-adv-x="538" 
d="M300 684l80 -120h-56l-45 70l-45 -70h-56l81 120h41zM272 508q64 0 107.5 -18t61 -46t23.5 -48.5t6 -40.5v-376q0 -33 -9.5 -61t-31.5 -54.5t-67 -41.5t-109 -15q-70 0 -142 18v68q58 -18 134 -18q48 0 80.5 8.5t47 24.5t20 31.5t5.5 37.5v50q-56 -18 -117 -18
q-33 0 -62 5.5t-59 22t-51.5 43t-35 70.5t-13.5 102q0 78 21 132.5t56.5 79.5t67.5 34.5t67 9.5zM398 99v259q0 84 -126 84q-27 0 -48 -6.5t-44 -24.5t-35.5 -58.5t-12.5 -100.5q0 -56 12 -92.5t35 -54t46.5 -23.5t55.5 -6q60 0 117 23z" />
    <glyph glyph-name="Gbreve" unicode="&#x11e;" horiz-adv-x="677" 
d="M417 809h48q0 -49 -28 -76.5t-77 -27.5t-77 27.5t-28 76.5h48q0 -29 13.5 -42.5t43.5 -13.5t43.5 13.5t13.5 42.5zM370 293v70h233v-320q-109 -51 -233 -51q-309 0 -309 342t309 342q107 0 210 -42v-70q-97 43 -202 43q-127 0 -186 -66t-59 -207q0 -142 59 -207.5
t186 -65.5q80 0 153 24v208h-161z" />
    <glyph glyph-name="gbreve" unicode="&#x11f;" horiz-adv-x="538" 
d="M337 649h48q0 -49 -27.5 -76.5t-77.5 -27.5q-49 0 -77 27.5t-28 76.5h48q0 -30 13.5 -43t43.5 -13t43.5 13t13.5 43zM272 508q64 0 107.5 -18t61 -46t23.5 -48.5t6 -40.5v-376q0 -33 -9.5 -61t-31.5 -54.5t-67 -41.5t-109 -15q-70 0 -142 18v68q58 -18 134 -18
q48 0 80.5 8.5t47 24.5t20 31.5t5.5 37.5v50q-56 -18 -117 -18q-33 0 -62 5.5t-59 22t-51.5 43t-35 70.5t-13.5 102q0 78 21 132.5t56.5 79.5t67.5 34.5t67 9.5zM398 99v259q0 84 -126 84q-27 0 -48 -6.5t-44 -24.5t-35.5 -58.5t-12.5 -100.5q0 -56 12 -92.5t35 -54
t46.5 -23.5t55.5 -6q60 0 117 23z" />
    <glyph glyph-name="Gdotaccent" unicode="&#x120;" horiz-adv-x="677" 
d="M321 724v80h80v-80h-80zM370 293v70h233v-320q-109 -51 -233 -51q-309 0 -309 342t309 342q107 0 210 -42v-70q-97 43 -202 43q-127 0 -186 -66t-59 -207q0 -142 59 -207.5t186 -65.5q80 0 153 24v208h-161z" />
    <glyph glyph-name="gdotaccent" unicode="&#x121;" horiz-adv-x="538" 
d="M236 564v79h80v-79h-80zM272 508q64 0 107.5 -18t61 -46t23.5 -48.5t6 -40.5v-376q0 -33 -9.5 -61t-31.5 -54.5t-67 -41.5t-109 -15q-70 0 -142 18v68q58 -18 134 -18q48 0 80.5 8.5t47 24.5t20 31.5t5.5 37.5v50q-56 -18 -117 -18q-33 0 -62 5.5t-59 22t-51.5 43
t-35 70.5t-13.5 102q0 78 21 132.5t56.5 79.5t67.5 34.5t67 9.5zM398 99v259q0 84 -126 84q-27 0 -48 -6.5t-44 -24.5t-35.5 -58.5t-12.5 -100.5q0 -56 12 -92.5t35 -54t46.5 -23.5t55.5 -6q60 0 117 23z" />
    <glyph glyph-name="Gcommaaccent" unicode="&#x122;" horiz-adv-x="677" 
d="M370 293v70h233v-320q-109 -51 -233 -51q-309 0 -309 342t309 342q107 0 210 -42v-70q-97 43 -202 43q-127 0 -186 -66t-59 -207q0 -142 59 -207.5t186 -65.5q80 0 153 24v208h-161zM410 -50q0 -65 -30 -100t-70 -44v54q40 16 40 90h60z" />
    <glyph glyph-name="gcommaaccent" unicode="&#x123;" horiz-adv-x="538" 
d="M272 508q64 0 107.5 -18t61 -46t23.5 -48.5t6 -40.5v-376q0 -33 -9.5 -61t-31.5 -54.5t-67 -41.5t-109 -15q-70 0 -142 18v68q58 -18 134 -18q48 0 80.5 8.5t47 24.5t20 31.5t5.5 37.5v50q-56 -18 -117 -18q-33 0 -62 5.5t-59 22t-51.5 43t-35 70.5t-13.5 102
q0 78 21 132.5t56.5 79.5t67.5 34.5t67 9.5zM398 99v259q0 84 -126 84q-27 0 -48 -6.5t-44 -24.5t-35.5 -58.5t-12.5 -100.5q0 -56 12 -92.5t35 -54t46.5 -23.5t55.5 -6q60 0 117 23zM248 564q0 65 29.5 99.5t70.5 44.5v-55q-41 -16 -41 -89h-59z" />
    <glyph glyph-name="Hcircumflex" unicode="&#x124;" horiz-adv-x="674" 
d="M357 844l81 -120h-56l-45 71l-46 -71h-56l81 120h41zM514 667h72v-667h-72v299h-355v-299h-72v667h72v-299h355v299z" />
    <glyph glyph-name="hcircumflex" unicode="&#x125;" horiz-adv-x="577" 
d="M151 844l80 -120h-56l-45 71l-45 -71h-56l80 120h42zM317 508q92 0 142 -55.5t50 -156.5v-296h-72v296q0 140 -128 140q-70 0 -143 -30v-406h-72v689h72v-213q76 32 151 32z" />
    <glyph glyph-name="Hbar" unicode="&#x126;" horiz-adv-x="755" 
d="M709 548v-60h-82v-488h-72v299h-355v-299h-72v488h-82v60h82v119h72v-119h355v119h72v-119h82zM555 368v120h-355v-120h355z" />
    <glyph glyph-name="hbar" unicode="&#x127;" horiz-adv-x="603" 
d="M337 508q92 0 142 -55.5t50 -156.5v-296h-72v296q0 71 -31.5 105.5t-97.5 34.5q-69 0 -142 -30v-406h-72v565h-68v61h68v63h72v-63h131v-61h-131v-89q76 32 151 32z" />
    <glyph glyph-name="Itilde" unicode="&#x128;" horiz-adv-x="245" 
d="M87 667v-667h72v667h-72zM264 745q-26 -32 -56 -35.5t-57.5 11l-55 29t-57.5 11t-56 -35.5v57q26 32 56 35t57.5 -11.5l55 -29t57.5 -11.5t56 35v-55z" />
    <glyph glyph-name="itilde" unicode="&#x129;" horiz-adv-x="270" 
d="M171 0v499h-72v-499h72zM276 585q-26 -32 -56 -35.5t-57.5 11l-55 29t-57.5 11t-56 -35.5v57q26 32 56 35t57.5 -11.5l55 -29t57.5 -11.5t56 35v-55z" />
    <glyph glyph-name="Imacron" unicode="&#x12a;" horiz-adv-x="245" 
d="M87 0v667h72v-667h-72zM6 736v53h234v-53h-234z" />
    <glyph glyph-name="imacron" unicode="&#x12b;" horiz-adv-x="270" 
d="M171 0v499h-72v-499h72zM18 576v53h233v-53h-233z" />
    <glyph glyph-name="Ibreve" unicode="&#x12c;" horiz-adv-x="245" 
d="M87 0v667h72v-667h-72zM180 809h48q0 -49 -28 -76.5t-77 -27.5t-77 27.5t-28 76.5h48q0 -29 13.5 -42.5t43.5 -13.5t43.5 13.5t13.5 42.5z" />
    <glyph glyph-name="ibreve" unicode="&#x12d;" horiz-adv-x="270" 
d="M171 0v499h-72v-499h72zM191 649h48q0 -49 -27.5 -76.5t-76.5 -27.5t-77 27.5t-28 76.5h48q0 -29 13.5 -42.5t43.5 -13.5q56 0 56 56z" />
    <glyph glyph-name="Iogonek" unicode="&#x12e;" horiz-adv-x="245" 
d="M149 -98h32q-8 -32 -35.5 -53.5t-68.5 -21.5q-65 0 -65 65q0 27 19 54.5t37 41.5l19 13v666h72v-666q-3 -2 -8.5 -5.5t-19 -14t-24 -21.5t-19 -25.5t-8.5 -27.5q0 -36 26 -36q22 0 43 31z" />
    <glyph glyph-name="iogonek" unicode="&#x12f;" horiz-adv-x="245" 
d="M83 667h80v-79h-80v79zM106 -129q22 0 43 31h32q-8 -32 -35.5 -53.5t-68.5 -21.5q-65 0 -65 65q0 27 19 54.5t37 41.5l19 13v498h72v-498q-3 -2 -8.5 -5.5t-19 -14t-24 -21.5t-19 -25.5t-8.5 -27.5q0 -36 26 -36z" />
    <glyph glyph-name="Idotaccent" unicode="&#x130;" horiz-adv-x="245" 
d="M87 0v667h72v-667h-72zM83 724v80h80v-80h-80z" />
    <glyph glyph-name="dotlessi" unicode="&#x131;" horiz-adv-x="270" 
d="M171 0h-72v499h72v-499z" />
    <glyph glyph-name="Jcircumflex" unicode="&#x134;" horiz-adv-x="447" 
d="M337 845l80 -121h-56l-45 71l-45 -71h-56l80 121h42zM280 667h72v-468q0 -61 -17 -104t-46.5 -64t-60.5 -30t-67 -9q-72 0 -132 35v75q57 -40 123 -40q68 0 98 33.5t30 109.5v462z" />
    <glyph glyph-name="jcircumflex" unicode="&#x135;" horiz-adv-x="251" 
d="M162 684l80 -120h-56l-45 70l-45 -70h-56l80 120h42zM105 -25v524h72v-528q0 -164 -174 -164v67q62 1 82 24.5t20 76.5z" />
    <glyph glyph-name="Kcommaaccent" unicode="&#x136;" horiz-adv-x="632" 
d="M279 355l309 -355h-95l-260 304l-74 -80v-224h-72v667h72v-344l309 344h97zM343 -49q0 -65 -30 -100t-70 -44v54q41 17 41 90h59z" />
    <glyph glyph-name="kcommaaccent" unicode="&#x137;" horiz-adv-x="549" 
d="M273 270l240 -270h-95l-192 219l-62 -67v-152h-72v689h72v-435l225 245h97zM313 -49q0 -65 -30 -100t-71 -44v54q41 16 41 90h60z" />
    <glyph glyph-name="kgreenlandic" unicode="&#x138;" horiz-adv-x="549" 
d="M273 270l240 -270h-95l-192 219l-62 -67v-152h-72v499h72v-245l225 245h97z" />
    <glyph glyph-name="Lacute" unicode="&#x139;" horiz-adv-x="521" 
d="M159 839h74l-83 -115h-48zM159 70h341v-70h-413v667h72v-597z" />
    <glyph glyph-name="lacute" unicode="&#x13a;" horiz-adv-x="270" 
d="M169 839h74l-83 -115h-48zM173 0v689h-72v-689h72z" />
    <glyph glyph-name="Lcommaaccent" unicode="&#x13b;" horiz-adv-x="521" 
d="M331 -49q0 -65 -30 -100t-70 -44v54q40 16 40 90h60zM159 70h341v-70h-413v667h72v-597z" />
    <glyph glyph-name="lcommaaccent" unicode="&#x13c;" horiz-adv-x="270" 
d="M167 -49q0 -65 -30 -100t-71 -44v54q41 16 41 90h60zM173 0h-72v689h72v-689z" />
    <glyph glyph-name="Lcaron" unicode="&#x13d;" horiz-adv-x="521" 
d="M322 667q0 -65 -30 -100t-70 -44v54q41 17 41 90h59zM159 70h341v-70h-413v667h72v-597z" />
    <glyph glyph-name="lcaron" unicode="&#x13e;" horiz-adv-x="270" 
d="M247 689h60q0 -65 -30 -99.5t-70 -43.5v54q40 15 40 89zM101 0h72v689h-72v-689z" />
    <glyph glyph-name="Ldot" unicode="&#x13f;" horiz-adv-x="521" 
d="M353 294v80h79v-80h-79zM159 70h341v-70h-413v667h72v-597z" />
    <glyph glyph-name="ldot" unicode="&#x140;" horiz-adv-x="270" 
d="M232 294v80h80v-80h-80zM173 0h-72v689h72v-689z" />
    <glyph glyph-name="Lslash" unicode="&#x141;" horiz-adv-x="521" 
d="M159 70h341v-70h-413v301l-74 -50v64l74 50v302h72v-254l134 91v-64l-134 -91v-279z" />
    <glyph glyph-name="lslash" unicode="&#x142;" horiz-adv-x="270" 
d="M173 452l78 52v-64l-78 -52v-388h-72v339l-66 -44v64l66 44v286h72v-237z" />
    <glyph glyph-name="Nacute" unicode="&#x143;" horiz-adv-x="728" 
d="M398 839h74l-83 -115h-48zM567 667h72v-667h-81l-399 562v-562h-72v667h82l398 -562v562z" />
    <glyph glyph-name="nacute" unicode="&#x144;" horiz-adv-x="581" 
d="M293 508q94 0 146 -48t52 -135v-325h-72v325q0 21 -4.5 37.5t-17 35t-40.5 28.5t-71 10q-62 0 -132 -20v-416h-72v459q98 49 211 49zM314 679h74l-83 -115h-48z" />
    <glyph glyph-name="Ncommaaccent" unicode="&#x145;" horiz-adv-x="728" 
d="M387 -49q0 -65 -30 -100t-70 -44v54q41 17 41 90h59zM567 667h72v-667h-81l-399 562v-562h-72v667h82l398 -562v562z" />
    <glyph glyph-name="ncommaaccent" unicode="&#x146;" horiz-adv-x="581" 
d="M293 508q94 0 146 -48t52 -135v-325h-72v325q0 21 -4.5 37.5t-17 35t-40.5 28.5t-71 10q-62 0 -132 -20v-416h-72v459q98 49 211 49zM323 -49q0 -65 -30 -100t-70 -44v54q41 17 41 90h59z" />
    <glyph glyph-name="Ncaron" unicode="&#x147;" horiz-adv-x="728" 
d="M351 724l-80 121h56l45 -71l45 71h56l-80 -121h-42zM567 667h72v-667h-81l-399 562v-562h-72v667h82l398 -562v562z" />
    <glyph glyph-name="ncaron" unicode="&#x148;" horiz-adv-x="581" 
d="M293 508q94 0 146 -48t52 -135v-325h-72v325q0 21 -4.5 37.5t-17 35t-40.5 28.5t-71 10q-62 0 -132 -20v-416h-72v459q98 49 211 49zM261 564l-81 120h56l46 -70l45 70h56l-81 -120h-41z" />
    <glyph glyph-name="napostrophe" unicode="&#x149;" horiz-adv-x="581" 
d="M293 508q94 0 146 -48t52 -135v-325h-72v325q0 21 -4.5 37.5t-17 35t-40.5 28.5t-71 10q-62 0 -132 -20v-416h-72v459q98 49 211 49zM133 664q0 -65 -30.5 -100t-70.5 -44v54q41 16 41 90h60z" />
    <glyph glyph-name="Eng" unicode="&#x14a;" horiz-adv-x="728" 
d="M566 667h72v-676q0 -163 -174 -163v67q60 1 80.5 22.5t21.5 70.5l-407 574v-562h-72v667h82l397 -562v562z" />
    <glyph glyph-name="eng" unicode="&#x14b;" horiz-adv-x="581" 
d="M293 508q94 0 146 -48t52 -135v-334q0 -163 -174 -163v67q61 1 81.5 24.5t20.5 76.5v329q0 21 -4.5 37.5t-17 35t-40.5 28.5t-71 10q-62 0 -132 -20v-416h-72v459q98 49 211 49z" />
    <glyph glyph-name="Omacron" unicode="&#x14c;" horiz-adv-x="747" 
d="M370 676q309 0 309 -342t-309 -342t-309 342t309 342zM370 60q123 0 180 66t57 208t-57 208t-180 66t-180 -66t-57 -208t57 -208t180 -66zM253 736v53h234v-53h-234z" />
    <glyph glyph-name="omacron" unicode="&#x14d;" horiz-adv-x="564" 
d="M49 250q0 76 21 129.5t57 80t74 37.5t83 11t82.5 -11t73.5 -37.5t57 -80t21 -129.5t-21 -129.5t-57 -80t-73.5 -37.5t-82.5 -11t-83 11t-74 37.5t-57 80t-21 129.5zM121 250q0 -101 39 -146.5t124 -45.5t123.5 46t38.5 146t-38.5 146t-123.5 46t-124 -45.5t-39 -146.5z
M167 576v53h233v-53h-233z" />
    <glyph glyph-name="Obreve" unicode="&#x14e;" horiz-adv-x="747" 
d="M370 676q309 0 309 -342t-309 -342t-309 342t309 342zM370 59q123 0 180 66t57 209q0 142 -57 208t-180 66t-180 -66t-57 -208q0 -143 57 -209t180 -66zM427 809h48q0 -49 -28 -76.5t-77 -27.5t-77 27.5t-28 76.5h48q0 -29 13.5 -42.5t43.5 -13.5t43.5 13.5t13.5 42.5z
" />
    <glyph glyph-name="obreve" unicode="&#x14f;" horiz-adv-x="564" 
d="M284 508q45 0 82.5 -11t73.5 -37.5t57 -80t21 -129.5t-21 -129.5t-57 -80t-73.5 -37.5t-82.5 -11t-83 11t-74 37.5t-57 80t-21 129.5t21 129.5t57 80t74 37.5t83 11zM284 58q85 0 123.5 45.5t38.5 146.5q0 100 -38.5 145.5t-123.5 45.5q-86 0 -124.5 -45.5t-38.5 -145.5
q0 -101 38.5 -146.5t124.5 -45.5zM341 649h48q0 -49 -28 -76.5t-77 -27.5t-77 27.5t-28 76.5h48q0 -29 13.5 -42.5t43.5 -13.5q57 0 57 56z" />
    <glyph glyph-name="Ohungarumlaut" unicode="&#x150;" horiz-adv-x="747" 
d="M370 676q309 0 309 -342t-309 -342t-309 342t309 342zM370 60q123 0 180 66t57 208t-57 208t-180 66t-180 -66t-57 -208t57 -208t180 -66zM452 839h74l-83 -115h-48zM332 839h74l-83 -115h-48z" />
    <glyph glyph-name="ohungarumlaut" unicode="&#x151;" horiz-adv-x="564" 
d="M284 508q45 0 82.5 -11t73.5 -37.5t57 -80t21 -129.5t-21 -129.5t-57 -80t-73.5 -37.5t-82.5 -11t-83 11t-74 37.5t-57 80t-21 129.5t21 129.5t57 80t74 37.5t83 11zM284 58q85 0 123.5 46t38.5 146t-38.5 146t-123.5 46t-124 -45.5t-39 -146.5t39 -146.5t124 -45.5z
M364 679h74l-83 -115h-47zM245 679h74l-84 -115h-47z" />
    <glyph glyph-name="OE" unicode="&#x152;" horiz-adv-x="991" 
d="M925 599h-350v-230h307v-70h-307v-231h350v-68h-422v13q-57 -21 -134 -21q-309 0 -309 342t309 342q78 0 134 -22v13h422v-68zM369 60q83 0 134 29v490q-53 29 -134 29q-123 0 -180 -66t-57 -208t57 -208t180 -66z" />
    <glyph glyph-name="oe" unicode="&#x153;" horiz-adv-x="938" 
d="M662 508q46 0 83 -14.5t59.5 -34t38.5 -51t23 -53.5t11 -53t4 -38.5v-21.5l-1 -35h-364q7 -75 46 -109t116 -34q107 0 171 37v-74q-73 -35 -178 -35q-135 0 -192 93q-58 -93 -195 -93q-45 0 -82.5 11t-73.5 37.5t-57 80t-21 129.5t21 129.5t57 80t73.5 37.5t82.5 11
q136 0 194 -91q55 91 184 91zM284 58q85 0 124 45.5t39 146.5t-39 146.5t-124 45.5t-123.5 -45.5t-38.5 -146.5t38.5 -146.5t123.5 -45.5zM515 271h293q0 16 -4 37.5t-17 54.5t-45.5 55t-79.5 22q-74 0 -108 -38.5t-39 -130.5z" />
    <glyph glyph-name="Racute" unicode="&#x154;" horiz-adv-x="621" 
d="M314 839h74l-83 -115h-48zM405 280l183 -280h-85l-174 269h-170v-269h-72v667h245q109 0 167.5 -49.5t58.5 -144.5q0 -43 -13.5 -78t-31 -54.5t-41.5 -34t-39 -19t-28 -7.5zM328 337q50 0 83.5 11.5t48.5 32t20.5 40.5t5.5 47t-5.5 47t-20.5 40.5t-48.5 32t-83.5 11.5
h-169v-262h169z" />
    <glyph glyph-name="racute" unicode="&#x155;" horiz-adv-x="343" 
d="M231 679h74l-83 -115h-47zM323 430q-84 -2 -170 -26v-404h-72v451q113 48 242 48v-69z" />
    <glyph glyph-name="Rcommaaccent" unicode="&#x156;" horiz-adv-x="621" 
d="M358 -49q0 -65 -30 -100t-70 -44v54q41 17 41 90h59zM405 280l183 -280h-85l-174 269h-170v-269h-72v667h245q109 0 167.5 -49.5t58.5 -144.5q0 -43 -13.5 -78t-31 -54.5t-41.5 -34t-39 -19t-28 -7.5zM328 337q50 0 83.5 11.5t48.5 32t20.5 40.5t5.5 47t-5.5 47
t-20.5 40.5t-48.5 32t-83.5 11.5h-169v-262h169z" />
    <glyph glyph-name="rcommaaccent" unicode="&#x157;" horiz-adv-x="343" 
d="M146 -49q0 -65 -30 -100t-70 -44v54q41 17 41 90h59zM323 430q-84 -2 -170 -26v-404h-72v451q113 48 242 48v-69z" />
    <glyph glyph-name="Rcaron" unicode="&#x158;" horiz-adv-x="621" 
d="M273 724l-80 121h56l45 -71l45 71h56l-81 -121h-41zM405 280l183 -280h-85l-174 269h-170v-269h-72v667h245q109 0 167.5 -49.5t58.5 -144.5q0 -43 -13.5 -78t-31 -54.5t-41.5 -34t-39 -19t-28 -7.5zM328 337q50 0 83.5 11.5t48.5 32t20.5 40.5t5.5 47t-5.5 47
t-20.5 40.5t-48.5 32t-83.5 11.5h-169v-262h169z" />
    <glyph glyph-name="rcaron" unicode="&#x159;" horiz-adv-x="343" 
d="M174 564l-80 120h56l45 -70l45 70h56l-81 -120h-41zM323 430q-84 -2 -170 -26v-404h-72v451q113 48 242 48v-69z" />
    <glyph glyph-name="Sacute" unicode="&#x15a;" horiz-adv-x="562" 
d="M303 839h74l-83 -114h-48zM133 490q0 -34 27.5 -57t68 -34t88.5 -28t88.5 -37t68 -62t27.5 -102q0 -83 -63 -130.5t-175 -47.5q-108 0 -196 47v78q79 -53 191 -53q171 0 171 106q0 45 -27.5 75.5t-68 44.5t-88.5 29.5t-88.5 31.5t-68 51.5t-27.5 87.5q0 77 56 131.5
t173 54.5q86 0 168 -40v-74q-76 42 -160 42q-80 0 -122.5 -29.5t-42.5 -84.5z" />
    <glyph glyph-name="sacute" unicode="&#x15b;" horiz-adv-x="426" 
d="M239 679h74l-83 -115h-48zM121 363q0 -26 27.5 -42t66.5 -26.5t78.5 -25t67 -49.5t27.5 -89q0 -65 -48.5 -102t-133.5 -37q-84 0 -152 38v76q72 -44 148 -44q114 0 114 69q0 37 -27.5 58t-67 31.5t-78.5 23t-66.5 42t-27.5 77.5q0 60 43 102.5t133 42.5q66 0 128 -31v-72
q-55 34 -120 34q-112 0 -112 -76z" />
    <glyph glyph-name="Scircumflex" unicode="&#x15c;" horiz-adv-x="562" 
d="M307 845l80 -120h-56l-45 70l-45 -70h-56l80 120h42zM133 490q0 -34 27.5 -57t68 -34t88.5 -28t88.5 -37t68 -62t27.5 -102q0 -83 -63 -130.5t-175 -47.5q-108 0 -196 47v78q79 -53 191 -53q171 0 171 106q0 45 -27.5 75.5t-68 44.5t-88.5 29.5t-88.5 31.5t-68 51.5
t-27.5 87.5q0 77 56 131.5t173 54.5q86 0 168 -40v-74q-76 42 -160 42q-80 0 -122.5 -29.5t-42.5 -84.5z" />
    <glyph glyph-name="scircumflex" unicode="&#x15d;" horiz-adv-x="426" 
d="M242 684l80 -120h-56l-45 71l-45 -71h-56l80 120h42zM121 363q0 -26 27.5 -42t66.5 -26.5t78.5 -25t67 -49.5t27.5 -89q0 -65 -48.5 -102t-133.5 -37q-84 0 -152 38v76q72 -44 148 -44q114 0 114 69q0 37 -27.5 58t-67 31.5t-78.5 23t-66.5 42t-27.5 77.5q0 60 43 102.5
t133 42.5q66 0 128 -31v-72q-55 34 -120 34q-112 0 -112 -76z" />
    <glyph glyph-name="Scedilla" unicode="&#x15e;" horiz-adv-x="562" 
d="M133 490q0 -34 27.5 -57t68 -34t88.5 -28t88.5 -37t68 -62t27.5 -102q0 -76 -52 -122t-146 -54l-61 -113h-76l79 111q-101 4 -178 47v78q79 -53 191 -53q171 0 171 106q0 45 -27.5 75.5t-68 44.5t-88.5 29.5t-88.5 31.5t-68 51.5t-27.5 87.5q0 77 56 131.5t173 54.5
q86 0 168 -40v-74q-76 42 -160 42q-80 0 -122.5 -29.5t-42.5 -84.5z" />
    <glyph glyph-name="scedilla" unicode="&#x15f;" horiz-adv-x="426" 
d="M388 131q0 -58 -38.5 -94t-108.5 -43l-62 -113h-76l80 112q-70 4 -129 37v76q72 -44 148 -44q114 0 114 69q0 37 -27.5 58t-67 31.5t-78.5 23t-66.5 42t-27.5 77.5q0 60 43 102.5t133 42.5q66 0 128 -31v-72q-55 34 -120 34q-112 0 -112 -76q0 -26 27.5 -42t66.5 -26.5
t78.5 -25t67 -49.5t27.5 -89z" />
    <glyph glyph-name="Scaron" unicode="&#x160;" horiz-adv-x="562" 
d="M265 725l-80 120h56l45 -71l45 71h56l-80 -120h-42zM133 490q0 -34 27.5 -57t68 -34t88.5 -28t88.5 -37t68 -62t27.5 -102q0 -83 -63 -130.5t-175 -47.5q-108 0 -196 47v78q79 -53 191 -53q171 0 171 106q0 45 -27.5 75.5t-68 44.5t-88.5 29.5t-88.5 31.5t-68 51.5
t-27.5 87.5q0 77 56 131.5t173 54.5q86 0 168 -40v-74q-76 42 -160 42q-80 0 -122.5 -29.5t-42.5 -84.5z" />
    <glyph glyph-name="scaron" unicode="&#x161;" horiz-adv-x="426" 
d="M200 564l-80 120h56l45 -70l45 70h56l-80 -120h-42zM121 363q0 -26 27.5 -42t66.5 -26.5t78.5 -25t67 -49.5t27.5 -89q0 -65 -48.5 -102t-133.5 -37q-84 0 -152 38v76q72 -44 148 -44q114 0 114 69q0 37 -27.5 58t-67 31.5t-78.5 23t-66.5 42t-27.5 77.5q0 60 43 102.5
t133 42.5q66 0 128 -31v-72q-55 34 -120 34q-112 0 -112 -76z" />
    <glyph glyph-name="Tcommaaccent" unicode="&#x162;" horiz-adv-x="568" 
d="M313 -49q0 -65 -30 -100t-70 -44v54q41 17 41 90h59zM12 667h543v-70h-235v-597h-72v597h-236v70z" />
    <glyph glyph-name="tcommaaccent" unicode="&#x163;" horiz-adv-x="345" 
d="M183 433v-304q0 -38 16 -53.5t56 -15.5q33 0 57 12v-68q-33 -12 -66 -12q-20 0 -39 4.5t-43 17.5t-38.5 43.5t-14.5 75.5v300h-87v66h87v141h72v-141h129v-66h-129zM255 -49q0 -65 -30 -100t-70 -44v54q41 17 41 90h59z" />
    <glyph glyph-name="Tcaron" unicode="&#x164;" horiz-adv-x="568" 
d="M263 724l-81 121h56l46 -71l45 71h56l-81 -121h-41zM12 667h543v-70h-235v-597h-72v597h-236v70z" />
    <glyph glyph-name="tcaron" unicode="&#x165;" horiz-adv-x="345" 
d="M183 433v-304q0 -38 16 -53.5t56 -15.5q33 0 57 12v-68q-33 -12 -66 -12q-20 0 -39 4.5t-43 17.5t-38.5 43.5t-14.5 75.5v300h-87v66h87v141h72v-141h129v-66h-129zM362 712q0 -65 -30 -100t-70 -44v54q41 17 41 90h59z" />
    <glyph glyph-name="Tbar" unicode="&#x166;" horiz-adv-x="568" 
d="M555 597h-235v-232h140v-61h-140v-304h-72v304h-141v61h141v232h-236v70h543v-70z" />
    <glyph glyph-name="tbar" unicode="&#x167;" horiz-adv-x="345" 
d="M312 433h-129v-129h114v-60h-114v-115q0 -38 16 -53.5t56 -15.5q33 0 57 12v-68q-33 -12 -66 -12q-20 0 -39 4.5t-43 17.5t-38.5 43.5t-14.5 75.5v111h-74v60h74v129h-87v66h87v141h72v-141h129v-66z" />
    <glyph glyph-name="Utilde" unicode="&#x168;" horiz-adv-x="721" 
d="M557 667h72v-393q0 -137 -70 -210t-201 -73t-201 73t-70 210v393h72v-397q0 -213 199 -213t199 213v397zM499 745q-26 -32 -56 -35.5t-57.5 11l-55 29t-57.5 11t-56 -35.5v57q26 32 56 35t57.5 -11.5l55 -29t57.5 -11.5t56 35v-55z" />
    <glyph glyph-name="utilde" unicode="&#x169;" horiz-adv-x="587" 
d="M435 585q-26 -32 -56 -35.5t-57.5 11l-55 29t-57.5 11t-56 -35.5v57q26 32 56 35t57.5 -11.5l55 -29t57.5 -11.5t56 35v-55zM428 499h72v-290q0 -104 -54.5 -161t-154.5 -57t-154.5 57t-54.5 161v290h72v-293q0 -76 33.5 -112t103.5 -36t103.5 36t33.5 112v293z" />
    <glyph glyph-name="Umacron" unicode="&#x16a;" horiz-adv-x="721" 
d="M241 736v53h234v-53h-234zM557 667h72v-393q0 -137 -70 -209.5t-201 -72.5t-201 72.5t-70 209.5v393h72v-397q0 -212 199 -212t199 212v397z" />
    <glyph glyph-name="umacron" unicode="&#x16b;" horiz-adv-x="587" 
d="M428 499h72v-289q0 -104 -54.5 -161t-154.5 -57t-154.5 57t-54.5 161v289h72v-293q0 -76 33 -111.5t104 -35.5q70 0 103.5 35.5t33.5 111.5v293zM174 576v53h234v-53h-234z" />
    <glyph glyph-name="Ubreve" unicode="&#x16c;" horiz-adv-x="721" 
d="M415 809h48q0 -49 -28 -76.5t-77 -27.5t-77 27.5t-28 76.5h48q0 -29 13.5 -42.5t43.5 -13.5t43.5 13.5t13.5 42.5zM557 667h72v-393q0 -137 -70 -209.5t-201 -72.5t-201 72.5t-70 209.5v393h72v-397q0 -212 199 -212t199 212v397z" />
    <glyph glyph-name="ubreve" unicode="&#x16d;" horiz-adv-x="587" 
d="M428 499h72v-289q0 -104 -54.5 -161t-154.5 -57t-154.5 57t-54.5 161v289h72v-293q0 -76 33 -111.5t104 -35.5q70 0 103.5 35.5t33.5 111.5v293zM348 649h48q0 -49 -28 -76.5t-77 -27.5t-77 27.5t-28 76.5h48q0 -30 13.5 -43t43.5 -13t43.5 13t13.5 43z" />
    <glyph glyph-name="Uring" unicode="&#x16e;" horiz-adv-x="721" 
d="M358 859q39 0 60 -21t21 -61t-21 -61t-60 -21t-60 21t-21 61t21 61t60 21zM358 729q24 0 34.5 11t10.5 37t-10.5 37.5t-34.5 11.5t-34.5 -11.5t-10.5 -37.5t10.5 -37t34.5 -11zM557 667h72v-393q0 -137 -70 -209.5t-201 -72.5t-201 72.5t-70 209.5v393h72v-397
q0 -212 199 -212t199 212v397z" />
    <glyph glyph-name="uring" unicode="&#x16f;" horiz-adv-x="587" 
d="M428 499h72v-289q0 -104 -54.5 -161t-154.5 -57t-154.5 57t-54.5 161v289h72v-293q0 -76 33 -111.5t104 -35.5q70 0 103.5 35.5t33.5 111.5v293zM291 699q39 0 60 -21t21 -61t-21 -61t-60 -21t-60 21t-21 61t21 61t60 21zM291 568q24 0 34.5 11.5t10.5 37.5t-10.5 37
t-34.5 11q-25 0 -35 -11t-10 -37t10 -37.5t35 -11.5z" />
    <glyph glyph-name="Uhungarumlaut" unicode="&#x170;" horiz-adv-x="721" 
d="M445 839h74l-83 -115h-47zM326 839h74l-83 -115h-48zM557 667h72v-393q0 -137 -70 -209.5t-201 -72.5t-201 72.5t-70 209.5v393h72v-397q0 -212 199 -212t199 212v397z" />
    <glyph glyph-name="uhungarumlaut" unicode="&#x171;" horiz-adv-x="587" 
d="M428 499h72v-289q0 -104 -54.5 -161t-154.5 -57t-154.5 57t-54.5 161v289h72v-293q0 -76 33 -111.5t104 -35.5q70 0 103.5 35.5t33.5 111.5v293zM381 679h74l-83 -115h-48zM261 679h74l-83 -115h-48z" />
    <glyph glyph-name="Uogonek" unicode="&#x172;" horiz-adv-x="721" 
d="M557 667h71v-393q0 -120 -53.5 -190.5t-155.5 -87.5q-13 -8 -27.5 -19.5t-30.5 -32t-16 -38.5q0 -35 26 -35q21 0 44 30h31q-7 -32 -34.5 -53t-68.5 -21q-66 0 -66 64q0 52 73 101q-127 2 -195 75t-68 207v393h72v-397q0 -213 199 -213t199 213v397z" />
    <glyph glyph-name="uogonek" unicode="&#x173;" horiz-adv-x="587" 
d="M428 499h72v-289q0 -88 -39 -142.5t-112 -69.5q-76 -51 -76 -92q0 -35 26 -35q21 0 44 30h31q-7 -32 -34.5 -53t-68.5 -21q-66 0 -66 64q0 50 73 101q-94 4 -145 60.5t-51 157.5v289h72v-293q0 -76 33 -111.5t104 -35.5q70 0 103.5 35.5t33.5 111.5v293z" />
    <glyph glyph-name="Wcircumflex" unicode="&#x174;" horiz-adv-x="951" 
d="M496 845l80 -121h-56l-45 71l-45 -71h-56l81 121h41zM862 667h76l-215 -667h-73l-175 544l-175 -544h-74l-214 667h76l175 -558l176 558h72l175 -558z" />
    <glyph glyph-name="wcircumflex" unicode="&#x175;" horiz-adv-x="736" 
d="M388 684l81 -120h-56l-46 70l-45 -70h-56l81 120h41zM622 499h75l-149 -499h-72l-108 365l-109 -365h-72l-149 499h76l108 -384l111 384h70l110 -384z" />
    <glyph glyph-name="Ycircumflex" unicode="&#x176;" horiz-adv-x="598" 
d="M317 845l81 -121h-56l-45 71l-45 -71h-56l80 121h41zM494 667h87l-248 -361v-306h-72v306l-249 361h87l198 -291z" />
    <glyph glyph-name="ycircumflex" unicode="&#x177;" horiz-adv-x="502" 
d="M272 684l80 -120h-56l-45 70l-45 -70h-56l80 120h42zM394 499h77l-204 -548q-53 -144 -156 -144q-25 0 -48 9v66q20 -9 43 -9q31 0 58 33.5t39 67.5l12 34l-184 491h77l143 -395z" />
    <glyph glyph-name="Ydieresis" unicode="&#x178;" horiz-adv-x="598" 
d="M183 724v80h80v-80h-80zM331 724v80h80v-80h-80zM494 667h87l-248 -361v-306h-72v306l-249 361h87l198 -291z" />
    <glyph glyph-name="Zacute" unicode="&#x179;" horiz-adv-x="609" 
d="M330 839h74l-83 -115h-48zM539 667v-61l-383 -534h383v-72h-475v63l381 532h-371v72h465z" />
    <glyph glyph-name="zacute" unicode="&#x17a;" horiz-adv-x="464" 
d="M262 679h74l-83 -115h-48zM410 499v-63l-274 -364h274v-72h-365v65l272 362h-265v72h358z" />
    <glyph glyph-name="Zdotaccent" unicode="&#x17b;" horiz-adv-x="609" 
d="M262 724v80h80v-80h-80zM539 667v-61l-383 -534h383v-72h-475v63l381 532h-371v72h465z" />
    <glyph glyph-name="zdotaccent" unicode="&#x17c;" horiz-adv-x="464" 
d="M196 564v79h79v-79h-79zM410 499v-63l-274 -364h274v-72h-365v65l272 362h-265v72h358z" />
    <glyph glyph-name="Zcaron" unicode="&#x17d;" horiz-adv-x="609" 
d="M293 724l-81 121h56l45 -71l46 71h56l-81 -121h-41zM539 667v-61l-383 -534h383v-72h-475v63l381 532h-371v72h465z" />
    <glyph glyph-name="zcaron" unicode="&#x17e;" horiz-adv-x="464" 
d="M217 564l-81 120h56l45 -70l45 70h56l-80 -120h-41zM410 499v-63l-274 -364h274v-72h-365v65l272 362h-265v72h358z" />
    <glyph glyph-name="florin" unicode="&#x192;" horiz-adv-x="330" 
d="M201 499h121v-66h-121v-372q0 -52 -13.5 -89t-30.5 -54.5t-43.5 -27.5t-40.5 -11t-33 -1q-21 0 -30 2v65q5 -1 18 -1q24 0 36.5 2t31 12t27 35.5t8.5 66.5v373h-87v66h87v9q0 52 13.5 89t30.5 54.5t43.5 27.5t40.5 11t33 1q12 0 30 -2v-65q-3 0 -9 0.5t-9 0.5
q-24 0 -36.5 -2t-31 -12t-27 -35.5t-8.5 -66.5v-10z" />
    <glyph glyph-name="Ohorn" unicode="&#x1a0;" horiz-adv-x="776" 
d="M805 607l-83 -53q-45 -28 -75 -36q33 -74 33 -184q0 -342 -310 -342q-309 0 -309 342t309 342q182 0 257 -119q33 7 69 32l-32 49l86 54zM370 60q124 0 181 66t57 208t-57 208t-181 66q-123 0 -180 -66t-57 -208t57 -208t180 -66z" />
    <glyph glyph-name="ohorn" unicode="&#x1a1;" horiz-adv-x="667" 
d="M673 437l-83 -53q-47 -29 -83 -37q11 -44 11 -97q0 -76 -21 -129.5t-57 -80t-74 -37.5t-83 -11t-82.5 11t-73.5 37.5t-57 80t-21 129.5t21 129.5t57 80t73.5 37.5t82.5 11q159 0 211 -121q30 5 70 32l-32 49l86 55zM283 58q85 0 124 45.5t39 146.5t-39 146.5t-124 45.5
t-123.5 -46t-38.5 -146t38.5 -146t123.5 -46z" />
    <glyph glyph-name="Uhorn" unicode="&#x1af;" horiz-adv-x="792" 
d="M769 702l55 -85l-83 -53q-64 -41 -112 -41v-249q0 -137 -70 -209.5t-201 -72.5t-201 72.5t-70 209.5v393h72v-397q0 -212 199 -212t199 212v397h72v-102q36 0 86 34l-32 49z" />
    <glyph glyph-name="uhorn" unicode="&#x1b0;" horiz-adv-x="690" 
d="M641 534l54 -86l-83 -53q-63 -41 -112 -41v-145q0 -104 -54.5 -161t-154.5 -57t-154.5 57t-54.5 161v290h72v-293q0 -76 33.5 -112t103.5 -36t103.5 36t33.5 112v293h72v-103q39 2 86 34l-31 49z" />
    <glyph glyph-name="Acaron" unicode="&#x1cd;" 
d="M359 667l265 -667h-77l-80 208h-288l-80 -208h-78l266 667h72zM206 277h234l-117 305zM302 724l-80 121h56l45 -71l45 71h56l-80 -121h-42z" />
    <glyph glyph-name="acaron" unicode="&#x1ce;" horiz-adv-x="534" 
d="M255 508q105 0 160 -53t55 -154v-151q0 -48 -22 -82t-57 -49t-65.5 -21t-60.5 -6q-23 0 -47 3t-54.5 13.5t-53 27t-38.5 47t-16 70.5q0 34 12.5 61t30.5 44t46 29t49.5 17.5t51 8.5t42 3.5t29.5 0.5l80 -5q0 67 -37 95.5t-109 28.5q-81 0 -146 -24v70q74 26 150 26z
M398 150v96q-33 6 -89 6q-181 0 -181 -99q0 -94 137 -94q133 0 133 91zM257 564l-80 120h56l45 -70l45 70h56l-80 -120h-42z" />
    <glyph glyph-name="Ucaron" unicode="&#x1d3;" horiz-adv-x="721" 
d="M337 724l-80 121h56l45 -71l45 71h56l-80 -121h-42zM557 667h72v-393q0 -137 -70 -209.5t-201 -72.5t-201 72.5t-70 209.5v393h72v-397q0 -212 199 -212t199 212v397z" />
    <glyph glyph-name="ucaron" unicode="&#x1d4;" horiz-adv-x="587" 
d="M428 499h72v-289q0 -104 -54.5 -161t-154.5 -57t-154.5 57t-54.5 161v289h72v-293q0 -76 33 -111.5t104 -35.5q70 0 103.5 35.5t33.5 111.5v293zM270 564l-80 120h56l45 -70l45 70h56l-81 -120h-41z" />
    <glyph glyph-name="Gcaron" unicode="&#x1e6;" horiz-adv-x="677" 
d="M335 724l-80 120h56l45 -70l45 70h56l-80 -120h-42zM370 293v70h233v-320q-109 -51 -233 -51q-309 0 -309 342t309 342q107 0 210 -42v-70q-97 43 -202 43q-127 0 -186 -66t-59 -207q0 -142 59 -207.5t186 -65.5q80 0 153 24v208h-161z" />
    <glyph glyph-name="gcaron" unicode="&#x1e7;" horiz-adv-x="538" 
d="M259 564l-81 120h56l45 -70l45 70h56l-80 -120h-41zM272 508q64 0 107.5 -18t61 -46t23.5 -48.5t6 -40.5v-376q0 -33 -9.5 -61t-31.5 -54.5t-67 -41.5t-109 -15q-70 0 -142 18v68q58 -18 134 -18q48 0 80.5 8.5t47 24.5t20 31.5t5.5 37.5v50q-56 -18 -117 -18
q-33 0 -62 5.5t-59 22t-51.5 43t-35 70.5t-13.5 102q0 78 21 132.5t56.5 79.5t67.5 34.5t67 9.5zM398 99v259q0 84 -126 84q-27 0 -48 -6.5t-44 -24.5t-35.5 -58.5t-12.5 -100.5q0 -56 12 -92.5t35 -54t46.5 -23.5t55.5 -6q60 0 117 23z" />
    <glyph glyph-name="Gacute" unicode="&#x1f4;" horiz-adv-x="677" 
d="M389 839h74l-83 -115h-48zM370 293v70h233v-320q-109 -51 -233 -51q-309 0 -309 342t309 342q107 0 210 -42v-70q-97 43 -202 43q-127 0 -186 -66t-59 -207q0 -142 59 -207.5t186 -65.5q80 0 153 24v208h-161z" />
    <glyph glyph-name="AEacute" unicode="&#x1fc;" horiz-adv-x="947" 
d="M548 839h74l-83 -115h-48zM549 597v-229h296v-70h-296v-228h337v-70h-409v209h-246l-122 -209h-84l396 667h465v-70h-337zM477 281v314h-21l-184 -314h205z" />
    <glyph glyph-name="aeacute" unicode="&#x1fd;" horiz-adv-x="891" 
d="M613 508q46 0 83.5 -14.5t59.5 -34t38.5 -51t23.5 -53.5t11 -53t4 -38.5v-21.5l-1 -35h-364q7 -75 46 -109t116 -34q107 0 171 37v-74q-75 -35 -179 -35q-119 0 -178 74q-51 -74 -181 -74q-30 0 -61 6t-67 21t-58.5 49.5t-22.5 83.5q0 34 12.5 61.5t30.5 44t45.5 29
t49.5 18t51.5 8.5t41.5 3.5t29 0.5q20 0 40.5 -1.5t30.5 -3.5l10 -1q0 68 -37 96.5t-109 28.5q-81 0 -146 -24v70q74 26 150 26q131 0 183 -82q55 82 177 82zM396 150v95q-33 7 -89 7q-181 0 -181 -99q0 -94 137 -94q133 0 133 91zM467 271h292q0 17 -4 38t-16.5 54t-45 55
t-80.5 22q-73 0 -107 -38.5t-39 -130.5zM476 679h73l-83 -115h-47z" />
    <glyph glyph-name="Oslashacute" unicode="&#x1fe;" horiz-adv-x="747" 
d="M465 839l-83 -115h-47l56 115h74zM690 667l-77 -92q66 -84 66 -241q0 -343 -309 -343q-125 0 -201 58l-41 -49h-79l78 92q-67 85 -67 242q0 170 78 256t232 86q124 0 200 -58l41 49h79zM132 334q0 -121 42 -187l351 418q-56 43 -155 43q-123 0 -180.5 -66t-57.5 -208z
M370 59q123 0 180 66t57 209q0 122 -41 186l-352 -418q56 -43 156 -43z" />
    <glyph glyph-name="oslashacute" unicode="&#x1ff;" horiz-adv-x="564" 
d="M316 679h74l-83 -115h-48zM455 499h78l-62 -73q47 -63 47 -176q0 -76 -21 -129.5t-57 -80t-73.5 -37.5t-82.5 -11q-89 0 -145 39l-27 -31h-78l62 74q-47 65 -47 176q0 76 21 129.5t57 80t74 37.5t83 11q88 0 145 -40zM121 250q0 -77 22 -120l242 286q-38 26 -101 26
q-85 0 -124 -45.5t-39 -146.5zM446 250q0 76 -22 120l-241 -287q37 -25 101 -25q85 0 123.5 45.5t38.5 146.5z" />
    <glyph glyph-name="Scommaaccent" unicode="&#x218;" horiz-adv-x="562" 
d="M318 -49q0 -65 -29.5 -99.5t-70.5 -44.5v55q40 15 40 89h60zM133 490q0 -34 27.5 -57t68 -34t88.5 -28t88.5 -37t68 -62t27.5 -102q0 -83 -63 -130.5t-175 -47.5q-108 0 -196 47v78q79 -53 191 -53q171 0 171 106q0 45 -27.5 75.5t-68 44.5t-88.5 29.5t-88.5 31.5
t-68 51.5t-27.5 87.5q0 77 56 131.5t173 54.5q86 0 168 -40v-74q-76 42 -160 42q-80 0 -122.5 -29.5t-42.5 -84.5z" />
    <glyph glyph-name="scommaaccent" unicode="&#x219;" horiz-adv-x="426" 
d="M258 -49q0 -65 -29.5 -99.5t-70.5 -44.5v55q41 16 41 89h59zM121 363q0 -26 27.5 -42t66.5 -26.5t78.5 -25t67 -49.5t27.5 -89q0 -65 -48.5 -102t-133.5 -37q-84 0 -152 38v76q72 -44 148 -44q114 0 114 69q0 37 -27.5 58t-67 31.5t-78.5 23t-66.5 42t-27.5 77.5
q0 60 43 102.5t133 42.5q66 0 128 -31v-72q-55 34 -120 34q-112 0 -112 -76z" />
    <glyph glyph-name="uni021A" unicode="&#x21a;" horiz-adv-x="568" 
d="M313 -49q0 -65 -30 -100t-70 -44v54q41 17 41 90h59zM12 667h543v-70h-235v-597h-72v597h-236v70z" />
    <glyph glyph-name="uni021B" unicode="&#x21b;" horiz-adv-x="345" 
d="M183 433v-304q0 -38 16 -53.5t56 -15.5q33 0 57 12v-68q-33 -12 -66 -12q-20 0 -39 4.5t-43 17.5t-38.5 43.5t-14.5 75.5v300h-87v66h87v141h72v-141h129v-66h-129zM255 -49q0 -65 -30 -100t-70 -44v54q41 17 41 90h59z" />
    <glyph glyph-name="Adotaccent" unicode="&#x226;" 
d="M359 667l265 -667h-77l-80 208h-288l-80 -208h-78l266 667h72zM206 277h234l-117 305zM363 804v-80h-80v80h80z" />
    <glyph glyph-name="dotlessj" unicode="&#x237;" horiz-adv-x="251" 
d="M105 -25v524h72v-528q0 -164 -174 -164v67q62 1 82 24.5t20 76.5z" />
    <glyph glyph-name="circumflex" unicode="&#x2c6;" horiz-adv-x="402" 
d="M223 684l80 -120h-56l-45 70l-45 -70h-56l81 120h41z" />
    <glyph glyph-name="caron" unicode="&#x2c7;" horiz-adv-x="406" 
d="M182 564l-81 120h56l45 -70l45 70h56l-80 -120h-41z" />
    <glyph glyph-name="breve" unicode="&#x2d8;" horiz-adv-x="428" 
d="M273 649h48q0 -49 -28 -76.5t-77 -27.5t-77 27.5t-28 76.5h48q0 -30 13.5 -43t43.5 -13t43.5 13t13.5 43z" />
    <glyph glyph-name="dotaccent" unicode="&#x2d9;" horiz-adv-x="323" 
d="M125 564v79h79v-79h-79z" />
    <glyph glyph-name="ring" unicode="&#x2da;" horiz-adv-x="409" 
d="M197 699q39 0 60 -21t21 -61t-21 -61t-60 -21q-81 0 -81 82t81 82zM197 568q24 0 34 11.5t10 37.5t-10 37t-34 11q-25 0 -35 -11t-10 -37t10 -37.5t35 -11.5z" />
    <glyph glyph-name="ogonek" unicode="&#x2db;" horiz-adv-x="347" 
d="M186 -129q22 0 43 30h32q-8 -32 -35.5 -53t-68.5 -21q-65 0 -65 64q0 27 21 54t43 41l21 14h62q-3 -2 -8.5 -5.5t-19 -14t-24 -21.5t-19 -25.5t-8.5 -27.5q0 -35 26 -35z" />
    <glyph glyph-name="tilde" unicode="&#x2dc;" horiz-adv-x="507" 
d="M386 585q-26 -32 -56 -35.5t-57.5 11l-55 29t-57 11t-55.5 -35.5v57q26 32 55.5 35t57 -11.5l55 -29t57.5 -11.5t56 35v-55z" />
    <glyph glyph-name="hungarumlaut" unicode="&#x2dd;" horiz-adv-x="370" 
d="M237 679h74l-83 -115h-48zM117 679h74l-83 -115h-48z" />
    <glyph glyph-name="hookcmb" unicode="&#x309;" horiz-adv-x="0" 
d="M-272 747q38 0 65 -16t27 -52q0 -44 -53 -54v-24h-33v52q19 1 28.5 8t9.5 16q0 26 -48 26q-11 0 -27 -2v43q15 3 31 3z" />
    <glyph glyph-name="horncmb" unicode="&#x31b;" horiz-adv-x="0" 
d="M-193 620l55 -86l-84 -53q-106 -68 -157 -26v40q49 -35 131 21l-31 49z" />
    <glyph glyph-name="dotbelowcmb" unicode="&#x323;" horiz-adv-x="0" 
d="M-189 -50v-79h-79v79h79z" />
    <glyph glyph-name="pi" unicode="&#x3c0;" horiz-adv-x="622" 
d="M589 499v-66h-109v-433h-66v433h-206v-433h-66v433h-109v66h556z" />
    <glyph glyph-name="Fdotaccent" unicode="&#x1e1e;" horiz-adv-x="536" 
d="M87 667h409v-68h-337v-231h296v-70h-296v-298h-72v667zM338 804v-80h-80v80h80z" />
    <glyph glyph-name="Wgrave" unicode="&#x1e80;" horiz-adv-x="951" 
d="M862 667h76l-215 -667h-73l-175 544l-175 -544h-74l-214 667h76l175 -558l176 558h72l175 -558zM434 839l57 -115h-48l-83 115h74z" />
    <glyph glyph-name="wgrave" unicode="&#x1e81;" horiz-adv-x="783" 
d="M114 499l127 -386l115 386h69l116 -386l127 386h76l-166 -499h-73l-114 373l-114 -373h-73l-166 499h76zM276 679h74l57 -115h-47z" />
    <glyph glyph-name="Wacute" unicode="&#x1e82;" horiz-adv-x="951" 
d="M862 667h76l-215 -667h-73l-175 544l-175 -544h-74l-214 667h76l175 -558l176 558h72l175 -558zM516 839h74l-83 -115h-47z" />
    <glyph glyph-name="wacute" unicode="&#x1e83;" horiz-adv-x="783" 
d="M668 499h76l-166 -499h-73l-114 373l-114 -373h-73l-166 499h76l127 -386l115 386h69l116 -386zM506 679l-84 -115h-47l57 115h74z" />
    <glyph glyph-name="Wdieresis" unicode="&#x1e84;" horiz-adv-x="951" 
d="M361 724v80h80v-80h-80zM509 724v80h80v-80h-80zM862 667h76l-215 -667h-73l-175 544l-175 -544h-74l-214 667h76l175 -558l176 558h72l175 -558z" />
    <glyph glyph-name="wdieresis" unicode="&#x1e85;" horiz-adv-x="783" 
d="M114 499h-76l166 -499h73l114 373l114 -373h73l166 499h-76l-127 -386l-116 386h-69l-115 -386zM504 643v-79h-79v79h79zM356 643v-79h-79v79h79z" />
    <glyph glyph-name="Adotbelow" unicode="&#x1ea0;" 
d="M362 -50v-79h-79v79h79zM359 667l265 -667h-77l-80 208h-288l-80 -208h-78l266 667h72zM206 277h234l-117 305z" />
    <glyph glyph-name="adotbelow" unicode="&#x1ea1;" horiz-adv-x="534" 
d="M320 -50v-79h-79v79h79zM255 508q105 0 160 -53t55 -154v-151q0 -48 -22 -82t-57 -49t-65.5 -21t-60.5 -6q-23 0 -47 3t-54.5 13.5t-53 27t-38.5 47t-16 70.5q0 34 12.5 61t30.5 44t45.5 29t49.5 17.5t51.5 8.5t41.5 3.5t29 0.5l81 -5q0 67 -37 95.5t-109 28.5
q-73 0 -146 -23v69q69 26 150 26zM398 150v96q-33 6 -89 6q-181 0 -181 -98q0 -95 137 -95q133 0 133 91z" />
    <glyph glyph-name="Ahookabove" unicode="&#x1ea2;" 
d="M302 870q38 0 65 -16t27 -52q0 -45 -53 -54v-24h-33v52q19 1 28 8t9 15q0 27 -47 27q-15 0 -27 -3v44q27 3 31 3zM359 667l265 -667h-77l-80 208h-288l-80 -208h-78l266 667h72zM206 277h234l-117 305z" />
    <glyph glyph-name="ahookabove" unicode="&#x1ea3;" horiz-adv-x="534" 
d="M243 710q38 0 65 -16t27 -52q0 -45 -52 -54v-24h-34v52q19 1 28.5 8t9.5 15q0 27 -48 27q-15 0 -27 -3v44q30 3 31 3zM255 508q105 0 160 -53t55 -154v-151q0 -48 -22 -82t-57 -49t-65.5 -21t-60.5 -6q-23 0 -47 3t-54.5 13.5t-53 27t-38.5 47t-16 70.5q0 34 12.5 61
t30.5 44t45.5 29t49.5 17.5t51.5 8.5t41.5 3.5t29 0.5l81 -5q0 67 -37 95.5t-109 28.5q-73 0 -146 -23v69q69 26 150 26zM398 150v96q-33 6 -89 6q-181 0 -181 -98q0 -95 137 -95q133 0 133 91z" />
    <glyph glyph-name="Acircumflexacute" unicode="&#x1ea4;" 
d="M323 777l-46 -70h-56l81 120h41l81 -120h-56zM515 913l-83 -115h-48l57 115h74zM359 667l265 -667h-77l-80 208h-288l-80 -208h-78l266 667h72zM206 277h234l-117 305z" />
    <glyph glyph-name="acircumflexacute" unicode="&#x1ea5;" horiz-adv-x="534" 
d="M255 508q105 0 160 -53t55 -154v-151q0 -48 -22 -82t-57 -49t-65.5 -21t-60.5 -6q-23 0 -47 3t-54.5 13.5t-53 27t-38.5 47t-16 70.5q0 34 12.5 61t30.5 44t45.5 29t49.5 17.5t51.5 8.5t41.5 3.5t29 0.5l81 -5q0 67 -37 95.5t-109 28.5q-73 0 -146 -23v69q69 26 150 26z
M398 150v96q-33 6 -89 6q-181 0 -181 -98q0 -95 137 -95q133 0 133 91zM278 617l-46 -70h-56l81 120h41l81 -120h-56zM470 753l-83 -115h-48l57 115h74z" />
    <glyph glyph-name="Acircumflexgrave" unicode="&#x1ea6;" 
d="M322 777l-45 -70h-56l81 120h41l81 -120h-56zM130 913h74l57 -115h-48zM359 667l265 -667h-77l-80 208h-288l-80 -208h-78l266 667h72zM206 277h234l-117 305z" />
    <glyph glyph-name="acircumflexgrave" unicode="&#x1ea7;" horiz-adv-x="534" 
d="M255 508q105 0 160 -53t55 -154v-151q0 -48 -22 -82t-57 -49t-65.5 -21t-60.5 -6q-23 0 -47 3t-54.5 13.5t-53 27t-38.5 47t-16 70.5q0 34 12.5 61t30.5 44t45.5 29t49.5 17.5t51.5 8.5t41.5 3.5t29 0.5l81 -5q0 67 -37 95.5t-109 28.5q-73 0 -146 -23v69q69 26 150 26z
M398 150v96q-33 6 -89 6q-181 0 -181 -98q0 -95 137 -95q133 0 133 91zM277 617l-45 -70h-56l81 120h41l81 -120h-56zM85 753h74l57 -115h-48z" />
    <glyph glyph-name="Acircumflexhookabove" unicode="&#x1ea8;" 
d="M323 777l-46 -70h-56l81 120h41l81 -120h-56zM394 932q38 0 65 -16t27 -52q0 -45 -53 -54v-24h-33v52q19 1 28 8t9 15q0 27 -47 27q-15 0 -27 -3v44q27 3 31 3zM359 667l265 -667h-77l-80 208h-288l-80 -208h-78l266 667h72zM206 277h234l-117 305z" />
    <glyph glyph-name="acircumflexhookabove" unicode="&#x1ea9;" horiz-adv-x="534" 
d="M255 508q105 0 160 -53t55 -154v-151q0 -48 -22 -82t-57 -49t-65.5 -21t-60.5 -6q-23 0 -47 3t-54.5 13.5t-53 27t-38.5 47t-16 70.5q0 34 12.5 61t30.5 44t45.5 29t49.5 17.5t51.5 8.5t41.5 3.5t29 0.5l81 -5q0 67 -37 95.5t-109 28.5q-73 0 -146 -23v69q69 26 150 26z
M398 150v96q-33 6 -89 6q-181 0 -181 -98q0 -95 137 -95q133 0 133 91zM278 617l-46 -70h-56l81 120h41l81 -120h-56zM348 772q38 0 65 -16t27 -52q0 -45 -53 -54v-24h-33v52q19 1 28.5 8t9.5 15q0 27 -48 27q-11 0 -27 -2v43q30 3 31 3z" />
    <glyph glyph-name="Acircumflextilde" unicode="&#x1eaa;" 
d="M466 872q-26 -32 -56 -35.5t-57.5 11l-55 29t-57.5 11t-56 -35.5v57q26 32 56 35t57.5 -11.5l55 -29t57.5 -11.5t56 35v-55zM322 771l-46 -70h-56l81 120h41l81 -120h-56zM359 667l265 -667h-77l-80 208h-288l-80 -208h-78l266 667h72zM206 277h234l-117 305z" />
    <glyph glyph-name="acircumflextilde" unicode="&#x1eab;" horiz-adv-x="534" 
d="M422 712q-26 -32 -56 -35.5t-57.5 11l-55 29t-57 11t-55.5 -35.5v57q26 32 55.5 35t57 -11.5l55 -29t57.5 -11.5t56 35v-55zM278 611l-46 -70h-56l81 120h41l81 -120h-56zM255 508q105 0 160 -53t55 -154v-151q0 -48 -22 -82t-57 -49t-65.5 -21t-60.5 -6q-23 0 -47 3
t-54.5 13.5t-53 27t-38.5 47t-16 70.5q0 34 12.5 61t30.5 44t45.5 29t49.5 17.5t51.5 8.5t41.5 3.5t29 0.5l81 -5q0 67 -37 95.5t-109 28.5q-73 0 -146 -23v69q69 26 150 26zM398 150v96q-33 6 -89 6q-181 0 -181 -98q0 -95 137 -95q133 0 133 91z" />
    <glyph glyph-name="Acircumflexdotbelow" unicode="&#x1eac;" 
d="M362 -49v-79h-79v79h79zM323 777l-46 -70h-56l81 120h41l81 -120h-56zM359 667l265 -667h-77l-80 208h-288l-80 -208h-78l266 667h72zM206 277h234l-117 305z" />
    <glyph glyph-name="acircumflexdotbelow" unicode="&#x1ead;" horiz-adv-x="534" 
d="M255 508q105 0 160 -53t55 -154v-151q0 -48 -22 -82t-57 -49t-65.5 -21t-60.5 -6q-23 0 -47 3t-54.5 13.5t-53 27t-38.5 47t-16 70.5q0 34 12.5 61t30.5 44t45.5 29t49.5 17.5t51.5 8.5t41.5 3.5t29 0.5l81 -5q0 67 -37 95.5t-109 28.5q-73 0 -146 -23v69q69 26 150 26z
M398 150v96q-33 6 -89 6q-181 0 -181 -98q0 -95 137 -95q133 0 133 91zM278 617l-46 -70h-56l81 120h41l81 -120h-56zM320 -50v-79h-79v79h79z" />
    <glyph glyph-name="Abreveacute" unicode="&#x1eae;" 
d="M323 699q49 0 77 27.5t28 76.5h-48q0 -30 -13.5 -43t-43.5 -13t-43.5 13t-13.5 43h-48q0 -49 28 -76.5t77 -27.5zM424 934l-83 -115h-48l57 115h74zM359 667l265 -667h-77l-80 208h-288l-80 -208h-78l266 667h72zM206 277h234l-117 305z" />
    <glyph glyph-name="abreveacute" unicode="&#x1eaf;" horiz-adv-x="534" 
d="M255 508q105 0 160 -53t55 -154v-151q0 -48 -22 -82t-57 -49t-65.5 -21t-60.5 -6q-23 0 -47 3t-54.5 13.5t-53 27t-38.5 47t-16 70.5q0 34 12.5 61t30.5 44t45.5 29t49.5 17.5t51.5 8.5t41.5 3.5t29 0.5l81 -5q0 67 -37 95.5t-109 28.5q-73 0 -146 -23v69q69 26 150 26z
M398 150v96q-33 6 -89 6q-181 0 -181 -98q0 -95 137 -95q133 0 133 91zM272 539q49 0 77 27.5t28 76.5h-48q0 -30 -13.5 -43t-43.5 -13t-43.5 13t-13.5 43h-48q0 -49 28 -76.5t77 -27.5zM373 774l-83 -115h-48l57 115h74z" />
    <glyph glyph-name="Abrevegrave" unicode="&#x1eb0;" 
d="M323 699q-49 0 -77 27.5t-28 76.5h48q0 -30 13.5 -43t43.5 -13t43.5 13t13.5 43h48q0 -49 -28 -76.5t-77 -27.5zM221 934h74l57 -115h-48zM359 667l265 -667h-77l-80 208h-288l-80 -208h-78l266 667h72zM206 277h234l-117 305z" />
    <glyph glyph-name="abrevegrave" unicode="&#x1eb1;" horiz-adv-x="534" 
d="M255 508q105 0 160 -53t55 -154v-151q0 -48 -22 -82t-57 -49t-65.5 -21t-60.5 -6q-23 0 -47 3t-54.5 13.5t-53 27t-38.5 47t-16 70.5q0 34 12.5 61t30.5 44t45.5 29t49.5 17.5t51.5 8.5t41.5 3.5t29 0.5l81 -5q0 67 -37 95.5t-109 28.5q-73 0 -146 -23v69q69 26 150 26z
M398 150v96q-33 6 -89 6q-181 0 -181 -98q0 -95 137 -95q133 0 133 91zM272 539q-49 0 -77 27.5t-28 76.5h48q0 -30 13.5 -43t43.5 -13t43.5 13t13.5 43h48q0 -49 -28 -76.5t-77 -27.5zM170 774h74l57 -115h-48z" />
    <glyph glyph-name="Abrevehookabove" unicode="&#x1eb2;" 
d="M323 699q-49 0 -77 27.5t-28 76.5h48q0 -30 13.5 -43t43.5 -13t43.5 13t13.5 43h48q0 -49 -28 -76.5t-77 -27.5zM301 965q37 0 64 -16t27 -52q0 -45 -52 -54v-24h-33v52q37 1 37 24q0 26 -47 26q-13 0 -27 -2v43q14 3 31 3zM359 667l265 -667h-77l-80 208h-288l-80 -208
h-78l266 667h72zM206 277h234l-117 305z" />
    <glyph glyph-name="abrevehookabove" unicode="&#x1eb3;" horiz-adv-x="534" 
d="M255 508q105 0 160 -53t55 -154v-151q0 -48 -22 -82t-57 -49t-65.5 -21t-60.5 -6q-23 0 -47 3t-54.5 13.5t-53 27t-38.5 47t-16 70.5q0 34 12.5 61t30.5 44t45.5 29t49.5 17.5t51.5 8.5t41.5 3.5t29 0.5l81 -5q0 67 -37 95.5t-109 28.5q-73 0 -146 -23v69q69 26 150 26z
M398 150v96q-33 6 -89 6q-181 0 -181 -98q0 -95 137 -95q133 0 133 91zM272 539q-49 0 -77 27.5t-28 76.5h48q0 -30 13.5 -43t43.5 -13t43.5 13t13.5 43h48q0 -49 -28 -76.5t-77 -27.5zM250 805q38 0 65 -16t27 -52q0 -44 -53 -54v-24h-33v52q37 1 37 24q0 26 -47 26
q-11 0 -27 -2v43q14 3 31 3z" />
    <glyph glyph-name="Abrevetilde" unicode="&#x1eb4;" 
d="M463 875q-26 -32 -56 -35.5t-57.5 11t-54.5 29t-57 11t-56 -35.5v57q26 32 56 35t57 -11.5t54.5 -29t57.5 -11.5t56 35v-55zM323 699q-49 0 -77 27.5t-28 76.5h48q0 -30 13.5 -43t43.5 -13t43.5 13t13.5 43h48q0 -49 -28 -76.5t-77 -27.5zM359 667l265 -667h-77l-80 208
h-288l-80 -208h-78l266 667h72zM206 277h234l-117 305z" />
    <glyph glyph-name="abrevetilde" unicode="&#x1eb5;" horiz-adv-x="534" 
d="M413 715q-26 -32 -56 -35.5t-57.5 11l-55 29t-57.5 11t-56 -35.5v57q26 32 56 35t57.5 -11.5l55 -29t57.5 -11.5t56 35v-55zM255 508q105 0 160 -53t55 -154v-151q0 -48 -22 -82t-57 -49t-65.5 -21t-60.5 -6q-23 0 -47 3t-54.5 13.5t-53 27t-38.5 47t-16 70.5
q0 34 12.5 61t30.5 44t45.5 29t49.5 17.5t51.5 8.5t41.5 3.5t29 0.5l81 -5q0 67 -37 95.5t-109 28.5q-73 0 -146 -23v69q69 26 150 26zM398 150v96q-33 6 -89 6q-181 0 -181 -98q0 -95 137 -95q133 0 133 91zM272 539q-49 0 -77 27.5t-28 76.5h48q0 -30 13.5 -43t43.5 -13
t43.5 13t13.5 43h48q0 -49 -28 -76.5t-77 -27.5z" />
    <glyph glyph-name="Abrevedotbelow" unicode="&#x1eb6;" 
d="M362 -50v-79h-79v79h79zM323 699q-49 0 -77 27.5t-28 76.5h48q0 -30 13.5 -43t43.5 -13t43.5 13t13.5 43h48q0 -49 -28 -76.5t-77 -27.5zM359 667l265 -667h-77l-80 208h-288l-80 -208h-78l266 667h72zM206 277h234l-117 305z" />
    <glyph glyph-name="abrevedotbelow" unicode="&#x1eb7;" horiz-adv-x="534" 
d="M255 508q105 0 160 -53t55 -154v-151q0 -48 -22 -82t-57 -49t-65.5 -21t-60.5 -6q-23 0 -47 3t-54.5 13.5t-53 27t-38.5 47t-16 70.5q0 34 12.5 61t30.5 44t45.5 29t49.5 17.5t51.5 8.5t41.5 3.5t29 0.5l81 -5q0 67 -37 95.5t-109 28.5q-73 0 -146 -23v69q69 26 150 26z
M398 150v96q-33 6 -89 6q-181 0 -181 -98q0 -95 137 -95q133 0 133 91zM272 539q-49 0 -77 27.5t-28 76.5h48q0 -30 13.5 -43t43.5 -13t43.5 13t13.5 43h48q0 -49 -28 -76.5t-77 -27.5zM320 -50v-79h-79v79h79z" />
    <glyph glyph-name="Edotbelow" unicode="&#x1eb8;" horiz-adv-x="566" 
d="M341 -50v-79h-79v79h79zM159 599v-230h307v-70h-307v-231h349v-68h-421v667h421v-68h-349z" />
    <glyph glyph-name="edotbelow" unicode="&#x1eb9;" horiz-adv-x="555" 
d="M330 -50v-79h-79v79h79zM282 508q46 0 83.5 -14.5t59.5 -34t38.5 -50.5t23.5 -53t11 -53t4 -39v-22l-1 -34h-364q7 -75 45.5 -109.5t116.5 -34.5q107 0 171 37v-73q-74 -36 -179 -36q-43 0 -80 11t-72 36.5t-55.5 78t-20.5 126.5q0 124 45 187q55 77 174 77zM136 271h292
q0 12 -1.5 27.5t-10 42.5t-23 47.5t-43.5 36.5t-68 16q-73 0 -107 -39t-39 -131z" />
    <glyph glyph-name="Ehookabove" unicode="&#x1eba;" horiz-adv-x="566" 
d="M280 870q38 0 65 -16t27 -52q0 -45 -53 -54v-24h-33v52q19 1 28 8t9 15q0 27 -47 27q-15 0 -27 -3v44q27 3 31 3zM159 599v-230h307v-70h-307v-231h349v-68h-421v667h421v-68h-349z" />
    <glyph glyph-name="ehookabove" unicode="&#x1ebb;" horiz-adv-x="555" 
d="M266 710q37 0 64 -16t27 -52q0 -45 -52 -54v-24h-33v52q19 1 28 8t9 15q0 27 -47 27q-16 0 -27 -3v44q27 3 31 3zM282 508q46 0 83.5 -14.5t59.5 -34t38.5 -50.5t23.5 -53t11 -53t4 -39v-22l-1 -34h-364q7 -75 45.5 -109.5t116.5 -34.5q107 0 171 37v-73
q-74 -36 -179 -36q-43 0 -80 11t-72 36.5t-55.5 78t-20.5 126.5q0 124 45 187q55 77 174 77zM136 271h292q0 12 -1.5 27.5t-10 42.5t-23 47.5t-43.5 36.5t-68 16q-73 0 -107 -39t-39 -131z" />
    <glyph glyph-name="Etilde" unicode="&#x1ebc;" horiz-adv-x="566" 
d="M441 745q-26 -32 -56 -35.5t-57.5 11t-54.5 29t-57 11t-56 -35.5v57q26 32 56 35t57 -11.5t54.5 -29t57.5 -11.5t56 35v-55zM159 599v-230h307v-70h-307v-231h349v-68h-421v667h421v-68h-349z" />
    <glyph glyph-name="etilde" unicode="&#x1ebd;" horiz-adv-x="555" 
d="M427 585q-26 -32 -56 -35.5t-57.5 11l-55 29t-57 11t-55.5 -35.5v57q26 32 55.5 35t57 -11.5l55 -29t57.5 -11.5t56 35v-55zM282 508q46 0 83.5 -14.5t59.5 -34t38.5 -50.5t23.5 -53t11 -53t4 -39v-22l-1 -34h-364q7 -75 45.5 -109.5t116.5 -34.5q107 0 171 37v-73
q-74 -36 -179 -36q-43 0 -80 11t-72 36.5t-55.5 78t-20.5 126.5q0 124 45 187q55 77 174 77zM136 271h292q0 12 -1.5 27.5t-10 42.5t-23 47.5t-43.5 36.5t-68 16q-73 0 -107 -39t-39 -131z" />
    <glyph glyph-name="Ecircumflexacute" unicode="&#x1ebe;" horiz-adv-x="566" 
d="M298 777l-46 -70h-56l81 120h41l81 -120h-56zM490 913l-83 -115h-48l57 115h74zM159 599v-230h307v-70h-307v-231h349v-68h-421v667h421v-68h-349z" />
    <glyph glyph-name="ecircumflexacute" unicode="&#x1ebf;" horiz-adv-x="555" 
d="M282 508q46 0 83.5 -14.5t59.5 -34t38.5 -50.5t23.5 -53t11 -53t4 -39v-22l-1 -34h-364q7 -75 45.5 -109.5t116.5 -34.5q107 0 171 37v-73q-74 -36 -179 -36q-43 0 -80 11t-72 36.5t-55.5 78t-20.5 126.5q0 124 45 187q55 77 174 77zM136 271h292q0 12 -1.5 27.5
t-10 42.5t-23 47.5t-43.5 36.5t-68 16q-73 0 -107 -39t-39 -131zM283 617l-46 -70h-56l81 120h41l81 -120h-56zM475 753l-83 -115h-48l57 115h74z" />
    <glyph glyph-name="Ecircumflexgrave" unicode="&#x1ec0;" horiz-adv-x="566" 
d="M298 777l-46 -70h-56l81 120h41l81 -120h-56zM106 913h74l57 -115h-48zM159 599v-230h307v-70h-307v-231h349v-68h-421v667h421v-68h-349z" />
    <glyph glyph-name="ecircumflexgrave" unicode="&#x1ec1;" horiz-adv-x="555" 
d="M282 508q46 0 83.5 -14.5t59.5 -34t38.5 -50.5t23.5 -53t11 -53t4 -39v-22l-1 -34h-364q7 -75 45.5 -109.5t116.5 -34.5q107 0 171 37v-73q-74 -36 -179 -36q-43 0 -80 11t-72 36.5t-55.5 78t-20.5 126.5q0 124 45 187q55 77 174 77zM136 271h292q0 12 -1.5 27.5
t-10 42.5t-23 47.5t-43.5 36.5t-68 16q-73 0 -107 -39t-39 -131zM282 617l-45 -70h-56l81 120h41l81 -120h-56zM90 753h74l57 -115h-48z" />
    <glyph glyph-name="Ecircumflexhookabove" unicode="&#x1ec2;" horiz-adv-x="566" 
d="M298 777l-46 -70h-56l81 120h41l81 -120h-56zM368 932q38 0 65 -16t27 -52q0 -45 -52 -54v-24h-33v52q19 1 28 8t9 15q0 27 -47 27q-17 0 -27 -3v44q27 3 30 3zM159 599v-230h307v-70h-307v-231h349v-68h-421v667h421v-68h-349z" />
    <glyph glyph-name="ecircumflexhookabove" unicode="&#x1ec3;" horiz-adv-x="555" 
d="M282 508q46 0 83.5 -14.5t59.5 -34t38.5 -50.5t23.5 -53t11 -53t4 -39v-22l-1 -34h-364q7 -75 45.5 -109.5t116.5 -34.5q107 0 171 37v-73q-74 -36 -179 -36q-43 0 -80 11t-72 36.5t-55.5 78t-20.5 126.5q0 124 45 187q55 77 174 77zM136 271h292q0 12 -1.5 27.5
t-10 42.5t-23 47.5t-43.5 36.5t-68 16q-73 0 -107 -39t-39 -131zM283 617l-46 -70h-56l81 120h41l81 -120h-56zM353 772q38 0 65 -16t27 -52q0 -45 -53 -54v-24h-33v52q19 1 28.5 8t9.5 15q0 27 -48 27q-15 0 -27 -3v44q30 3 31 3z" />
    <glyph glyph-name="Ecircumflextilde" unicode="&#x1ec4;" horiz-adv-x="566" 
d="M442 872q-26 -32 -56 -35.5t-57.5 11l-55 29t-57 11t-55.5 -35.5v57q26 32 55.5 35t57 -11.5l55 -29t57.5 -11.5t56 35v-55zM298 771l-46 -70h-56l81 120h41l81 -120h-56zM159 599v-230h307v-70h-307v-231h349v-68h-421v667h421v-68h-349z" />
    <glyph glyph-name="ecircumflextilde" unicode="&#x1ec5;" horiz-adv-x="555" 
d="M426 712q-26 -32 -56 -35.5t-57.5 11l-55 29t-57 11t-55.5 -35.5v57q26 32 55.5 35t57 -11.5l55 -29t57.5 -11.5t56 35v-55zM282 611l-46 -70h-56l81 120h41l81 -120h-56zM282 508q46 0 83.5 -14.5t59.5 -34t38.5 -50.5t23.5 -53t11 -53t4 -39v-22l-1 -34h-364
q7 -75 45.5 -109.5t116.5 -34.5q107 0 171 37v-73q-74 -36 -179 -36q-43 0 -80 11t-72 36.5t-55.5 78t-20.5 126.5q0 124 45 187q55 77 174 77zM136 271h292q0 12 -1.5 27.5t-10 42.5t-23 47.5t-43.5 36.5t-68 16q-73 0 -107 -39t-39 -131z" />
    <glyph glyph-name="Ecircumflexdotbelow" unicode="&#x1ec6;" horiz-adv-x="566" 
d="M342 -50v-79h-79v79h79zM303 777l-46 -70h-56l81 120h41l81 -120h-56zM159 599v-230h307v-70h-307v-231h349v-68h-421v667h421v-68h-349z" />
    <glyph glyph-name="ecircumflexdotbelow" unicode="&#x1ec7;" horiz-adv-x="555" 
d="M282 617l-46 -70h-56l81 120h41l81 -120h-56zM282 508q46 0 83.5 -14.5t59.5 -34t38.5 -50.5t23.5 -53t11 -53t4 -39v-22l-1 -34h-364q7 -75 45.5 -109.5t116.5 -34.5q107 0 171 37v-73q-74 -36 -179 -36q-43 0 -80 11t-72 36.5t-55.5 78t-20.5 126.5q0 124 45 187
q55 77 174 77zM136 271h292q0 12 -1.5 27.5t-10 42.5t-23 47.5t-43.5 36.5t-68 16q-73 0 -107 -39t-39 -131zM329 -50v-79h-79v79h79z" />
    <glyph glyph-name="Ihookabove" unicode="&#x1ec8;" horiz-adv-x="245" 
d="M99 870q38 0 65 -16t27 -52q0 -45 -52 -54v-24h-33v52q19 1 28 8t9 15q0 27 -48 27q-15 0 -26 -3v44q27 3 30 3zM87 667v-667h72v667h-72z" />
    <glyph glyph-name="ihookabove" unicode="&#x1ec9;" horiz-adv-x="270" 
d="M111 709q38 0 65 -15.5t27 -52.5q0 -44 -53 -53v-24h-33v52q19 1 28.5 8t9.5 15q0 27 -48 27q-15 0 -27 -3v44q20 2 31 2zM171 0v499h-72v-499h72z" />
    <glyph glyph-name="Idotbelow" unicode="&#x1eca;" horiz-adv-x="245" 
d="M162 -50v-79h-79v79h79zM87 667h72v-667h-72v667z" />
    <glyph glyph-name="idotbelow" unicode="&#x1ecb;" horiz-adv-x="270" 
d="M174 -50v-79h-79v79h79zM171 0v499h-72v-499h72zM175 667v-79h-80v79h80z" />
    <glyph glyph-name="Odotbelow" unicode="&#x1ecc;" horiz-adv-x="747" 
d="M410 -50v-79h-79v79h79zM370 676q310 0 310 -342t-310 -342q-309 0 -309 342t309 342zM370 59q124 0 181 66t57 209q0 142 -57 208t-181 66q-123 0 -180 -66t-57 -208q0 -143 57 -209t180 -66z" />
    <glyph glyph-name="odotbelow" unicode="&#x1ecd;" horiz-adv-x="564" 
d="M283 508q45 0 83 -11t74 -37.5t57 -80t21 -129.5t-21 -129.5t-57 -80t-74 -37.5t-83 -11t-82.5 11t-73.5 37.5t-57 80t-21 129.5t21 129.5t57 80t73.5 37.5t82.5 11zM283 58q85 0 124 45.5t39 146.5t-39 146.5t-124 45.5t-123.5 -46t-38.5 -146t38.5 -146t123.5 -46z
M323 -50v-79h-79v79h79z" />
    <glyph glyph-name="Ohookabove" unicode="&#x1ece;" horiz-adv-x="747" 
d="M349 870q38 0 65 -16t27 -52q0 -45 -52 -54v-24h-33v52q19 1 28 8t9 15q0 27 -47 27q-16 0 -27 -3v44q27 3 30 3zM370 676q310 0 310 -342t-310 -342q-309 0 -309 342t309 342zM370 60q124 0 181 66t57 208t-57 208t-181 66q-123 0 -180 -66t-57 -208t57 -208t180 -66z
" />
    <glyph glyph-name="ohookabove" unicode="&#x1ecf;" horiz-adv-x="564" 
d="M283 508q45 0 83 -11t74 -37.5t57 -80t21 -129.5t-21 -129.5t-57 -80t-74 -37.5t-83 -11t-82.5 11t-73.5 37.5t-57 80t-21 129.5t21 129.5t57 80t73.5 37.5t82.5 11zM283 58q85 0 124 45.5t39 146.5t-39 146.5t-124 45.5t-123.5 -46t-38.5 -146t38.5 -146t123.5 -46z
M261 710q38 0 65 -16t27 -52q0 -45 -53 -54v-24h-33v52q19 1 28.5 8t9.5 15q0 27 -48 27q-15 0 -27 -3v44q27 3 31 3z" />
    <glyph glyph-name="Ocircumflexacute" unicode="&#x1ed0;" horiz-adv-x="747" 
d="M371 777l-46 -70h-56l81 120h41l81 -120h-56zM563 913l-83 -115h-48l57 115h74zM370 676q310 0 310 -342t-310 -342q-309 0 -309 342t309 342zM370 60q124 0 181 66t57 208t-57 208t-181 66q-123 0 -180 -66t-57 -208t57 -208t180 -66z" />
    <glyph glyph-name="ocircumflexacute" unicode="&#x1ed1;" horiz-adv-x="564" 
d="M283 508q45 0 83 -11t74 -37.5t57 -80t21 -129.5t-21 -129.5t-57 -80t-74 -37.5t-83 -11t-82.5 11t-73.5 37.5t-57 80t-21 129.5t21 129.5t57 80t73.5 37.5t82.5 11zM283 58q85 0 124 45.5t39 146.5t-39 146.5t-124 45.5t-123.5 -46t-38.5 -146t38.5 -146t123.5 -46z
M284 617l-46 -70h-56l81 120h41l81 -120h-56zM476 753l-83 -115h-48l57 115h74z" />
    <glyph glyph-name="Ocircumflexgrave" unicode="&#x1ed2;" horiz-adv-x="747" 
d="M370 777l-45 -70h-56l81 120h41l81 -120h-56zM178 913h74l57 -115h-48zM61 334q0 342 309 342q310 0 310 -342t-310 -342q-309 0 -309 342zM133 334q0 -142 57 -208t180 -66q124 0 181 66t57 208t-57 208t-181 66q-123 0 -180 -66t-57 -208z" />
    <glyph glyph-name="ocircumflexgrave" unicode="&#x1ed3;" horiz-adv-x="564" 
d="M49 250q0 76 21 129.5t57 80t73.5 37.5t82.5 11t83 -11t74 -37.5t57 -80t21 -129.5t-21 -129.5t-57 -80t-74 -37.5t-83 -11t-82.5 11t-73.5 37.5t-57 80t-21 129.5zM121 250q0 -101 38.5 -146.5t123.5 -45.5t124 45.5t39 146.5t-39 146.5t-124 45.5t-123.5 -45.5
t-38.5 -146.5zM282 617l-45 -70h-56l81 120h41l81 -120h-56zM91 753h74l57 -115h-48z" />
    <glyph glyph-name="Ocircumflexhookabove" unicode="&#x1ed4;" horiz-adv-x="747" 
d="M371 777l-46 -70h-56l81 120h41l81 -120h-56zM441 932q38 0 65 -16t27 -52q0 -45 -52 -54v-24h-33v52q19 1 28 8t9 15q0 27 -48 27q-12 0 -26 -2v43q27 3 30 3zM370 676q310 0 310 -342t-310 -342q-309 0 -309 342t309 342zM370 60q124 0 181 66t57 208t-57 208t-181 66
q-123 0 -180 -66t-57 -208t57 -208t180 -66z" />
    <glyph glyph-name="ocircumflexhookabove" unicode="&#x1ed5;" horiz-adv-x="564" 
d="M49 250q0 76 21 129.5t57 80t73.5 37.5t82.5 11t83 -11t74 -37.5t57 -80t21 -129.5t-21 -129.5t-57 -80t-74 -37.5t-83 -11t-82.5 11t-73.5 37.5t-57 80t-21 129.5zM121 250q0 -101 38.5 -146.5t123.5 -45.5t124 45.5t39 146.5t-39 146.5t-124 45.5t-123.5 -45.5
t-38.5 -146.5zM284 617l-46 -70h-56l81 120h41l81 -120h-56zM354 772q38 0 65 -16t27 -52q0 -45 -52 -54v-24h-34v52q19 1 28.5 8t9.5 15q0 27 -48 27q-15 0 -27 -3v44q30 3 31 3z" />
    <glyph glyph-name="Ocircumflextilde" unicode="&#x1ed6;" horiz-adv-x="747" 
d="M515 872q-26 -32 -56 -35.5t-57.5 11l-55 29t-57 11t-55.5 -35.5v57q26 32 55.5 35t57 -11.5l55 -29t57.5 -11.5t56 35v-55zM371 771l-46 -70h-56l81 120h41l81 -120h-56zM370 676q310 0 310 -342t-310 -342q-309 0 -309 342t309 342zM370 60q124 0 181 66t57 208
t-57 208t-181 66q-123 0 -180 -66t-57 -208t57 -208t180 -66z" />
    <glyph glyph-name="ocircumflextilde" unicode="&#x1ed7;" horiz-adv-x="564" 
d="M427 712q-26 -32 -56 -35.5t-57.5 11l-55 29t-57 11t-55.5 -35.5v57q26 32 55.5 35t57 -11.5l55 -29t57.5 -11.5t56 35v-55zM283 611l-46 -70h-56l81 120h41l81 -120h-56zM49 250q0 76 21 129.5t57 80t73.5 37.5t82.5 11t83 -11t74 -37.5t57 -80t21 -129.5t-21 -129.5
t-57 -80t-74 -37.5t-83 -11t-82.5 11t-73.5 37.5t-57 80t-21 129.5zM121 250q0 -101 38.5 -146.5t123.5 -45.5t124 45.5t39 146.5t-39 146.5t-124 45.5t-123.5 -45.5t-38.5 -146.5z" />
    <glyph glyph-name="Ocircumflexdotbelow" unicode="&#x1ed8;" horiz-adv-x="747" 
d="M410 -50v-79h-79v79h79zM371 777l-46 -70h-56l81 120h41l81 -120h-56zM370 676q310 0 310 -342t-310 -342q-309 0 -309 342t309 342zM370 60q124 0 181 66t57 208t-57 208t-181 66q-123 0 -180 -66t-57 -208t57 -208t180 -66z" />
    <glyph glyph-name="ocircumflexdotbelow" unicode="&#x1ed9;" horiz-adv-x="564" 
d="M323 -49v-79h-79v79h79zM49 250q0 76 21 129.5t57 80t73.5 37.5t82.5 11t83 -11t74 -37.5t57 -80t21 -129.5t-21 -129.5t-57 -80t-74 -37.5t-83 -11t-82.5 11t-73.5 37.5t-57 80t-21 129.5zM121 250q0 -101 38.5 -146.5t123.5 -45.5t124 45.5t39 146.5t-39 146.5
t-124 45.5t-123.5 -45.5t-38.5 -146.5zM284 617l-46 -70h-56l81 120h41l81 -120h-56z" />
    <glyph glyph-name="Ohornacute" unicode="&#x1eda;" horiz-adv-x="776" 
d="M466 839l-83 -115h-48l57 115h74zM805 607l-83 -53q-45 -28 -75 -36q33 -74 33 -184q0 -342 -310 -342q-309 0 -309 342t309 342q182 0 257 -119q33 7 69 32l-32 49l86 54zM370 60q124 0 181 66t57 208t-57 208t-181 66q-123 0 -180 -66t-57 -208t57 -208t180 -66z" />
    <glyph glyph-name="ohornacute" unicode="&#x1edb;" horiz-adv-x="667" 
d="M673 437l-83 -53q-47 -29 -83 -37q11 -44 11 -97q0 -76 -21 -129.5t-57 -80t-74 -37.5t-83 -11t-82.5 11t-73.5 37.5t-57 80t-21 129.5t21 129.5t57 80t73.5 37.5t82.5 11q159 0 211 -121q30 5 70 32l-32 49l86 55zM283 58q85 0 124 45.5t39 146.5t-39 146.5t-124 45.5
t-123.5 -46t-38.5 -146t38.5 -146t123.5 -46zM390 679l-83 -115h-48l57 115h74z" />
    <glyph glyph-name="Ohorngrave" unicode="&#x1edc;" horiz-adv-x="776" 
d="M274 839h74l57 -115h-48zM805 607l-83 -53q-45 -28 -75 -36q33 -75 33 -184q0 -342 -310 -342q-309 0 -309 342t309 342q182 0 257 -119q32 6 69 31l-32 50l86 54zM370 59q124 0 181 66t57 209q0 142 -57 208t-181 66q-123 0 -180 -66t-57 -208q0 -143 57 -209t180 -66z
" />
    <glyph glyph-name="ohorngrave" unicode="&#x1edd;" horiz-adv-x="667" 
d="M673 437l-83 -53q-47 -29 -83 -37q11 -44 11 -97q0 -76 -21 -129.5t-57 -80t-74 -37.5t-83 -11t-82.5 11t-73.5 37.5t-57 80t-21 129.5t21 129.5t57 80t73.5 37.5t82.5 11q159 0 211 -121q30 5 70 32l-32 49l86 55zM283 58q85 0 124 45.5t39 146.5t-39 146.5t-124 45.5
t-123.5 -46t-38.5 -146t38.5 -146t123.5 -46zM308 564h-48l-83 115h74z" />
    <glyph glyph-name="Ohornhookabove" unicode="&#x1ede;" horiz-adv-x="776" 
d="M349 870q38 0 65 -16t27 -52q0 -45 -52 -54v-24h-33v52q19 1 28 8t9 15q0 27 -47 27q-16 0 -27 -3v44q27 3 30 3zM805 607l-83 -53q-45 -28 -75 -36q33 -74 33 -184q0 -342 -310 -342q-309 0 -309 342t309 342q182 0 257 -119q33 7 69 32l-32 49l86 54zM370 60
q124 0 181 66t57 208t-57 208t-181 66q-123 0 -180 -66t-57 -208t57 -208t180 -66z" />
    <glyph glyph-name="ohornhookabove" unicode="&#x1edf;" horiz-adv-x="667" 
d="M263 709q38 0 65 -15.5t27 -52.5q0 -44 -53 -53v-24h-33v52q19 1 28.5 8t9.5 15q0 27 -48 27q-15 0 -27 -3v44q20 2 31 2zM673 437l-83 -53q-47 -29 -83 -37q11 -44 11 -97q0 -76 -21 -129.5t-57 -80t-74 -37.5t-83 -11t-82.5 11t-73.5 37.5t-57 80t-21 129.5t21 129.5
t57 80t73.5 37.5t82.5 11q159 0 211 -121q30 5 70 32l-32 49l86 55zM283 58q85 0 124 45.5t39 146.5t-39 146.5t-124 45.5t-123.5 -46t-38.5 -146t38.5 -146t123.5 -46z" />
    <glyph glyph-name="Ohorntilde" unicode="&#x1ee0;" horiz-adv-x="776" 
d="M511 745q-26 -32 -56 -35.5t-57.5 11l-55 29t-57 11t-55.5 -35.5v57q26 32 55.5 35t57 -11.5l55 -29t57.5 -11.5t56 35v-55zM805 607l-83 -53q-45 -28 -75 -36q33 -74 33 -184q0 -342 -310 -342q-309 0 -309 342t309 342q182 0 257 -119q33 7 69 32l-32 49l86 54zM370 60
q124 0 181 66t57 208t-57 208t-181 66q-123 0 -180 -66t-57 -208t57 -208t180 -66z" />
    <glyph glyph-name="ohorntilde" unicode="&#x1ee1;" horiz-adv-x="667" 
d="M673 437l-83 -53q-47 -29 -83 -37q11 -44 11 -97q0 -76 -21 -129.5t-57 -80t-74 -37.5t-83 -11t-82.5 11t-73.5 37.5t-57 80t-21 129.5t21 129.5t57 80t73.5 37.5t82.5 11q159 0 211 -121q30 5 70 32l-32 49l86 55zM283 58q85 0 124 45.5t39 146.5t-39 146.5t-124 45.5
t-123.5 -46t-38.5 -146t38.5 -146t123.5 -46zM428 585q-26 -32 -56 -35.5t-57.5 11l-55 29t-57 11.5t-55.5 -35v56q26 32 55.5 35.5t57 -11t55 -29.5t57.5 -11.5t56 35.5v-56z" />
    <glyph glyph-name="Ohorndotbelow" unicode="&#x1ee2;" horiz-adv-x="776" 
d="M410 -50v-79h-79v79h79zM805 607l-83 -53q-45 -28 -75 -36q33 -74 33 -184q0 -342 -310 -342q-309 0 -309 342t309 342q182 0 257 -119q33 7 69 32l-32 49l86 54zM370 60q124 0 181 66t57 208t-57 208t-181 66q-123 0 -180 -66t-57 -208t57 -208t180 -66z" />
    <glyph glyph-name="ohorndotbelow" unicode="&#x1ee3;" horiz-adv-x="667" 
d="M323 -50v-79h-79v79h79zM673 437l-83 -53q-47 -29 -83 -37q11 -44 11 -97q0 -76 -21 -129.5t-57 -80t-74 -37.5t-83 -11t-82.5 11t-73.5 37.5t-57 80t-21 129.5t21 129.5t57 80t73.5 37.5t82.5 11q159 0 211 -121q30 5 70 32l-32 49l86 55zM283 58q85 0 124 45.5
t39 146.5t-39 146.5t-124 45.5t-123.5 -46t-38.5 -146t38.5 -146t123.5 -46z" />
    <glyph glyph-name="Udotbelow" unicode="&#x1ee4;" horiz-adv-x="721" 
d="M397 -50v-79h-79v79h79zM557 667h72v-393q0 -137 -70 -209.5t-201 -72.5t-201 72.5t-70 209.5v393h72v-397q0 -212 199 -212t199 212v397z" />
    <glyph glyph-name="udotbelow" unicode="&#x1ee5;" horiz-adv-x="587" 
d="M331 -49v-79h-79v79h79zM428 499h72v-290q0 -104 -54.5 -161t-154.5 -57t-154.5 57t-54.5 161v290h72v-293q0 -76 33.5 -112t103.5 -36t103.5 36t33.5 112v293z" />
    <glyph glyph-name="Uhookabove" unicode="&#x1ee6;" horiz-adv-x="721" 
d="M340 869q38 0 65 -15.5t27 -51.5q0 -45 -52 -54v-24h-34v52q19 1 28.5 8t9.5 15q0 27 -48 27q-15 0 -27 -3v44q20 2 31 2zM557 667h72v-393q0 -137 -70 -209.5t-201 -72.5t-201 72.5t-70 209.5v393h72v-397q0 -212 199 -212t199 212v397z" />
    <glyph glyph-name="uhookabove" unicode="&#x1ee7;" horiz-adv-x="587" 
d="M428 499h72v-290q0 -104 -54.5 -161t-154.5 -57t-154.5 57t-54.5 161v290h72v-293q0 -76 33.5 -112t103.5 -36t103.5 36t33.5 112v293zM271 710q37 0 64 -16t27 -52q0 -45 -52 -54v-24h-33v52q37 1 37 24q0 26 -47 26q-13 0 -27 -2v43q13 3 31 3z" />
    <glyph glyph-name="Uhornacute" unicode="&#x1ee8;" horiz-adv-x="792" 
d="M462 839l-83 -115h-48l57 115h74zM769 702l55 -85l-83 -53q-64 -41 -112 -41v-249q0 -137 -70 -209.5t-201 -72.5t-201 72.5t-70 209.5v393h72v-397q0 -212 199 -212t199 212v397h72v-102q36 0 86 34l-32 49z" />
    <glyph glyph-name="uhornacute" unicode="&#x1ee9;" horiz-adv-x="690" 
d="M641 534l54 -86l-83 -53q-63 -41 -112 -41v-145q0 -104 -54.5 -161t-154.5 -57t-154.5 57t-54.5 161v290h72v-293q0 -76 33.5 -112t103.5 -36t103.5 36t33.5 112v293h72v-103q39 2 86 34l-31 49zM394 678l-83 -115h-47l57 115h73z" />
    <glyph glyph-name="Uhorngrave" unicode="&#x1eea;" horiz-adv-x="792" 
d="M254 839h74l57 -115h-48zM769 702l55 -85l-83 -53q-64 -41 -112 -41v-249q0 -137 -70 -209.5t-201 -72.5t-201 72.5t-70 209.5v393h72v-397q0 -212 199 -212t199 212v397h72v-102q36 0 86 34l-32 49z" />
    <glyph glyph-name="uhorngrave" unicode="&#x1eeb;" horiz-adv-x="690" 
d="M641 534l54 -86l-83 -53q-63 -41 -112 -41v-145q0 -104 -54.5 -161t-154.5 -57t-154.5 57t-54.5 161v290h72v-293q0 -76 33.5 -112t103.5 -36t103.5 36t33.5 112v293h72v-103q39 2 86 34l-31 49zM318 563h-48l-83 115h74z" />
    <glyph glyph-name="Uhornhookabove" unicode="&#x1eec;" horiz-adv-x="792" 
d="M340 869q38 0 65 -15.5t27 -51.5q0 -45 -52 -54v-24h-34v52q19 1 28.5 8t9.5 15q0 27 -48 27q-15 0 -27 -3v44q20 2 31 2zM769 702l55 -85l-83 -53q-64 -41 -112 -41v-249q0 -137 -70 -209.5t-201 -72.5t-201 72.5t-70 209.5v393h72v-397q0 -212 199 -212t199 212v397h72
v-102q36 0 86 34l-32 49z" />
    <glyph glyph-name="uhornhookabove" unicode="&#x1eed;" horiz-adv-x="690" 
d="M271 710q37 0 64 -16t27 -52q0 -45 -52 -54v-24h-33v52q37 1 37 24q0 26 -47 26q-13 0 -27 -2v43q13 3 31 3zM641 534l54 -86l-83 -53q-63 -41 -112 -41v-145q0 -104 -54.5 -161t-154.5 -57t-154.5 57t-54.5 161v290h72v-293q0 -76 33.5 -112t103.5 -36t103.5 36
t33.5 112v293h72v-103q39 2 86 34l-31 49z" />
    <glyph glyph-name="Uhorntilde" unicode="&#x1eee;" horiz-adv-x="792" 
d="M498 745q-26 -32 -56 -35.5t-57 11t-54.5 29t-57.5 11t-56 -35.5v57q26 32 56 35t57.5 -11.5t54.5 -29t57 -11.5t56 35v-55zM769 702l55 -85l-83 -53q-64 -41 -112 -41v-249q0 -137 -70 -209.5t-201 -72.5t-201 72.5t-70 209.5v393h72v-397q0 -212 199 -212t199 212v397
h72v-102q36 0 86 34l-32 49z" />
    <glyph glyph-name="uhorntilde" unicode="&#x1eef;" horiz-adv-x="690" 
d="M435 585q-26 -32 -56 -35.5t-57.5 11l-55 29t-57.5 11t-56 -35.5v57q26 32 56 35t57.5 -11.5l55 -29t57.5 -11.5t56 35v-55zM641 534l54 -86l-83 -53q-63 -41 -112 -41v-145q0 -104 -54.5 -161t-154.5 -57t-154.5 57t-54.5 161v290h72v-293q0 -76 33.5 -112t103.5 -36
t103.5 36t33.5 112v293h72v-103q39 2 86 34l-31 49z" />
    <glyph glyph-name="Uhorndotbelow" unicode="&#x1ef0;" horiz-adv-x="792" 
d="M397 -50v-79h-79v79h79zM769 702l55 -85l-83 -53q-64 -41 -112 -41v-249q0 -137 -70 -209.5t-201 -72.5t-201 72.5t-70 209.5v393h72v-397q0 -212 199 -212t199 212v397h72v-102q36 0 86 34l-32 49z" />
    <glyph glyph-name="uhorndotbelow" unicode="&#x1ef1;" horiz-adv-x="690" 
d="M641 534l54 -86l-83 -53q-63 -41 -112 -41v-145q0 -104 -54.5 -161t-154.5 -57t-154.5 57t-54.5 161v290h72v-293q0 -76 33.5 -112t103.5 -36t103.5 36t33.5 112v293h72v-103q39 2 86 34l-31 49zM331 -49v-79h-79v79h79z" />
    <glyph glyph-name="Ygrave" unicode="&#x1ef2;" horiz-adv-x="598" 
d="M494 667h87l-248 -361v-306h-72v306l-249 361h87l198 -291zM275 839l57 -115h-48l-83 115h74z" />
    <glyph glyph-name="ygrave" unicode="&#x1ef3;" horiz-adv-x="502" 
d="M394 499h77l-204 -548q-53 -144 -156 -144q-25 0 -48 9v66q20 -9 43 -9q31 0 58 33.5t39 67.5l12 34l-184 491h77l143 -395zM226 679l57 -115h-48l-83 115h74z" />
    <glyph glyph-name="Ydotbelow" unicode="&#x1ef4;" horiz-adv-x="598" 
d="M336 -50v-79h-79v79h79zM494 667h87l-248 -361v-306h-72v306l-249 361h87l198 -291z" />
    <glyph glyph-name="ydotbelow" unicode="&#x1ef5;" horiz-adv-x="502" 
d="M446 -49v-79h-79v79h79zM394 499h77l-204 -549q-53 -143 -156 -143q-21 0 -48 8v67q16 -9 43 -9q31 0 58 33.5t39 67.5l12 33l-184 492h77l143 -396z" />
    <glyph glyph-name="Yhookabove" unicode="&#x1ef6;" horiz-adv-x="598" 
d="M277 870q38 0 65 -16t27 -52q0 -45 -52 -54v-24h-33v52q19 1 28 8t9 15q0 27 -47 27q-16 0 -27 -3v44q27 3 30 3zM494 667h87l-248 -361v-306h-72v306l-249 361h87l198 -291z" />
    <glyph glyph-name="yhookabove" unicode="&#x1ef7;" horiz-adv-x="502" 
d="M230 710q38 0 65 -16t27 -52q0 -45 -52 -54v-24h-33v52q37 1 37 24q0 26 -48 26q-12 0 -26 -2v43q14 3 30 3zM394 499h77l-204 -549q-53 -143 -156 -143q-21 0 -48 8v67q16 -9 43 -9q31 0 58 33.5t39 67.5l12 33l-184 492h77l143 -396z" />
    <glyph glyph-name="Ytilde" unicode="&#x1ef8;" horiz-adv-x="598" 
d="M437 745q-26 -32 -56 -35.5t-57.5 11l-55 29t-57 11t-55.5 -35.5v57q26 32 55.5 35t57 -11.5l55 -29t57.5 -11.5t56 35v-55zM494 667h87l-248 -361v-306h-72v306l-249 361h87l198 -291z" />
    <glyph glyph-name="ytilde" unicode="&#x1ef9;" horiz-adv-x="502" 
d="M394 585q-26 -32 -56 -35t-57.5 11.5t-55 28.5t-57 11t-55.5 -35v56q26 32 55.5 35.5t57 -11t55 -29.5t57.5 -11.5t56 35.5v-56zM394 499h77l-204 -549q-53 -143 -156 -143q-21 0 -48 8v67q16 -9 43 -9q31 0 58 33.5t39 67.5l12 33l-184 492h77l143 -396z" />
    <glyph glyph-name="endash" unicode="&#x2013;" horiz-adv-x="560" 
d="M489 320v-62h-420v62h420z" />
    <glyph glyph-name="emdash" unicode="&#x2014;" horiz-adv-x="891" 
d="M812 324v-66h-733v66h733z" />
    <glyph glyph-name="quoteleft" unicode="&#x2018;" horiz-adv-x="255" 
d="M129 676l74 -196h-72l-84 196h82z" />
    <glyph glyph-name="quoteright" unicode="&#x2019;" horiz-adv-x="255" 
d="M121 676h82l-84 -196h-72z" />
    <glyph glyph-name="quotesinglbase" unicode="&#x201a;" horiz-adv-x="300" 
d="M146 84h81l-83 -196h-72z" />
    <glyph glyph-name="quotedblleft" unicode="&#x201c;" horiz-adv-x="391" 
d="M265 676l74 -196h-72l-84 196h82zM129 676l74 -196h-72l-84 196h82z" />
    <glyph glyph-name="quotedblright" unicode="&#x201d;" horiz-adv-x="387" 
d="M121 676h82l-84 -196h-72zM257 676h82l-84 -196h-72z" />
    <glyph glyph-name="quotedblbase" unicode="&#x201e;" horiz-adv-x="436" 
d="M146 84h81l-83 -196h-72zM282 84h82l-84 -196h-72z" />
    <glyph glyph-name="dagger" unicode="&#x2020;" horiz-adv-x="462" 
d="M369 532v-48h-113v-387h-48v387h-114v48h114v135h48v-135h113z" />
    <glyph glyph-name="daggerdbl" unicode="&#x2021;" horiz-adv-x="494" 
d="M276 409v-202h147v-60h-147v-147h-60v147h-148v60h148v202h-148v60h148v147h60v-147h147v-60h-147z" />
    <glyph glyph-name="bullet" unicode="&#x2022;" horiz-adv-x="415" 
d="M321 334q0 -48 -34 -82t-81 -34q-48 0 -82 34t-34 82t34 81.5t82 33.5q47 0 81 -33.5t34 -81.5z" />
    <glyph glyph-name="ellipsis" unicode="&#x2026;" horiz-adv-x="770" 
d="M107 0v80h80v-80h-80zM586 0v80h79v-80h-79zM347 0v80h79v-80h-79z" />
    <glyph glyph-name="perthousand" unicode="&#x2030;" horiz-adv-x="1140" 
d="M216 664q60 0 102 -40.5t42 -143.5q0 -55 -13 -93t-35 -57t-45.5 -27t-50.5 -8q-28 0 -51 8t-45.5 27t-35.5 57t-13 93q0 54 13 92.5t35.5 57t45.5 26.5t51 8zM216 347q41 0 65 27t24 106t-24 105.5t-65 26.5q-42 0 -66 -26.5t-24 -105.5t24.5 -106t65.5 -27zM647 667
l-419 -667h-64l419 667h64zM595 3q-28 0 -51 8t-45.5 27t-35 57t-12.5 93t12.5 93t35 57t45.5 27t51 8t51 -8t45.5 -27t35 -57t12.5 -93t-12.5 -93t-35 -57t-45.5 -27t-51 -8zM595 321q-41 0 -65 -27t-24 -106t24 -106t65 -27t65 27t24 106t-24 106t-65 27zM931 3
q-28 0 -51 8t-45.5 27t-35 57t-12.5 93t12.5 93t35 57t45.5 27t51 8t51 -8t45.5 -27t35 -57t12.5 -93t-12.5 -93t-35 -57t-45.5 -27t-51 -8zM931 321q-41 0 -65 -27t-24 -106t24 -106t65 -27t65 27t24 106t-24 106t-65 27z" />
    <glyph glyph-name="guilsinglleft" unicode="&#x2039;" horiz-adv-x="347" 
d="M297 445l-178 -190l178 -191h-97l-169 191l169 190h97z" />
    <glyph glyph-name="guilsinglright" unicode="&#x203a;" horiz-adv-x="379" 
d="M67 445h96l170 -190l-170 -191h-96l177 191z" />
    <glyph glyph-name="fraction" unicode="&#x2044;" horiz-adv-x="355" 
d="M366 685h47l-437 -707h-47z" />
    <glyph glyph-name="zero.superior" unicode="&#x2070;" horiz-adv-x="377" 
d="M188 825q141 0 141 -184t-141 -184q-142 0 -142 184t142 184zM188 493q45 0 73.5 30t28.5 118t-28.5 118t-73.5 30q-46 0 -74.5 -30t-28.5 -118t28.5 -118t74.5 -30z" />
    <glyph glyph-name="four.superior" unicode="&#x2074;" horiz-adv-x="328" 
d="M242 607h51v-36h-51v-108h-39v108h-174v41l170 210h43v-215zM72 607h131v159z" />
    <glyph glyph-name="five.superior" unicode="&#x2075;" horiz-adv-x="319" 
d="M73 822h184v-39h-151l-10 -106q32 9 70 9q114 0 114 -113q0 -64 -33 -89t-81 -25q-63 0 -103 22v40q42 -25 100 -25q26 0 43 7t24.5 20t9.5 23.5t2 26.5q0 45 -21.5 60t-57.5 15q-25 0 -46 -4t-29 -8l-9 -5l-24 25z" />
    <glyph glyph-name="six.superior" unicode="&#x2076;" horiz-adv-x="336" 
d="M178 692q56 0 89 -30t33 -82q0 -49 -30 -85t-92 -36q-122 0 -122 168q0 51 12.5 89.5t30.5 58.5t42 32.5t42 15.5t37 3q26 0 52 -7v-36q-24 7 -48 7q-16 0 -32 -3.5t-37.5 -14t-37 -37t-20.5 -66.5q33 23 81 23zM178 495q27 0 45 10t25.5 25.5t10 27t2.5 22.5
q0 76 -83 76q-53 0 -83 -30q0 -46 9 -75.5t24.5 -40t25.5 -13t24 -2.5z" />
    <glyph glyph-name="seven.superior" unicode="&#x2077;" horiz-adv-x="317" 
d="M40 822h244v-37l-155 -322h-43l156 320h-202v39z" />
    <glyph glyph-name="eight.superior" unicode="&#x2078;" horiz-adv-x="332" 
d="M231 657q2 -1 6.5 -3t14.5 -9t18 -16t14.5 -25t6.5 -34q0 -44 -30.5 -77.5t-93.5 -33.5t-93.5 33.5t-30.5 77.5q0 29 15.5 51t30.5 29l15 7q-5 2 -13 7t-21.5 25t-13.5 45q0 38 27 65t84 27q56 0 83 -27t27 -65q0 -26 -11.5 -45t-23.5 -25zM95 733q0 -29 19 -45t53 -16
t53 16t19 45q0 55 -72 55t-72 -55zM167 495q28 0 46.5 8.5t26 22.5t10 24t2.5 20q0 66 -85 66q-41 0 -63.5 -17t-22.5 -49q0 -10 2.5 -20t10.5 -24t26.5 -22.5t46.5 -8.5z" />
    <glyph glyph-name="nine.superior" unicode="&#x2079;" horiz-adv-x="338" 
d="M171 593q-56 0 -89 30t-33 82q0 49 30 85t92 36q122 0 122 -168q0 -51 -12.5 -89.5t-30.5 -58.5t-42 -32.5t-42 -15.5t-36 -3q-27 0 -53 7v36q24 -7 48 -7q12 0 24 1.5t30.5 8.5t32 19t25.5 36t15 56q-33 -23 -81 -23zM171 790q-27 0 -45 -10t-25.5 -25.5t-10 -27
t-2.5 -22.5q0 -76 83 -76q53 0 83 30q0 46 -9 75.5t-24.5 40t-25 13t-24.5 2.5z" />
    <glyph glyph-name="zero.inferior" unicode="&#x2080;" horiz-adv-x="377" 
d="M188 212q141 0 141 -184q0 -183 -141 -183q-142 0 -142 183q0 184 142 184zM188 -120q45 0 73.5 30t28.5 118t-28.5 118t-73.5 30q-46 0 -74.5 -30t-28.5 -118t28.5 -118t74.5 -30z" />
    <glyph glyph-name="one.inferior" unicode="&#x2081;" horiz-adv-x="234" 
d="M119 209h44v-358h-38v317l-72 -47v46z" />
    <glyph glyph-name="two.inferior" unicode="&#x2082;" horiz-adv-x="328" 
d="M117 -111h162v-38h-226v33q65 48 123.5 112.5t58.5 116.5q0 62 -84 62q-51 0 -94 -31v42q44 27 97 27q61 0 90.5 -29.5t29.5 -70.5q0 -96 -157 -224z" />
    <glyph glyph-name="three.inferior" unicode="&#x2083;" horiz-adv-x="323" 
d="M217 44q3 -1 7 -3t15 -10t19.5 -17.5t15.5 -26t7 -34.5q0 -44 -32.5 -75.5t-99.5 -31.5q-52 0 -96 23v39q42 -23 91 -23q99 0 99 69q0 68 -101 68h-39v37h41q80 0 80 58t-85 58q-41 0 -77 -19v39q40 18 82 18q61 0 90 -28t29 -68q0 -24 -11.5 -42t-23.5 -25z" />
    <glyph glyph-name="four.inferior" unicode="&#x2084;" horiz-adv-x="328" 
d="M242 -6h51v-36h-51v-107h-39v107h-174v41l170 210h43v-215zM72 -6h131v159z" />
    <glyph glyph-name="five.inferior" unicode="&#x2085;" horiz-adv-x="319" 
d="M73 209h184v-39h-151l-10 -106q36 10 70 10q48 0 81 -25t33 -89t-33 -89t-81 -25q-63 0 -103 22v40q40 -24 100 -24q26 0 43 6.5t24.5 19.5t9.5 24t2 26q0 45 -21.5 60t-57.5 15q-25 0 -46 -4.5t-29 -8.5l-9 -4l-24 25z" />
    <glyph glyph-name="six.inferior" unicode="&#x2086;" horiz-adv-x="338" 
d="M178 80q56 0 89 -30.5t33 -82.5q0 -49 -30 -85t-92 -36q-122 0 -122 169q0 51 12.5 89t30.5 58.5t42 33t42 15.5t37 3q26 0 52 -7v-37q-24 7 -48 7q-16 0 -32 -3.5t-37.5 -14t-37 -37t-20.5 -66.5q31 24 81 24zM178 -117q27 0 45 10t25.5 25.5t10 27t2.5 22.5
q0 76 -83 76q-55 0 -83 -31q0 -46 9 -75t24.5 -39.5t25 -13t24.5 -2.5z" />
    <glyph glyph-name="seven.inferior" unicode="&#x2087;" horiz-adv-x="315" 
d="M40 209h244v-36l-155 -322h-43l156 319h-202v39z" />
    <glyph glyph-name="eight.inferior" unicode="&#x2088;" horiz-adv-x="332" 
d="M231 45q2 -1 6.5 -3t14.5 -9.5t18 -16.5t14.5 -25t6.5 -34q0 -44 -30.5 -77.5t-93.5 -33.5t-93.5 33.5t-30.5 77.5q0 29 15.5 51t30.5 29l15 7q-5 2 -13 7t-21.5 25t-13.5 45q0 38 27 65t84 27q56 0 83 -27t27 -65q0 -26 -11.5 -45t-23.5 -25zM95 121q0 -29 19 -45.5
t53 -16.5t53 16.5t19 45.5q0 55 -72 55t-72 -55zM167 -117q28 0 46.5 8.5t26 22.5t10 24t2.5 19q0 66 -85 66q-86 0 -86 -66q0 -14 4 -28t25 -30t57 -16z" />
    <glyph glyph-name="nine.inferior" unicode="&#x2089;" horiz-adv-x="338" 
d="M171 -20q-56 0 -89 30.5t-33 82.5q0 48 30 84.5t92 36.5q122 0 122 -169q0 -51 -12.5 -89t-30.5 -58.5t-42 -33t-42 -15.5t-36 -3q-27 0 -53 7v36q28 -6 48 -6q12 0 24 1.5t30.5 8.5t32 19t25.5 35.5t15 55.5q-33 -23 -81 -23zM171 177q-27 0 -45 -10t-25.5 -25.5
t-10 -27t-2.5 -22.5q0 -76 83 -76q53 0 83 30q0 46 -9 75.5t-24.5 40t-25 13t-24.5 2.5z" />
    <glyph glyph-name="dong" unicode="&#x20ab;" horiz-adv-x="413" 
d="M335 617h44v-40h-44v-273q0 -14 -4 -27.5t-16 -33t-41.5 -31.5t-73.5 -12q-24 0 -46 6.5t-45.5 23.5t-38 54t-14.5 90q0 49 13.5 83t36.5 51t47 24t53 7q45 0 81 -13v51h-86v40h86v42h48v-42zM287 301v178q-36 16 -81 16q-54 0 -78.5 -28.5t-24.5 -92.5q0 -131 97 -131
q87 0 87 58zM56 128v40h299v-40h-299z" />
    <glyph glyph-name="Euro" unicode="&#x20ac;" horiz-adv-x="679" 
d="M431 608q-101 0 -158.5 -41t-76.5 -127h321v-60h-329q-2 -30 -2 -46q0 -18 2 -46h329v-60h-321q19 -86 76.5 -127t158.5 -41q102 0 195 39v-69q-99 -38 -203 -38q-256 0 -300 236h-73v60h66q-2 30 -2 46t2 46h-66v60h73q44 236 300 236q105 0 203 -39v-69q-95 40 -195 40
z" />
    <glyph glyph-name="uni2116" unicode="&#x2116;" horiz-adv-x="1062" 
d="M672 60v67h321v-67h-321zM832 538q80 0 123 -47t43 -135t-43 -134.5t-123 -46.5t-122.5 46.5t-42.5 134.5t42.5 135t122.5 47zM832 240q46 0 71.5 23t25.5 93t-25.5 93.5t-71.5 23.5q-45 0 -70.5 -23.5t-25.5 -93.5q0 -69 25.5 -92.5t70.5 -23.5zM510 667h72v-667h-79
l-344 550v-550h-72v667h80l343 -548v548z" />
    <glyph glyph-name="servicemark" unicode="&#x2120;" horiz-adv-x="709" 
d="M93 579q0 -24 28.5 -38t63.5 -21.5t63.5 -32.5t28.5 -68q0 -42 -31.5 -65.5t-87.5 -23.5q-54 0 -98 24v39q39 -27 96 -27q85 0 85 53q0 27 -19 43t-46 23.5t-54 16t-46 27.5t-19 50q0 38 28 65.5t87 27.5q44 0 84 -20v-37q-40 21 -80 21q-83 0 -83 -57zM599 667h39v-333
h-36v274l-118 -170l-118 170v-274h-36v333h39l115 -170z" />
    <glyph glyph-name="trademark" unicode="&#x2122;" horiz-adv-x="757" 
d="M49 667h272v-35h-118v-298h-36v298h-118v35zM641 667h39v-333h-36v274l-118 -170l-118 170v-274h-36v333h39l115 -169z" />
    <glyph glyph-name="onethird" unicode="&#x2153;" horiz-adv-x="711" 
d="M591 194q3 -1 7 -3t15.5 -10t20 -18t15.5 -26.5t7 -34.5q0 -44 -32.5 -75t-99.5 -31q-50 0 -96 22v40q44 -24 91 -24t72.5 18t25.5 51q0 69 -100 69h-39v37h40q81 0 81 57q0 58 -85 58q-39 0 -77 -18v39q38 18 81 18q61 0 90.5 -28.5t29.5 -68.5q0 -24 -12 -42t-24 -24z
M117 674h45v-358h-39v318l-71 -48v46zM509 685h47l-437 -707h-47z" />
    <glyph glyph-name="oneeighth" unicode="&#x215b;" horiz-adv-x="706" 
d="M595 194q2 -1 6.5 -3t15 -9t18.5 -16t14.5 -25t6.5 -34q0 -45 -30.5 -78t-94.5 -33q-63 0 -93.5 33t-30.5 78q0 29 15.5 51t31.5 29l15 7q-5 2 -13 7t-21.5 24.5t-13.5 44.5q0 38 27 65.5t83 27.5q57 0 84 -27.5t27 -65.5q0 -26 -12 -45t-24 -25zM460 270q0 -29 18.5 -45
t52.5 -16t53 16t19 45q0 55 -72 55q-71 0 -71 -55zM531 32q28 0 47 8.5t26.5 22.5t10 24t2.5 19q0 67 -86 67q-85 0 -85 -67q0 -9 2.5 -19t10 -24t26 -22.5t46.5 -8.5zM117 674h45v-358h-39v318l-71 -48v46zM509 685h47l-437 -707h-47z" />
    <glyph glyph-name="threeeighths" unicode="&#x215c;" horiz-adv-x="805" 
d="M695 194q2 -1 6.5 -3t14.5 -9t18 -16t14.5 -25t6.5 -34q0 -45 -30.5 -78t-93.5 -33t-93.5 33t-30.5 78q0 29 15.5 51t31.5 29l15 7q-5 2 -13 7t-21.5 24.5t-13.5 44.5q0 38 27 65.5t83 27.5q57 0 84 -27.5t27 -65.5q0 -26 -12 -45t-24 -25zM559 270q0 -29 19 -45t53 -16
t53 16t19 45q0 55 -72 55t-72 -55zM631 32q28 0 46.5 8.5t26 22.5t10 24t2.5 19q0 67 -85 67t-85 -67q0 -9 2.5 -19t10 -24t26 -22.5t46.5 -8.5zM230 509q3 -1 7 -3t15 -10t19.5 -17.5t15.5 -26t7 -34.5q0 -44 -32 -75.5t-100 -31.5q-48 0 -96 23v39q46 -23 92 -23
q98 0 98 69q0 33 -26 51t-75 18h-39v36h41q80 0 80 58t-85 58q-41 0 -77 -19v40q40 18 82 18q61 0 90 -28.5t29 -68.5q0 -24 -11.5 -42t-22.5 -24zM606 685h47l-436 -707h-47z" />
    <glyph glyph-name="fiveeighths" unicode="&#x215d;" horiz-adv-x="805" 
d="M98 674h185v-38h-151l-10 -107q28 10 69 10q115 0 115 -114t-115 -114q-58 0 -102 22v41q35 -25 100 -25q26 0 43 6.5t24 19.5t9 24t2 26q0 45 -21 60t-57 15q-25 0 -46.5 -4t-30.5 -8l-8 -4l-24 24zM605 685h47l-437 -707h-47zM695 194q2 -1 6.5 -3t14.5 -9t18 -16
t14.5 -25t6.5 -34q0 -45 -30.5 -78t-93.5 -33t-93.5 33t-30.5 78q0 29 15.5 51t31.5 29l15 7q-5 2 -13 7t-21.5 24.5t-13.5 44.5q0 38 27 65.5t83 27.5q57 0 84 -27.5t27 -65.5q0 -26 -12 -45t-24 -25zM559 270q0 -29 19 -45t53 -16t53 16t19 45q0 55 -72 55t-72 -55z
M631 32q28 0 46.5 8.5t26 22.5t10 24t2.5 19q0 67 -85 67t-85 -67q0 -9 2.5 -19t10 -24t26 -22.5t46.5 -8.5z" />
    <glyph glyph-name="seveneighths" unicode="&#x215e;" horiz-adv-x="745" 
d="M54 674h245v-36l-156 -322h-43l156 320h-202v38zM539 685h47l-436 -707h-47zM630 194q2 -1 6.5 -3t14.5 -9t18 -16t14.5 -25t6.5 -34q0 -45 -30.5 -78t-93.5 -33t-93.5 33t-30.5 78q0 29 15 51t31 29l15 7q-5 2 -13 7t-21.5 24.5t-13.5 44.5q0 38 27 65.5t84 27.5
q56 0 83 -27.5t27 -65.5q0 -26 -11.5 -45t-22.5 -25zM494 270q0 -29 19 -45t53 -16t53 16t19 45q0 55 -72 55t-72 -55zM566 32q28 0 46.5 8.5t26 22.5t10 24t2.5 19q0 67 -85 67q-41 0 -63.5 -17.5t-22.5 -49.5q0 -14 4 -28t25 -30t57 -16z" />
    <glyph glyph-name="partialdiff" unicode="&#x2202;" horiz-adv-x="583" 
d="M214 676q23 0 46 -3t54.5 -12.5t58.5 -25t54.5 -44t47 -66t32 -94.5t12.5 -126q0 -313 -227 -313q-60 0 -106 20t-71 53.5t-37.5 72t-12.5 79.5q0 97 61 153t166 56q89 0 150 -43q-7 60 -28.5 104t-47 66.5t-59 35.5t-55.5 16t-45 3q-29 0 -57 -5v67q40 6 64 6zM292 60
q21 0 34.5 1.5t38.5 14.5t40.5 36.5t28 72.5t13.5 118q-59 56 -155 56q-75 0 -115 -36.5t-40 -104.5q0 -20 4.5 -41t18.5 -50.5t48 -48t84 -18.5z" />
    <glyph glyph-name="Delta" unicode="&#x2206;" horiz-adv-x="729" 
d="M394 667l308 -667h-675l307 667h60zM134 69h460l-230 499z" />
    <glyph glyph-name="product" unicode="&#x220f;" horiz-adv-x="719" 
d="M686 517v-66h-134v-583h-66v583h-253v-583h-66v583h-134v66h653z" />
    <glyph glyph-name="summation" unicode="&#x2211;" horiz-adv-x="562" 
d="M496 667v-66h-345l172 -268l-172 -268h345v-65h-419v72l167 261l-167 262v72h419z" />
    <glyph glyph-name="radical" unicode="&#x221a;" horiz-adv-x="719" 
d="M630 667h71l-260 -667h-60l-129 330h-158v54h208l109 -279z" />
    <glyph glyph-name="infinity" unicode="&#x221e;" horiz-adv-x="756" 
d="M553 525q52 0 97 -38.5t45 -114.5t-45 -114t-97 -38q-94 0 -177 114q-83 -114 -177 -114q-52 0 -97 38t-45 114t45 114.5t97 38.5q95 0 177 -115q84 115 177 115zM203 265q75 0 146 107q-72 108 -146 108q-4 0 -11 -1t-23 -7t-28.5 -16t-22.5 -32t-10 -52t10 -52
t22.5 -32t29 -16t23 -6.5t10.5 -0.5zM549 265q4 0 10.5 0.5t23 6.5t29 16t22.5 32t10 52t-10 52t-22.5 32t-28.5 16t-23 7t-11 1q-72 0 -146 -108q74 -107 146 -107z" />
    <glyph glyph-name="integral" unicode="&#x222b;" horiz-adv-x="330" 
d="M201 509v-448q0 -52 -13.5 -89t-30.5 -54.5t-43.5 -27.5t-40.5 -11t-33 -1q-21 0 -30 2v65q5 -1 18 -1q24 0 36.5 2t31 12t27 35.5t8.5 66.5v448q0 52 13.5 89t30.5 54.5t43.5 27.5t40.5 11t33 1q12 0 30 -2v-65q-3 0 -9 0.5t-9 0.5q-24 0 -36.5 -2t-31 -12t-27 -35.5
t-8.5 -66.5z" />
    <glyph glyph-name="approxequal" unicode="&#x2248;" horiz-adv-x="611" 
d="M511 401v-60q-38 -35 -81.5 -38.5t-83.5 12t-80.5 31.5t-84 12.5t-81.5 -38.5v60q38 35 81.5 38.5t84 -12.5t80.5 -31.5t83.5 -12t81.5 38.5zM511 244v-61q-38 -35 -81.5 -38.5t-83.5 12.5t-80.5 32t-84 12.5t-81.5 -38.5v60q32 30 68.5 37t68.5 -3.5t68.5 -23t68.5 -23
t68.5 -3.5t68.5 37z" />
    <glyph glyph-name="notequal" unicode="&#x2260;" horiz-adv-x="611" 
d="M498 292h-135l-53 -94h188v-60h-221l-70 -125l-47 26l55 99h-102v60h135l53 94h-188v60h222l70 125l47 -27l-55 -98h101v-60z" />
    <glyph glyph-name="lessequal" unicode="&#x2264;" horiz-adv-x="568" 
d="M458 145v57h-350v-57h350zM458 583v-62l-266 -110l266 -111v-61l-350 145v53z" />
    <glyph glyph-name="greaterequal" unicode="&#x2265;" horiz-adv-x="568" 
d="M108 145v57h350v-57h-350zM108 583l350 -146v-53l-350 -145v61l265 111l-265 110v62z" />
    <glyph glyph-name="lozenge" unicode="&#x25ca;" horiz-adv-x="636" 
d="M318 703l254 -370l-254 -369l-254 369zM318 57l190 276l-190 277l-190 -277z" />
    <glyph glyph-name="published" unicode="&#xe194;" horiz-adv-x="778" 
d="M390 -8q-141 0 -241.5 100t-100.5 242q0 141 100.5 241t241.5 100q142 0 242 -100t100 -241q0 -142 -100 -242t-242 -100zM390 640q-126 0 -216 -90t-90 -216q0 -127 90 -216.5t216 -89.5q127 0 216.5 89.5t89.5 216.5q0 126 -89.5 216t-216.5 90zM412 528q65 0 100 -31
t35 -89t-35 -89.5t-100 -31.5h-97v-148h-42v389h139zM406 328q58 0 78 22.5t20 57.5q0 16 -3.5 28.5t-13 25t-30 19.5t-51.5 7h-91v-160h91z" />
    <glyph glyph-name="commaaccent" unicode="&#xf6c3;" horiz-adv-x="268" 
d="M183 -49q0 -65 -30 -100t-70 -44v54q40 16 40 90h60z" />
    <glyph glyph-name="Acute" unicode="&#xf6c9;" horiz-adv-x="236" 
d="M117 839h74l-83 -115h-48z" />
    <glyph glyph-name="Caron" unicode="&#xf6ca;" horiz-adv-x="406" 
d="M181 724l-80 121h56l45 -71l45 71h56l-80 -121h-42z" />
    <glyph glyph-name="Dieresis" unicode="&#xf6cb;" horiz-adv-x="385" 
d="M79 724v80h80v-80h-80zM227 724v80h80v-80h-80z" />
    <glyph glyph-name="Grave" unicode="&#xf6ce;" horiz-adv-x="219" 
d="M120 839l57 -115h-48l-83 115h74z" />
    <glyph glyph-name="Hungarumlaut" unicode="&#xf6cf;" horiz-adv-x="370" 
d="M237 839h74l-83 -115h-48zM117 839h74l-83 -115h-48z" />
    <glyph glyph-name="Macron" unicode="&#xf6d0;" horiz-adv-x="403" 
d="M86 736v53h234v-53h-234z" />
    <glyph glyph-name="fi" unicode="&#xfb01;" horiz-adv-x="587" 
d="M508 0v499h-72v-499h72zM512 667v-79h-80v79h80zM301 643q-19 0 -29 -1t-26.5 -7t-25.5 -17t-16 -34.5t-7 -56.5v-27h140v-67h-140v-433h-70v433h-86v67h86v26q0 52 14 89t31 54.5t43.5 27.5t40 11t32.5 1q26 0 49 -5v-65q-20 4 -36 4z" />
    <glyph glyph-name="fl" unicode="&#xfb02;" horiz-adv-x="596" 
d="M508 0v689h-72v-689h72zM301 643q-19 0 -29 -1t-26.5 -7t-25.5 -17t-16 -34.5t-7 -56.5v-27h140v-67h-140v-433h-70v433h-86v67h86v26q0 52 14 89t31 54.5t43.5 27.5t40 11t32.5 1q26 0 49 -5v-65q-20 4 -36 4z" />
    <glyph glyph-name="one.numerator" horiz-adv-x="234" 
d="M119 674h44v-359h-38v318l-72 -47v46z" />
    <glyph glyph-name="two.numerator" horiz-adv-x="328" 
d="M117 354h162v-39h-226v34q65 48 123.5 112.5t58.5 116.5q0 61 -84 61q-52 0 -94 -30v42q44 27 97 27q61 0 90.5 -29.5t29.5 -70.5q0 -96 -157 -224z" />
    <glyph glyph-name="three.numerator" horiz-adv-x="323" 
d="M217 509q3 -1 7 -3t15 -10t19.5 -18t15.5 -26.5t7 -34.5q0 -44 -32.5 -75t-99.5 -31q-50 0 -96 22v40q44 -24 91 -24q99 0 99 69t-101 69h-39v37h41q80 0 80 58q0 57 -85 57q-43 0 -77 -18v39q40 18 82 18q61 0 90 -28.5t29 -67.5q0 -24 -11.5 -42t-23.5 -24z" />
    <glyph glyph-name="four.numerator" horiz-adv-x="328" 
d="M242 459h51v-36h-51v-108h-39v108h-174v41l170 210h43v-215zM72 459h131v159z" />
    <glyph glyph-name="five.numerator" horiz-adv-x="319" 
d="M73 674h184v-39h-151l-10 -106q32 9 70 9q114 0 114 -113q0 -64 -33 -89t-81 -25q-63 0 -103 22v40q42 -25 100 -25q26 0 43 7t24.5 20t9.5 23.5t2 26.5q0 45 -21.5 60t-57.5 15q-25 0 -46 -4t-29 -8l-9 -5l-24 25z" />
    <glyph glyph-name="six.numerator" horiz-adv-x="338" 
d="M178 544q56 0 89 -30t33 -82q0 -49 -30 -85t-92 -36q-122 0 -122 168q0 51 12.5 89.5t30.5 58.5t42 32.5t42 15.5t37 3q26 0 52 -7v-36q-24 7 -48 7q-16 0 -32 -3.5t-37.5 -14t-37 -37t-20.5 -66.5q33 23 81 23zM178 347q27 0 45 10t25.5 25.5t10 27t2.5 22.5
q0 76 -83 76q-53 0 -83 -30q0 -46 9 -75.5t24.5 -40t25.5 -13t24 -2.5z" />
    <glyph glyph-name="seven.numerator" horiz-adv-x="315" 
d="M40 674h244v-37l-155 -322h-43l156 320h-202v39z" />
    <glyph glyph-name="eight.numerator" horiz-adv-x="332" 
d="M231 509q2 -1 6.5 -3t14.5 -9t18 -16t14.5 -25t6.5 -34q0 -44 -30.5 -77.5t-93.5 -33.5t-93.5 33.5t-30.5 77.5q0 29 15.5 51t30.5 29l15 7q-5 2 -13 7t-21.5 25t-13.5 45q0 38 27 65t84 27q56 0 83 -27t27 -65q0 -26 -11.5 -45t-23.5 -25zM95 585q0 -29 19 -45t53 -16
t53 16t19 45q0 55 -72 55t-72 -55zM167 347q28 0 46.5 8.5t26 22.5t10 24t2.5 20q0 66 -85 66q-41 0 -63.5 -17t-22.5 -49q0 -10 2.5 -20t10.5 -24t26.5 -22.5t46.5 -8.5z" />
    <glyph glyph-name="nine.numerator" horiz-adv-x="338" 
d="M171 445q-56 0 -89 30t-33 82q0 49 30 85t92 36q122 0 122 -168q0 -51 -12.5 -89.5t-30.5 -58.5t-42 -32.5t-42 -15.5t-36 -3q-27 0 -53 7v36q24 -7 48 -7q12 0 24 1.5t30.5 8.5t32 19t25.5 36t15 56q-33 -23 -81 -23zM171 642q-27 0 -45 -10t-25.5 -25.5t-10 -27
t-2.5 -22.5q0 -76 83 -76q53 0 83 30q0 46 -9 75.5t-24.5 40t-25 13t-24.5 2.5z" />
    <glyph glyph-name="zero.numerator" horiz-adv-x="377" 
d="M188 677q141 0 141 -184t-141 -184q-142 0 -142 184t142 184zM188 345q45 0 73.5 30t28.5 118t-28.5 118t-73.5 30q-46 0 -74.5 -30t-28.5 -118t28.5 -118t74.5 -30z" />
    <glyph glyph-name="one.denominator" horiz-adv-x="234" 
d="M119 360h44v-359h-38v318l-72 -47v46z" />
    <glyph glyph-name="two.denominator" horiz-adv-x="328" 
d="M117 40h162v-39h-226v34q65 48 123.5 112.5t58.5 116.5q0 61 -84 61q-52 0 -94 -30v42q44 27 97 27q61 0 90.5 -29.5t29.5 -70.5q0 -96 -157 -224z" />
    <glyph glyph-name="three.denominator" horiz-adv-x="323" 
d="M217 195q3 -1 7 -3t15 -10t19.5 -18t15.5 -26.5t7 -34.5q0 -44 -32.5 -75t-99.5 -31q-50 0 -96 22v40q44 -24 91 -24q99 0 99 69t-101 69h-39v37h41q80 0 80 58t-85 58q-41 0 -77 -19v39q40 18 82 18q61 0 90 -28.5t29 -67.5q0 -24 -11.5 -42t-23.5 -24z" />
    <glyph glyph-name="four.denominator" horiz-adv-x="328" 
d="M242 145h51v-36h-51v-108h-39v108h-174v41l170 210h43v-215zM72 145h131v159z" />
    <glyph glyph-name="five.denominator" horiz-adv-x="319" 
d="M73 360h184v-39h-151l-10 -106q32 9 70 9q114 0 114 -113q0 -64 -33 -89t-81 -25q-63 0 -103 22v40q42 -25 100 -25q26 0 43 7t24.5 20t9.5 23.5t2 26.5q0 45 -21.5 60t-57.5 15q-25 0 -46 -4t-29 -8l-9 -5l-24 25z" />
    <glyph glyph-name="six.denominator" horiz-adv-x="338" 
d="M178 230q56 0 89 -30t33 -82q0 -49 -30 -85t-92 -36q-122 0 -122 168q0 51 12.5 89.5t30.5 58.5t42 32.5t42 15.5t37 3q22 0 52 -6v-37q-24 7 -48 7q-16 0 -32 -3.5t-37.5 -14t-37 -37t-20.5 -66.5q33 23 81 23zM178 33q27 0 45 10t25.5 25.5t10 27t2.5 22.5q0 76 -83 76
q-53 0 -83 -30q0 -46 9 -75.5t24.5 -40t25.5 -13t24 -2.5z" />
    <glyph glyph-name="seven.denominator" horiz-adv-x="315" 
d="M40 360h244v-37l-155 -322h-43l156 320h-202v39z" />
    <glyph glyph-name="eight.denominator" horiz-adv-x="332" 
d="M231 195q2 -1 6.5 -3t14.5 -9t18 -16t14.5 -25t6.5 -34q0 -44 -30.5 -77.5t-93.5 -33.5t-93.5 33.5t-30.5 77.5q0 29 15.5 51t30.5 29l15 7q-5 2 -13 7t-21.5 25t-13.5 45q0 38 27 65t84 27q56 0 83 -27t27 -65q0 -26 -11.5 -45t-23.5 -25zM95 272q0 -29 19 -45.5
t53 -16.5t53 16.5t19 45.5q0 54 -72 54t-72 -54zM167 34q28 0 46.5 8.5t26 22t10 23.5t2.5 20q0 66 -85 66q-41 0 -63.5 -17t-22.5 -49q0 -10 2.5 -20t10.5 -23.5t26.5 -22t46.5 -8.5z" />
    <glyph glyph-name="nine.denominator" horiz-adv-x="338" 
d="M171 131q-56 0 -89 30t-33 82q0 49 30 85t92 36q122 0 122 -168q0 -51 -12.5 -89.5t-30.5 -58.5t-42 -32.5t-42 -15.5t-36 -3q-27 0 -53 7v36q24 -7 48 -7q12 0 24 1.5t30.5 8.5t32 19t25.5 36t15 56q-33 -23 -81 -23zM171 328q-27 0 -45 -10t-25.5 -25.5t-10 -27
t-2.5 -22.5q0 -76 83 -76q53 0 83 30q0 46 -9 75.5t-24.5 40t-25 13t-24.5 2.5z" />
    <glyph glyph-name="zero.denominator" horiz-adv-x="377" 
d="M188 363q141 0 141 -184t-141 -184q-142 0 -142 184t142 184zM188 31q45 0 73.5 30t28.5 118t-28.5 118t-73.5 30q-46 0 -74.5 -30t-28.5 -118t28.5 -118t74.5 -30z" />
    <glyph glyph-name="zero.slash" horiz-adv-x="657" 
d="M328 676q263 0 263 -342t-263 -342t-263 342t263 342zM328 609q-30 0 -54 -5t-51 -22t-45 -45.5t-29.5 -80.5t-11.5 -122q0 -95 21 -156l312 370q-45 61 -142 61zM328 58q30 0 54 5t51 22t45 46t29.5 80.5t11.5 122.5q0 96 -20 156l-313 -370q45 -62 142 -62z" />
    <glyph glyph-name="Dbreve" horiz-adv-x="670" 
d="M296 667q313 0 313 -333q0 -334 -313 -334h-209v667h209zM291 68q128 0 187 64t59 202t-59 202t-187 64h-132v-532h132zM294 705q-49 0 -77 27.5t-28 76.5h48q0 -29 13.5 -42.5t43.5 -13.5t43.5 13.5t13.5 42.5h48q0 -49 -28 -76.5t-77 -27.5z" />
    </font>
</defs>
</svg>
